<svg id="Layer_1" data-name="Layer 1" xmlns="http://www.w3.org/2000/svg" viewBox="0 0 441.74 424.11"><title>Blue Left</title><path d="M17.21,240.47a195.78,195.78,0,0,0,17.84,60.12,203.79,203.79,0,0,0,66.61,79,199.71,199.71,0,0,0,88,35.32c14.65,2.11,29.37,1.63,44.12,1.35,16.4-.32,32.24-3.62,47.7-8.6,36.59-11.79,67.86-31.9,93.4-60.83a211.27,211.27,0,0,0,33.74-52.46c14.94-32.64,18.85-67.09,16.09-102.45-1.91-24.39-9-47.54-19.92-69.36a206.91,206.91,0,0,0-48.86-63.89c-28.25-24.74-60.59-41-97.4-48.44-7.32-1.42-14.72-1.52-22-2.64h-4c-.18,1-.89.76-1.54.68h-2.41c-.9.11-1.84.33-2.43-.68H213.35c-.6,1-1.53.78-2.44.68h-2.42c-.82-.08-1.88.72-2.28-.68h-1.59a1.88,1.88,0,0,1-1.48.41c-11.84-.11-23.32,2.1-34.59,5.19C128.69,24.09,94.77,44.69,67.38,75.8A206.93,206.93,0,0,0,17.89,179.42c-.94,5.48-.76,11.06-1.68,16.53v3.19c1.38.45.61,1.5.66,2.33s0,1.61,0,2.42.34,1.84-.66,2.43v12.77c1,.6.79,1.53.68,2.44V224c-.05.82.72,1.87-.65,2.32v2.39c.72,3.9.45,7.89,1,11.8m130.42-39.42q17.11-17,34.15-34.13l71.38-71.4c8.11-8.11,15-8.14,23-.11q5.51,5.49,11,11c7.82,7.84,7.87,14.92.1,22.69q-35.69,35.7-71.4,71.38c-3.42,3.4-5.93,7.1-5.92,12.15s2.51,8.73,6,12.11q35.24,34.65,70.48,69.38c8.66,8.53,8.69,15.25.14,23.81q-5.5,5.52-11,11c-7.34,7.29-14.53,7.35-21.89.09q-43-42.45-86-85l-20.44-20.2c-3.16-3.11-5.18-6.7-5-11.37-.12-4.65,2.18-8.23,5.4-11.44" style="fill:#01558a"/></svg>