<svg id="Layer_1" data-name="Layer 1" xmlns="http://www.w3.org/2000/svg" viewBox="0 0 409.31 408.99"><title>Blue Right</title><path d="M408.35,176.1A195.71,195.71,0,0,0,390.46,116a203.62,203.62,0,0,0-66.6-79,199.58,199.58,0,0,0-88-35.32C221.22-.51,206.5,0,191.75.26c-16.4.32-32.24,3.61-47.7,8.59-36.59,11.8-67.86,31.91-93.4,60.84a211.67,211.67,0,0,0-33.74,52.45C2,154.78-1.94,189.24.82,224.59,2.73,249,9.83,272.13,20.74,294A209.18,209.18,0,0,0,167,406.28c7.3,1.49,14.71,1.58,22,2.71h4c.18-1,.89-.77,1.54-.69H197c.9-.12,1.84-.33,2.43.68h12.77c.59-1,1.53-.79,2.44-.68h0l2.42,0h0c.82.06,1.88-.75,2.32.66H221a1.88,1.88,0,0,1,1.48-.41c11.79.11,23.27-2.11,34.54-5.19,39.86-10.9,73.78-31.5,101.17-62.61a206.88,206.88,0,0,0,49.49-103.63c.94-5.47.76-11.05,1.68-16.52v-3.2c-1.38-.44-.61-1.5-.66-2.32l0-2.42c-.1-.91-.33-1.85.68-2.44V197.48c-1-.59-.79-1.53-.68-2.43l0-2.43c0-.82-.72-1.87.65-2.32v-2.4c-.72-3.9-.45-7.89-1-11.8M277.92,215.52q-17.1,17-34.14,34.14L172.4,321.05c-8.12,8.11-15,8.14-23,.12l-11-11c-7.82-7.85-7.87-14.92-.1-22.7q35.69-35.7,71.4-71.37c3.41-3.4,5.93-7.11,5.92-12.15s-2.51-8.73-6-12.12q-35.34-34.63-70.58-69.37c-8.67-8.52-8.7-15.25-.14-23.81,3.67-3.67,7.33-7.35,11-11,7.34-7.29,14.53-7.35,21.89-.09q43,42.46,86,85,10.22,10.09,20.44,20.19c3.16,3.11,5.18,6.71,5,11.38.13,4.64-2.17,8.22-5.4,11.43" style="fill:#01558a"/><path d="M408.35,176.1A195.71,195.71,0,0,0,390.46,116a203.62,203.62,0,0,0-66.6-79,199.58,199.58,0,0,0-88-35.32C221.22-.51,206.5,0,191.75.26c-16.4.32-32.24,3.61-47.7,8.59-36.59,11.8-67.86,31.91-93.4,60.84a211.67,211.67,0,0,0-33.74,52.45C2,154.78-1.94,189.24.82,224.59,2.73,249,9.83,272.13,20.74,294A209.18,209.18,0,0,0,167,406.28c7.3,1.49,14.71,1.58,22,2.71h4c.18-1,.89-.77,1.54-.69H197c.9-.12,1.84-.33,2.43.68h12.77c.59-1,1.53-.79,2.44-.68h0l2.42,0h0c.82.06,1.88-.75,2.32.66H221a1.88,1.88,0,0,1,1.48-.41c11.79.11,23.27-2.11,34.54-5.19,39.86-10.9,73.78-31.5,101.17-62.61a206.88,206.88,0,0,0,49.49-103.63c.94-5.47.76-11.05,1.68-16.52v-3.2c-1.38-.44-.61-1.5-.66-2.32l0-2.42c-.1-.91-.33-1.85.68-2.44V197.48c-1-.59-.79-1.53-.68-2.43l0-2.43c0-.82-.72-1.87.65-2.32v-2.4c-.72-3.9-.45-7.89-1-11.8M277.92,215.52q-17.1,17-34.14,34.14L172.4,321.05c-8.12,8.11-15,8.14-23,.12l-11-11c-7.82-7.85-7.87-14.92-.1-22.7q35.69-35.7,71.4-71.37c3.41-3.4,5.93-7.11,5.92-12.15s-2.51-8.73-6-12.12q-35.34-34.63-70.58-69.37c-8.67-8.52-8.7-15.25-.14-23.81,3.67-3.67,7.33-7.35,11-11,7.34-7.29,14.53-7.35,21.89-.09q43,42.46,86,85,10.22,10.09,20.44,20.19c3.16,3.11,5.18,6.71,5,11.38.13,4.64-2.17,8.22-5.4,11.43" style="fill:#01558a"/></svg>