<svg id="Layer_1" data-name="Layer 1" xmlns="http://www.w3.org/2000/svg" viewBox="0 0 250 239.43"><title>Clemson White</title><path d="M133.18.71c-.06.14-.7.35-.75.5-.25.69.17,1.25.25,1.75-.27,0-.4.46-.5.5-.9.3-2.06-.23-3,0-.5.12-1.21,1.14-1.74,1.25-1.16.23-1.78-.53-2.75.25-.47.36-1.48,3.53-1.74,4.24-.27-.15-.47.11-.75,0s-.65-.86-1-1C118.92,7.27,119,9.2,118,10a8.78,8.78,0,0,1-1.5.5s-.18-.74-.25-1c.3-.27,1.13-.58,1.25-1s-.12-.74,0-1c-.22-.17-.44-.15-.5-.5a7.42,7.42,0,0,1-1.49,0c-.25.34-.91.84-1,1.25,0,.17.11.58,0,.75s-1.16.47-1.25.75c-.37,1.13.25,2,.5,2.74h-.5a2.78,2.78,0,0,0-1,2c0,.2.67.6.75.75s.12.88.25,1,.58,0,.75.25a15.51,15.51,0,0,0-.75,2.49c-.13-.09-.61,0-.75,0-.65-1.39-.81-.87-.49-3-.25-.12-.78-.69-1-.75-.75-.2-1.77.21-2.5,0-.24-.08-.39-.9-.74-1s-1.2.2-1,.25a17,17,0,0,0-1,1.74c0,.08-.47.18-.5.25-.16.41.05,1.21-.25,1.5-.46.42-1.26.11-1.74.5s-1,3.89-.5,4.24c.77.5,1.22,0,1.75-.25s.17-.48.24-1l.75.25a11.53,11.53,0,0,0-.25,1.75c-.27.05-.39.46-.5.5-.75.26-2-.2-2.74,0l-.25.5c-.4.26-.76,0-1.24.25a33,33,0,0,1,.74-3.24c-.46-.19-.12,0-.25-.5-1.2-.09-2.25-.48-3,.5-1,1.27-.61,2.56,0,3.74-.5.6-1.36,1.3-1.5,2.24,0,.3.15,1,0,1.25a8.92,8.92,0,0,1-1.25.25A11.27,11.27,0,0,1,95,30.63a5.63,5.63,0,0,1,1,.25c.27.23.24,1,.5,1.25-.54,0-3.33.24-4,.75s.33,3,0,4c-.18.52-1,1-1.25,1.5A41.16,41.16,0,0,1,88,43.1c-.22.26-.87.5-1,1-.78,3.06.75,2,1.5,2.24a14.33,14.33,0,0,1,1.25,1c-.46,1-1.59,2.52-.75,4,.15.26.84.41,1,.75s-.35.18-.25.75c.24,1.46,1.88,1.5,3.24,1.5a7.85,7.85,0,0,0-1,.75c-2.41.71-2-.34-3,2-1.11-1.47-1.95-1.83-4.24-2.24-.19.39-.46.48-.75.75.45,1.13.47,1.67,1,2.74a7.13,7.13,0,0,0-1.5,1c-.28.34-.19,1-.5,1.25s-.69.06-1,.25a6.38,6.38,0,0,0-1,1.25,3.35,3.35,0,0,1,0,1,5.49,5.49,0,0,0,3,.25c-.14.27.11.45,0,.75l-.5.25c-.54.82-.28,1.31-.5,2.49a5.49,5.49,0,0,1,1,.5c.7,1,1.07,1.79,1.75,2.74-.49.33-1.82.9-2,1.5-.13.43.12.81,0,1.25a13.48,13.48,0,0,1,2.49.75c.15.07.52.68.75.75.44.11.8-.12,1.25,0-.15.57-.28,1.12-.5,2-.62,0-.7-.48-1.5-.25-.15,0-.51.63-.75.75,1,1.77-.12,1.29,2.49,1.5.24.66.51,1.43.75,2H89c.19,1.05-.33,1.42-.25,2.49.06.9.85,2.7,1,3.49.1.58-.19,1.19,0,1.75,0,.1.44.23.5.5,2.07-.73.62.43,2-1.25.27.13.45-.12.75,0,.07,0,.58.71.75.75,1.07.24,1.23-.46,2.24,0s-.12,1.24-.25,1.75c-.08.28.1.71,0,1,1.84,1.32,2.52,2.08,5.23,2a5.44,5.44,0,0,1,.5-1.25c.19-.26.81-.28,1-.5v2.74c.06.3,1.45,2,1.75,2.49.67,0,1.3,0,2,0,.08-.16.35-1,.5-1,2.24-.51,2.84,1.93,4,2.24.71.19,1.11-.14,1.74-.25.25.3.37,1.11.75,1.25s.74-.14,1,0c.05-.26.46-.4.5-.5.14-.43-.13-.82,0-1.25a10.39,10.39,0,0,1-1.75-.25c-.43-.19-.62-1.37-1-1.5h-.5c-.14-.27.13-.74,0-1a12.3,12.3,0,0,0,.74-1c.33.3,1,.34,1.25.75.13.23-.08.73,0,1s.78.69,1,1c.47-.09,1,.11,1.49,0,.86-.2,1.07-1.2,2.25-1.25,1.35-.06,2.62,1.24,4.49.75,1.27-.34,1-2,1.74-2.49s2.1-.15,3.24-.5c.28-.09.71-.61,1-.75a3.35,3.35,0,0,1,0-1c.13-.27.58-.17.75-.5,1.17.37,2.65,1.19,4,.5.32-.17.48-1,.75-1.25s.71-.11,1-.25.74-.87,1-1a13.41,13.41,0,0,1,1.75-.5,5.89,5.89,0,0,0,.25-1.5c-.1-.38-.93-.72-1-1-.19-.73.32-.63.25-1.25a3.64,3.64,0,0,0,.75-1,5.28,5.28,0,0,0,3,0c.54-.27.38-.82.75-1.25a12.51,12.51,0,0,1,2.24-1.5,8.46,8.46,0,0,1-.25-2.24c.1-.56,1-1.09,1.25-1.5s.23-.93.5-1.5a4.26,4.26,0,0,1-.75-.5c-.12-.29.14-.48,0-.75,2-1.41,2.36-2.17,0-3.49,1.48-.77,2.76-1.56,4.24-2.24a4.36,4.36,0,0,1,0-1.25c-.3-.14-.73-.66-1-.75-1-.31-1.61,0-2.24-.5-.27-.22-.15-.83-.25-1.25-.56.19-.38-.69-.5-1,0,0,1.39.09,1,.25,1.6-.19,4.4-.38,3-2.49-.13-.19-.94-.31-1-.5-.15-.49.44-1.2.25-2-.16-.63-1.09-.76-1.25-1-.51-.78-.74-1,.25-1.5-.12-1.71-.21-1.64.75-2.49a3.14,3.14,0,0,1,.75,0,5.79,5.79,0,0,1,.25-1.75l1.49-.75a5.09,5.09,0,0,1-.5-2.74c.07-.2.71-.81.75-1,.1-.58-.34-.37-.25-.75l-1,.25c-.62,2.1-.38,2.82-1.74,1-.66.08-.58.32-1,.5v-2c2-.46,1.25-.12,2.25-1.5.22.16.48-.1.75,0s.31.87.49,1c1.16.82,2.71.26,3.75,0-.12-.48.13-1,0-1.5-.09-.29-.92-.87-1-1.25s-.14-1.37.25-1.25v-.5c-.06-.16-.72-.67-.75-.75a6.24,6.24,0,0,0,0-.75c1.85-.81,2.09-1,3-2.74l.5-.5c.08-.54-.44-1-.25-1.75.09-.44.92-1,1-1.5s-.42-1.16-.25-2c.1-.5,1.13-1.34,1.24-1.74a17,17,0,0,0,0-1.75c-1.63-1-1.55-.55-1.74-3,.4-.26.15-.22.25-.75h.5c0,.5,0,1.25,0,2,0,0,1.38,0,1-.25a5.55,5.55,0,0,1,.75-1.5,4.7,4.7,0,0,0,0-.75c-.1-.41-.74-.9-1-1.25.2-.33.56-.7.74-1a10.6,10.6,0,0,0,.75-1.25c.27-1.18-.48-2.17-.5-2.74,0-1,.61-1.51.5-2.74l-.5-.75c-.57-2.76-.12-2.33-2.74-3-.12.5-.38,1.43-.5,2-.48.12-.31-.22-.5.25-.87,0-2-.21-2.49-.25a10,10,0,0,0-.5-4.24c-.72-.16-2-.85-3-.5-.19.06-.48.62-.75.75a10.23,10.23,0,0,1,0,1.75h-.5c-.25-.52,0-.79-.25-1.25-.35-.62-1.6-1.15-1.74-2-.25-1.41.68-1.45.5-2.74a14.84,14.84,0,0,0-2.5-3.24c-1.38-.3-1.58.64-2.24,1s-1.75.65-2.5,1c.41,1.64,1.37,4.68-1.74,4-1.1-.25-.79-1-1.25-2-.07-.16-.71-.33-.74-.5-.23-1.15.6-2.14,0-3.24-.36-.64-1.26-.44-2-.75ZM58.87,32.38c-.14.23-.58.07-.75.25-.36.35,0,1.26-.25,1.75a2.55,2.55,0,0,1-2.49.75s-.47-1.33-1.25-1.5a6.14,6.14,0,0,0-2,.25l-.25,2-1.25,1.5.75.25a13.83,13.83,0,0,1,1,2c-.26-.12-.72.09-1,0-.86-.3-1.78-2.82-2.74-3.24-1.22-.54-3.31-.48-4.74-.75a3.5,3.5,0,0,1-1,.75v.75c.31.08.4.62,0,.5a2.34,2.34,0,0,1-.25-.5H40.41a8.06,8.06,0,0,1-1.75,3.49c-.3-.23-.7,0-1-.25a6.22,6.22,0,0,1-.5-1c1.68-.47-2.81.09-1,.25-.4.12-.69,0-1,.25l-1.5,1.75c-.39.69-.19,2-1,2.49a7.39,7.39,0,0,1-1.75.25c-1.22,3.21-1.05,1.08-3,2-.32.14-.47,1-.75,1.25s-.72.1-1,.25l-.25.5c-1.09.7-2.12.46-3.24.5a10.15,10.15,0,0,1-.5,1.5c-.43.67-1.32.55-2,1-.86.55-2.89,3.79-3.49,4a10.67,10.67,0,0,0-1.5-.25,20,20,0,0,0-3.24.75,22,22,0,0,0,.25,3.24c-.58-.15.09.28-.5.25l-.5-.5a2.06,2.06,0,0,0-2,1c-.41.87-.06,1.64,0,2.49a5.38,5.38,0,0,1,1.5,0c-.23,2.85.08,2.89-2.49,2.74a4.44,4.44,0,0,1-.75.75c.29,1,.22,1.43.5,2.49-.11,0-1.08.19-1.5.25,0,0,.11-1.29-2.49.5.37,2.75-.91,3.7-.5,6.73-.73.42-1.57,1.06-2.24,1.5.09.44-.09.8,0,1.25.12.62.9,1.45,1,2.24A4.84,4.84,0,0,1,2,83l-.5.25c-.28,1.54.34,3.38.5,4.74.3.1.64,0,.75.25s-.14.73,0,1c-.18.21-.85.5-1,.75-.81,1.31,0,2.49-.25,4l-.5.25v.5a3.41,3.41,0,0,0,0,2c.06.16.61.36.75.5v.5c2.58.18,2.6.2,4-1.5a7.32,7.32,0,0,0,.75.25c-.11.35-.47.82-.5,1A5.2,5.2,0,0,0,6.26,99c.11.08.7.36.75.5a9.55,9.55,0,0,1,0,2c-2.28-1.06-3.77-.84-2.74,2,.13.35,0,.57.25.75.45.29,1.14,0,1.74.25.16.07.58,1,.75,1,1.61.29,2.25-1.33,2.74-2.25.28.14.68.49,1,.5-.87,1.73-.52,1.47,0,3a3.14,3.14,0,0,0,0,.75c-.13-.36-.27.65-.25.75.32,1.48,2.37,1.34,3.74,1.25-.08.12,0,.6,0,.74-.27.67-1.9,1.39-2.49,1.75.15.42-.16.82,0,1.25a6.71,6.71,0,0,0,1.74,1.49A6.51,6.51,0,0,0,17,114c.23-.13.65-.94,1-1,.79-.14,1.07.31,1.74.5v.74c-3.11.35-3.92,1.12-2.24,3.49,1.33-.34,1.65-.16,3-.49.1.81.33,2.43,1,2.74.45.2,1.23-.07,1.74,0,2.65.36,2.71,1.5,4.49-1a6.09,6.09,0,0,0,3,0l.5-.5c.84-.11,1.69.45,2.25.5s1-.25,1.5-.25c.16-.63.28-1.18.5-2a10.6,10.6,0,0,0-1.25-.75v-.5c.83-.39,1.76-1,2.49-1.25a4.54,4.54,0,0,1,3,0l.5.5c1.28.19,1.92-.61,2.74-.75.56-.1,1.47.22,2,0,.76-.33.72-1.88,1.25-2.49s1.81-1,2.49-1.5c-.23-.6.75,0,.75,0,.35,2.27,0,1.89,2.24,2.25.37-.71,1-2.22,2-2.25.44,0,.14.35.75.25.13.35-.13.89,0,1.25,0,.13.62.49.75.75.27-.11.71.07,1,0,.78-.22,1.2-2,1.5-2.74,2.79-.12,2.21.14,3.24-1.75a11.42,11.42,0,0,0,2.74,0c.05-.27.46-.4.5-.5.19-.54-.19-1.2,0-1.74s1.2-.87,1.5-1.25.36-1.16.75-1.5c.73-.66,1.88-.69,2.24-1.74.19-.55-.11-1.17,0-1.75,0-.3.72-1.2.75-1.5.19-1.9-.91-2.07-2-2.74-.33.44-.66.82-1,1.25.62.12-.75.5-.75.5.23-1.35-.2-1.31,1.25-2.24.58-.38,1-.34,1.5-.75.16-.13.3-.66.5-.75.85-.41,1.89,0,2.74-.5.4-.22.19-1,.5-1.25-.39-.72-.09-.83-.75-1.25a8,8,0,0,0-1.25-.5c.26-.18.44-.88.75-1,.72-.29,1.44.07,2-.25s.16-.78.5-1.25c.21-.31,1.05-.46,1.25-.75a11.59,11.59,0,0,0,1-3.74c-.09-.4-.86-.71-1-1-.27-.58-.06-1-.25-1.75.33,0,.37-.47.5-.5.53-.14.72.43,1,.5,1.51.34,1.83-.55,2.49-1a23.44,23.44,0,0,1-.25-3.24c-1.18-.6-1.68-.23-1.75-2s.85-1.61,1-2.24a3.85,3.85,0,0,0-.25-1.5c-.19-2.2.61-2.42,0-4.49a4.36,4.36,0,0,1,1.25,0c.75-1.6.66-.94.25-2.74-.33-.1-.79-.06-1-.25a17.1,17.1,0,0,1-1.5-2c1.08-.86,1.84-1.71,3-2.49-.13-.44.13-.82,0-1.25,0-.15-.69-.74-.75-1-.23-1.08-.11-1.78-.25-2.74.28,0,1.36.19,2,.25a6.92,6.92,0,0,0,.25-1.5c0-.12-1.19-3.19-1.25-3.24-.25-.23-1-.33-1.25-.5.37-1.15,1.22-3.22-.25-3.74-.43-.16-.83.15-1.25,0a11.08,11.08,0,0,1-.5,1.24c-1.25,2.17-.22.14-1.24.5a7.52,7.52,0,0,0,0-1.5,3.33,3.33,0,0,0,.5-.25c.11-.37.25-.31.5-.5a11.47,11.47,0,0,1-.5-1.5,7,7,0,0,1-2.49.75c-.06,0-.62-.72-.75-.75-.29-.08-.72.1-1,0-.19.19-.78,1.17-1,1.25s-.75-.14-1,0c.87,0-.49-3.23-.5-3.24a7.16,7.16,0,0,0,2.24-1.25,6.27,6.27,0,0,1,0-1.5,7.25,7.25,0,0,0-2.74-.25,1.87,1.87,0,0,0-.75-1,9.2,9.2,0,0,1-2,1.25c-.29,2.53-.13,2.5,2,2.49a10.92,10.92,0,0,0-.75,2.74,7.85,7.85,0,0,0-2.49-2.24h-.25c-.43-.87-.12-2.08-.25-3,.53-.1.47,0,.75-.25s1.21-.6,1.5-1c.12-.17.2-1,0-.75-.08,0-.36-.93-.5-1-1.19-.62-3,.24-4,0-.71-.18-1.08-1.77-1.75-2h-.5Zm154.34,3.24-.5.25c-.28.43-.12.67-.25,1.25-1.14-.3-1.61-.2-2.74-.5-1.52,3.26-1,2.35-4.74,2.49l-1.25.5c-.19,0-.44-.22-.25-.25-.35-.16-.9.15-1.24,0s-.38-1.72-1.75-1.25c0,0-.6,1,0,.75,0,0,.2,1.22.25,1.5-1.14.81-1,.52-1.74,1.74a4.66,4.66,0,0,1-1.5-.5c-.94-.63-.44-1.18-.25-1,.09-.55.73-.53.5-1.5-.06-.23-.87-.55-1-.75a6,6,0,0,1-.25-1c-.08,0-.88-.19-1.24-.25a16.73,16.73,0,0,0,0,4,15.85,15.85,0,0,0-3,.25c-.36.11-1.13,1.2-1.49,1.5a3.75,3.75,0,0,0-1.25,0,12.68,12.68,0,0,1-.25-1.5,5,5,0,0,0-3-.5c-.16,0-.67.72-.75.75H185c-1.8,1.76,1,2.16,2,2.74.31.18.68.8,1,1a7.25,7.25,0,0,0-1,.75c-1.09-.77-2.31-1.68-4.24-1-.42.14-.83.88-1.25,1s-1-.1-1.49,0c-.26-1-.81-3-2-3-.39,0-.73.39-1.25.5-.06.26-.46.39-.5.5a10,10,0,0,0-.24,2.24,32.48,32.48,0,0,1-5.24,1.25c-.37,1-.61,1.64-1,2.49h-.5v-.5c-.42-1.2-1.63-.68-2.49-.5-.32,1.9-.81,2.29-1.49,3.74-2.13-.71-1.66-.67-3.25,0a6.27,6.27,0,0,1,0,1.5l.75.25v.75a12.54,12.54,0,0,0-3,0c-.09.56-.69.49-.5,1.49,0,.06.79,1,.75,1-.71.3-1.06,2-1.25,2.74-2.06.52-3,.46-4.49,1.5.09.56-.19,1.21,0,1.75s1.42.83,1.75,1.25.48,1.67,1,2,1.11-.08,1.49,0c.06,0,.27.46.5.5,0,0-.44,1.48-.25,1.5a7.9,7.9,0,0,0-3.74.25c.11-1.17.4-2.85-.75-3.24-.28-.1-.74.12-1,0-.07.26-.47.39-.5.5-.4,1.15.53,1.62.25,2.74-.17.6-3.56,3.4-4.24,4.24.29.28.12.47.25,1,.6.15,1.61.62,2.24.75-2.87.71-4.28,1.73-3,4.49-.87.62-3,2.93-2.74,4.49,0,.34.91.75,1,1s-.12.73,0,1A23.24,23.24,0,0,0,143.14,89c-.17.44.11,1,0,1.5a5.63,5.63,0,0,1,1,.25c.19.11.1.65.25.75-.4.67-1.56,1.56-1.75,2.24-.28,1,.47,2.92-.5,3.24-.56.18.75,1.5.75,1.5v.25a5.23,5.23,0,0,1,.75,1,3.81,3.81,0,0,0,.75.75c-.53.77-1.81,2.07-1.25,3.74.06.18.62.48.75.75a12.94,12.94,0,0,1,1.75-.25v2.49a25.11,25.11,0,0,0,.25,3c.15.26,1.2.29,1.49.5s.27.85.5,1a12.54,12.54,0,0,0,2.24.75,9.44,9.44,0,0,0,0,2.49c.27.73,1.46.67,2.25,1,.25-.37.71-.63,1-1a6.19,6.19,0,0,0,.5-1,8.23,8.23,0,0,0,1.24,2.75c.87.67,1.79.4,3,.25-.11.17,0,.56,0,.74s-1,1-1.24,1.25a8,8,0,0,1,.5,1.25,17.25,17.25,0,0,1,2.49,0c.39,0,1,.71,2,.5.22-.06.78-.93,1-1s.73.11,1,0c1.43,2,.5,2.13,3.49,2.74.83-1.19,1.59-3.73,4-3.24.14,0,.73.94,1,1,.92.19,1.44-.54,2.49-.25.24.06.52.86.75,1,.39.24.8,0,1.24.24.25.14.29.85.5,1,.43.31,3.52,1.52,4.49,1.25.43-.13.7-1.12,1.25-1.25,1.33-.33,2,.57,3.24.25.88-.22,1.44-2,1.75-2.74,3.41.46,2.28.08,4.23-1.25.4-.28.88-.22,1.25-.5s.49-.92.75-1c1-.34,2.2.25,3.24,0,.44-.12.89-.78,1.25-1-.1-.41-.19-.83-.25-1.25-.6-.27-1.23-.74-1.75-1a18.92,18.92,0,0,0,2.49.25c.89-.14,3.1-1.84,3.25-2.74s-1.15-1.8,0-2.24c.61-.24,1.58.1,2.24,0a16.62,16.62,0,0,0,2.24-1,4.36,4.36,0,0,1,0-1.25c-1.69-.8-2-.86-3.74.25l-.25.5c-.88.15-.7-.46-1.24-.5.06-.38.26-1.16.25-1.24,2,.18,2.93.18,4-1,1.88-2.12.82-2.73-1.5-3.49.13-.28-.12-.46,0-.75s.9-.72,1-1-.12-.73,0-1h.5a8.34,8.34,0,0,1,0,1c.32.17.58.16.74.5,1.34-.44,3.59-1.33,3.74-2.74.22-2.14-2.37-2.08-3.74-2a6.14,6.14,0,0,0,.5-4,8.39,8.39,0,0,1,1.5-.25c.05-.27.46-.4.5-.5.45-1.32-.06-1.26.75-2.24a9.2,9.2,0,0,1,1.24-1c-.06.22-.48.87-.5,1-.12.83.47,1,.25,1.74-.08.25-1,.81-1.24,1a4.36,4.36,0,0,1,0,1.25c1.22.23,1.1,1.12,2.49-.25.44-.45.25-.83.5-1.5.23.15.73-.11,1,0s.42,1,.5,1.25c1-.47,2.27-.59,2.74-1.5.11-.23.76-3.54.75-3.74,0-.41-.68-.8-.5-1.75,0,0,1.13-2,1.25-2.24-.87-.23-1.07-.55-2-.75.13-.08-.14-.67,0-.75a4.09,4.09,0,0,1,1.25-.25,6.7,6.7,0,0,1,0-2c.06-.21.81-.6,1-.75-.58-1.24-.73-2-1.24-3.24.53-.26,1-.17,1.49-.5.2-.14.52-.91.75-1,.79-.32,1.54,0,2.24-.25.46-.16.78-.76,1.5-.75,1.54,0,1.86,1.59,2.25,2.74a4.25,4.25,0,0,1,1-.5,10.08,10.08,0,0,1,.25-3c.05-.3-.23-.64-.25-.5v-.75c.86-.68,1.63-1.32,2.5-2-.1-.48.12-1,0-1.5l-.5-.5-.25-.5A6.06,6.06,0,0,1,226,66c-.12,0-.54-.65-.74-.75a7.3,7.3,0,0,1,1.49-2c-.33-1.31-1.2-5-1-6.23.15-1,1.69-1.72,2-2.49.72-2-.62-6.49-1.75-7s-2.56.3-3.73-.25c-.38-.18-.26-.9-.5-1.25-.52-.71-1.56-.48-2.25-1s-1.64-3.66-2.49-4c-.27-.1-.53.15-.75,0-.45,2.49-.37,2.38-2.74,3a11.23,11.23,0,0,0-.5-1.25c-.2-.27-1.17-.49-1.25-.75-.29-.94.54-1.42.25-2.49-.11-.37-1-.76-1.25-1l.25-.5a9.55,9.55,0,0,1,2,0c.5.16.86,1.33,1.5,1.5,3.16.8,2.5-1.53,1.24-2.49a24.17,24.17,0,0,0-2.49-1.5Zm-92.21,66c-.19,0-.37.14-.55,0-.12.2-.77.38-1,.5v3.24c-.13.18-.63.3-.75.5s-.12,1.13-.25,1.24c-.38.31-.62.13-1.25.25.31.16-.59.3-.75.25s-.24-.42-.5-.5c.18-1.31.5-2.77-.74-3.24-.5-.2-.58.35-1.25.25-.21,0-.79-.71-1-.75-2-.43-2.82.89-3.74,1.5-.25-.17-.48.1-.75,0s-.64-1.09-1-1.25a6,6,0,0,0-4,.25c-1.19.64-.56,3.31-1.25,4.49-.11.18-1.72,1.48-2,1.74a12.42,12.42,0,0,0-1.5-1.49c-2.6-.75-4.2,3.71-5.49-1a3.51,3.51,0,0,0-1.5-.25l-.25.5c-.83.53-1.51,1.61-.25,2.24.21.1-.35.28-.25.5-.54.14-1.2.6-1.75.5s-.56-1.23-2-1A25.4,25.4,0,0,0,85,111.84a11,11,0,0,1-2.49-.25l-.25.75c-2,.51.16-1,.5-1.25-.07-.38-.26-1.16-.25-1.25-1-.15-1.3-.1-2.24-.24-.07.32-.3.33-.5.49.26,1,.25,1.45.5,2.25-.63.29-1.47.15-1.75.75a8.9,8.9,0,0,0-.25,2.24c-.51-.16-.5.4-1,.25-.33-.1-.51-1.11-1-1.25-1.3-.39-2.48-.07-3.74-.25A11,11,0,0,1,70,119.82c-.12-.09-.63,0-.75,0a6.26,6.26,0,0,1-.75-2.5c-.42-.11-.39.19-.5-.24-.26.13-.73-.1-1,0s-.24.4-.5.49c0,0,0,1.17.25.75l-.25,1c-.58.09-1.21-.19-1.74,0-.36.12-.65,1.09-1,1.25-1.82.79-3.41-.26-4.74-.75a5,5,0,0,0-1.25,2,13.35,13.35,0,0,0,0-2c0-.15-.46-.19-.5-.5-.36.13-.9-.13-1.25,0-.19.06-.65.55-1,.75-.24-.16-.5-.87-.75-1a11.17,11.17,0,0,0-3.49-.5,4.66,4.66,0,0,0-.25.5c-1.46,1.28-.7,1-.5,2.49l.25,1s1.17,0,.75-.25h1a8.34,8.34,0,0,0,0,1c-.59-.12-.41.36-1,.25-.2,0-.8-1-1-1a11.12,11.12,0,0,0-4,1c-.25.14-.07.57-.25.75s-.86.25-1.25.5c-.16.09-.34.68-.5.74s-.62-.07-.75,0c-.18-.46-.37,0-.5-.25a3.35,3.35,0,0,1,0-1c-.44-.11-.14-.1-.25-.5a6.27,6.27,0,0,1-1.5,0,7,7,0,0,1-2,2.24c-1.21.62-4.05.76-4.74,1.75-.26.36,0,.62-.25,1-.44-.16-.19.27-.25.49-.64-.19,0,.75,0,.75.65.2.81-.26,1.5-.25v.75c-.62.18-.56.08-1.25.25.37.26-.7.23-.75.25l-.25-1.25c-.17-.1-1.18.14-1.25,0a6.1,6.1,0,0,1,0-2c-2.67-.6-1.82-.43-3,1.74a8.84,8.84,0,0,1-.75.75c-.2.89.37,1.68.25,2.25-.06.26-.66.49-.75.74a3.75,3.75,0,0,0-1.25,0,11.22,11.22,0,0,1,.25-1.74c-.22-.17-.44-.15-.5-.5a14.48,14.48,0,0,0-1.74.25,6,6,0,0,0-.75.25c-.35.33-.16,1.39-.5,1.74-.5.49-1.48.3-2,.75-.17.14,0,.64-.25.75s-.91-.14-1.25,0c.26-.13-.5-.5-.5-.5l.5-.75c.89-.27,1.76-.13,2.25-.74l.5-.75a5.07,5.07,0,0,0-.25-1.5c-2.36,0-3.73.28-5,2-.21.27-.21.86-.5,1-.76.34-1.64-.11-2.24.25a7.87,7.87,0,0,0-1,4c.06.17.62.48.75.75a6.27,6.27,0,0,1,1.5,0s-.3.48-.25.5c-1.91.33-2,.75-2.74,2.24-2.49,0-2.87.2-3.49,2v.5c-.51.4-1.47.12-2,.49C6,145.18,7,148.67,7,150.82c1.08.29,2.63.8,3,1.74.1.27-.16.5,0,.75A30.38,30.38,0,0,0,6,157c-.23.79.18,1.32.25,2,.33,0,.83.37,1.5.25s.65-.78,1-1c0,0,1.11.39.75.5.15.11.66.32.75.5.28.56.05,1,.25,1.74-.34.06-.37.48-.5.75-.27-.13-.57-.69-.75-.75-.53-.18-1.2.08-1.75,0-.26.81-1.12,2.3-1,3.24,0,.16.7.64.75.75.38.84-.07.86,0,1.74-.32-.16-.2.39-.75.25-.06,0-.28-.44-.5-.49,1-.38-1.39-.38-.75-.25l-.25,1c1,.61,2.81,1.05,3.49,2,.37.53.26,1.34.75,1.74.78.65,1.74.27,2,1.5.28,1.43-.71,1.84-.5,3,.11.63,1.25,1,1.5,1.5a12.45,12.45,0,0,1,.5,2c.1,1.12-.29,3.92.25,5.24h.25c.75.37,1.29,1.75,2,2h.5c.13.11.08.66.25.75.55.28,1.17-.07,1.74.25s2.48,3.1,1.5,4c1.24,1,3.75,1.61,3.49,4,0,0-.65,1-.75,1.25.31-.17.19.38.75.25.27-.07.34-.73.5-1a3.35,3.35,0,0,0,1,0c.52.5,2.55,2,.75,2.49-.18-.22-.5-.91-.75-1s-.74.11-1,0a3.76,3.76,0,0,1-.75.74s0,.91.25.5c.17.57.11.41.25,1,.5-.24.25,1.74.25,1.74a7.46,7.46,0,0,1,3.74-.49,1.23,1.23,0,0,1,.25-.5c.23-.07,1.23.18,1,.25a16.67,16.67,0,0,0,1.25,1.74c-1.15.34-2.48.38-2.74,1.5a3.14,3.14,0,0,1,0,.75c-.06.12-.9.46-1,.74s.13.89,0,1.25c.45-.22.84,0,1.25-.25s.82-1.16,1.25-1.5c.84-.68,1.67-1,2.49-1.74a19.22,19.22,0,0,0,2,2.74c.3.31,1.33.61,1.5,1,.29.72-.3.92-.25,1.49l.5.75c.37,1.83.1,1.37.75,2.75.27-.11.71.07,1,0,.69-.19,1.44-1.3,2-1.75,1.88,1.7,3.46,3.06,6.48,1.5-.16,1.48-.33,2.94,1,3.49.4.16.76-.07,1,.25a21,21,0,0,1,.75,2.24c2.83-.42,3.58-.08,5.49,1,.38-.24,1.4-1.36,2-1.25l-.25,1.5a13.48,13.48,0,0,1,1.5,1c.2.39-.1,1.06,0,1.5s1.19,1.22,1.25,1.5c.1.57-.37.92-.5,1.49a7.6,7.6,0,0,1,2.49-.49c.7.11,1.23,1.17,1.75,1.49s.8,0,1.25.25c.68.39,1.93,3,2.24,4a15,15,0,0,1,3.74-.75c.31,0,.85.5,1.5.25v-.25c.4-.21.44-.79.75-1s.77,0,1.25-.24c.75,2.47-.23,1.57,2.24,2.24a3.77,3.77,0,0,1,.5-.75c.28-.11.47.14.75,0,.21.17.51.87.75,1a14.7,14.7,0,0,0,3.49.5c.09.56-.19,1.2,0,1.74.38,1.06,5,1.92,6.48,2.25.11.43-.12.8,0,1.24,0,0,2.17,2.21,2.24,2.25,2.19,1,2.26-.7,3.24-1,2-.62,2.73.57,3.49,1,.41.22.79,0,1.25.25.14-.37.41-.34.75-.5-.19-1.4-.12-2.16-.25-3,.4.1.6-.14,1-.25.22.38.83,1.83,1.25,2,1.41.53,3.26-.47,4.24-.5,1.67-.07,1.89.55,2.74,1.25,2.34-1,2.54-.06,5.24-.5.25-.05,1.35-.73,1.49-.75.87-.14,1.71.34,2.25.25.23-.05.73-.63,1-.75-.11-.44.11-.81,0-1.24,0-.1-2.49-3.63.75-2.75.11,0,.56.71.75.75.51.09.77-.29,1-.25-.27-.2.2-1.07.25-1.24-.28-.15-.11-.44-.25-.5a4.78,4.78,0,0,0-1.25-.25c0-.51-.27-.75-.25-1,.07-.89,1.58-1.35,2-2s.17-1.22.5-1.75a8.1,8.1,0,0,1,4.48-1.74c.12,0,.7.72.75.74.26.09.76-.14,1,0s.63,1.1,1,1.25c.18.07.55-.13.75,0,.21-2.82.1-2.17,2.24-2.24a14,14,0,0,1,0,2.24s-.71.46-.75.5c.45,1.68-.1,1.19,1,2.24-.27.08-.39.46-.5.5-.39.13-.85-.11-1.25,0,.4.15-.95.24-1,.25a3.89,3.89,0,0,0-.25-.75c-1.24-1.84-.93-1.74-4-1.74a7.07,7.07,0,0,1-.5,1.74c-.28.36-1.15.44-1.5.75s-.23.24-.5.75v.75c.17,0,.85-.11,1,0,0,.08.18.86.25,1.24-1.23,0,.09,2,.25,2.25-.82.64-1.5,1.3-2.24,2,.13.44.31.54.25,1,2.59,1.52,3.1,1.25,4.48-1.25.17.2.83.27,1,.5s0,.68.25,1c1,1.63,2.22.84,3.49.25a7.5,7.5,0,0,1,.25-3.49c.24.14.73-.12,1,0s.71,1.35,1.24,1.49c1.88.47,2.15-1,3-1.49.43-.29.79,0,1.24-.25s.86-1,1.25-1.25c.2.09.54-.05.75,0,.39.09.7.86,1,1,.85.39,1.32,0,2.25,0a6.11,6.11,0,0,1,.5-.75c.34-1.35-.77-2,.25-2.74.25.12.71-.1,1,0s.46,1,.75,1.24c1.34,1,2.43,0,3.49-.49v-2.25c-.57-.23-2.05-.68-2.24-1.24-.1-.29.12-.74,0-1,.65.18.55-.41,1.25,0s.33,1.62,2,1.49a3.2,3.2,0,0,0,2.24-2s.62-.33.25-.5a1.73,1.73,0,0,1-.74-1.74c0-.12.67-.42.74-.5.59-.78.46-1.39.75-2.5-.22-.17-.44-.15-.5-.5a3.14,3.14,0,0,1-.75,0v-.74c3.42,1.58,3.79.18,7-.75a9.69,9.69,0,0,1,.25-2c.1-.29.89-.63,1-1s-.1-1,0-1.5c-.22-.18-.42-.16-.5-.5a4.29,4.29,0,0,1-1.24,0c-.17-.08-.4-.94-.5-1,.23,0,.58-.38.75-.5,1.38.93.84.81,2.74.75-.06-.6.3-.4.25-1,0-.26-.73-.9-.75-1-.17-.88.4-1.11.5-1.5s-.13-1,0-1.49.93-1,1.25-1.5c-.11-.18,0-.57,0-.75-.14-.57-1.28-1-1.75-1.24.61-2.09,1.37-2.76,1.75-5.24-.21-.05-.67-.48-.75-.5-1.5-.33-2.23,1.18-3,1.75a3.7,3.7,0,0,0-.5.74c-.11-.5-.28-1.69-.5-2.49-.06-.2-.72-.79-.75-1-.24-1.48,1.22-1.68,1.5-2.74v-.25c-.05.19-.31-.73-.25-1s2-3.83,1-4.48c-1.49-.94-2.39.53-3.25.74h-.74c-.07-.27-.47-.39-.5-.49a10.77,10.77,0,0,1,0-3c.13.46.25-.25.25-.25-.86-1.87-.68-1.4-2.75-1.24-.22.86-.74,4.06-1.49,4.49s-1.42,0-2,.25c-.11,0-.7.73-.75.74-.54.12-.73-.31-1-.25.29,0-.25-.74-.25-.74-.07-.91.92-2.46,1-3a7.32,7.32,0,0,0-.5-2.49L146,183c.46.1,1-.15,1.49,0,1.17.39.77,2.62,2.74,1.75s.79-3,.25-4.24c-1.31.1-1.87.08-3,.25.49-1.69.33-1.52,0-3a7.8,7.8,0,0,1-1.24-.49s-1.66,1.61-1.25,1.74c1.07.33.49,3.18,0,4a5.07,5.07,0,0,1-2.25,1.25c.19-3.19-.09-2.51,2-4.49-.3-.92-.23-1.15-.5-2,.13-.1.68-.35.75-.49.22-.49-.21-.74.25-1,0,0-.46-1.3-.5-1.5.25.16.74.09,1,.25s.34.7.5.75,1.2-.19,1-.25c.05-.15.7-.36.75-.5.26-.75-.26-2,0-2.74.19-.55,1.54-.32,1.25-2-.1-.57-1.11-1.14-1.5-1.5.75-1.62.75-1,.25-2.49-.37-1.13-.69-2.33-1.74-2.75-2.73-1.07-3.09.47-2.75,2.75-.18.13-1.19.56-1.25.74v.5h-.49c-.19-.67-.05-1.14-.5-1.49l-.25-.25c.12-.12-.07-.59,0-.75h.25c1-.48,1.35-1.43,2-2.24-2.45-.45-2.45-1.55-3.24-4.24a10.09,10.09,0,0,1,2.5-1.25c1.32-.06,1,.69,1.49,1s.76,0,1.25.25a7.25,7.25,0,0,1,1-.75c-.19-.73.07-1.23-.25-1.75a9.32,9.32,0,0,0-1-.5c-.24-.93.69-.91.5-2-.1-.56-1-.86-1.25-1.25s-.06-.69-.25-1c-.43-.7-1.52-1.08-2.24-1.49.11-.48-.14-1,0-1.5.08-.27.95-.88,1-1.24.14-1.39-1.31-2.13-2.24-2.5-.51-.2.69-.55,1-.5l.5.5c2.21.59,1.8-1.55,1.74-2.74-.32-.06-.36-.45-.5-.5-1.21-.42-2.79,1-3.49,1.25l-.5-.75c.05-.15.7-.36.75-.5a5.31,5.31,0,0,0,0-1.49c.38.16.14-.41.75-.25.1,0,.37.66.5.74,1.27.79,1.79.17,2.74-.49-1-2.54-1-3.53-4-2a4.7,4.7,0,0,0,0-.75c1-.43,1.48-.36,2-1.24.06-.12.36-.19.5-.25-.12-.27.09-.73,0-1-.17-.49-1.13-1-1.25-1.5-.32-1.44.22-2.51,0-4,.24.14.49-.42,1,0s.08,2.51,0,3.5c.48-.08.91.31,1.75,0,.08,0,.18-.49.25-.5,0-.23.71-.65.5-1.5,0-.06-.53-.57-.5-.75.05-.36,1.11-.61,1-2-.07-.82-.91-.58-.5-1.75,0-.07.66-.62.75-.75s-.06-.64-.25-.25c-.16-.08-.27-.91-.5-1a6.7,6.7,0,0,0-2,0v-.5H143a5.33,5.33,0,0,1,.25-1.25c1.07-1,2.23.11,3.49-.25.15,0,.51-.64.75-.75a3.35,3.35,0,0,1,0-1,8.4,8.4,0,0,0-2.74-2.25,5.31,5.31,0,0,0,0-1.49c-.3-.49-.79-.16-1.25-.5a6.15,6.15,0,0,1-1-2.5c-.28-.06-.4-.46-.5-.49-3.11-1.08-1.95,2.53-1.5,3.74-.44.14-.46,0-.75.25-1,.76-.84.66-2.24.24.18-.3-.52-.34-.25-.49,1.4-.85.82-2.45.75-4.49l.75-.25c1.25-2.21.23-2.07-2-2,.17,2.51.53,1.8-1.49,2.25-1.31-1.9-1.81-2.25-4.24-2.25a9.05,9.05,0,0,1-.5,1.25c.09.15.71.65.75.75-.14.09,0,1.06,0,1.25a6.35,6.35,0,0,0-1.5.24,26.81,26.81,0,0,0-1.25-4.73,7.27,7.27,0,0,0,1.75-1.75,4.08,4.08,0,0,1-.25-1.24c-.17,0-1.28-.18-1,0-.76.4-.8.06-1.25.74a8.77,8.77,0,0,0-.49,1.5c-.29-.07-1-.26-1-.25-.15-.2-.3-.62-.5-.75-.27.18-.41-.43-.5-.5,1.86-1,1.91-.71,1.5-2.74-.32,0-.36-.45-.5-.5-.31-.11-1.17.2-1,.25h-.5c-.37.13-.33,1.1-.75,1.25s-.74-.14-1,0c-.31-1.16-.76-2.86-1.75-3.24a.67.67,0,0,0-.2,0Zm104.18,12c-.21.32-.87.59-1,1l.25,1c-.27,0-.4.46-.5.5a12.29,12.29,0,0,1-2,.25c-.18,2.32-.85,3.38-.74,5.23-1-1.86-1.7-1.71-3.24-.5-.24-.29-.43-1.06-.75-1.24-.81-.45-4.37-.22-5.74-.5-.06.27-.47.39-.5.5-.32.91,0,2.51,0,3.49l-.5.25c-.17-.38-.46-.5-.74-.75.64-2.14.07-5-2.5-3.24-.32.21-.22,1-.5,1.25a5.52,5.52,0,0,1-1.24.49c.18.7-.07,1.17.25,1.75.48.88,2.64.75,3,1.75.15.41-.16.81,0,1.24a4.69,4.69,0,0,0-.75,0,5,5,0,0,1-1.49-2.24,20.83,20.83,0,0,1-3.25-.25c-.08,0-.59-.73-.74-.75-.94-.15-1.27.59-2.25.25-.11,0-.24-.45-.5-.5,1.31-.75,1.2-.62,1-2.49l-.75-.25c-.21.29-.57.24-.75.5s-.07,1.1-.24,1.24c-.6.47-1.48-.1-2,.75a21.78,21.78,0,0,0-.75,2.74c-4.82-1.41-3,2.23-6,2.25,0,0-.62-.23-.75-.25v-.5a4.36,4.36,0,0,1,1.25,0c-.12-.08.21-.43.25-.5-.25-.2-.38-.13-.5-.5a13.67,13.67,0,0,0-3.24-.5c-.47.08-1.11,1-1.5,1.25-.93.54-1.94.5-3,1-.19.08-.51.69-.75.75-.84.15-1-.49-1.75-.25a4.21,4.21,0,0,0-.49.75c-.9,1.13-.69,1.68,0,3-.58.14-1.13.27-2,.5.12-.27-.1-.73,0-1a4.26,4.26,0,0,1,.75-.5c-.16-.43.15-.83,0-1.25-.06-.14-.64-.5-.75-.74a6.92,6.92,0,0,1-1.5.25c-.11,1-.38,2.73-.49,3.74a7.52,7.52,0,0,0-1.5,0c.13.35-.13.88,0,1.24s1.35.77,1.75,1c0,0-.1,1.39-.25,1-.16.25.1.46,0,.74s-.62.52-.75.75h-.5a10.1,10.1,0,0,0-1-2c-1.12-1.49-.92-.61-2.74-1.25-.08,0-.43-.72-.5-.75-.43-.15-.83.15-1.25,0-.13.27-.69.56-.74.75-.24.72.05,1.45-.25,2-.5.86-1.69.52-2.5,1-1,.56-1.48,2.75-1.74,4-2-.93-.77-.93-2.74,0,.08.43-.13.57-.25,1a3.69,3.69,0,0,0,2.24,1c-.09,0,0,.91-.25,1a3.75,3.75,0,0,1-1.25,0c-.14.29-.69.74-.74,1-.24,1,.44,2,.5,2.74,0,.5-.28.74-.25,1h-.5c-.52-.18-1-1.6-1.5-1.74-.8-.24-.88.27-1.49.25-.64,2.15-.81,2,.74,3.24-.5.45.11,3.25.25,4.24-.37-.37-.86-.64-1.24-1,.51,0-1.37-.21-.75,0-.29.24-.72,0-1,.25v.5c-.78,2.24.7,2.51,1.5,4.49-.09.07,0,.63,0,.74-.13.31-1.33.66-1.5,1s0,.74,0,1a14.25,14.25,0,0,1-.75,1.25c-.12.47.11,1,0,1.49a11.94,11.94,0,0,1,1.75,1.5c.27.4.17.92.5,1.24s.94.34,1.24.75c.74,1,1.38,3.6,1.75,5a3.81,3.81,0,0,1,1.25.25c-.11.09-.18.64-.25.75-.24.32-1.07.42-1.25.74-.45.77.09,2.72,0,4,.46.19.12,0,.25.5a12.55,12.55,0,0,0,2.74,0c-.11.27.07.71,0,1-.22.79-1.67,1.36-.75,2.74.14.2.93.27,1,.5.35,1.19-.84,1.85.25,2.49a9.38,9.38,0,0,0,1.74.5c-.1.89-.51,2.07,0,3,.09.15.71.33.75.49.16.59-.23,1.44,0,2,.06.14.37.12.5.25.67.59,1.32.5,2,1,.24.18.07.45.25.74,1,1.58,2.3.7,3.49,0a31.68,31.68,0,0,1-.5,4c.18,0,1.49.37,1.24.25.69-.45,1.49-.29,1.75-1.25.06-.26-.13-.77,0-1s.9-.1,1-.25c.09.2-.06.54,0,.75s.72.67.74.75c.09.39-.33,1.43-.24,1.49a1.49,1.49,0,0,0-.5.5,4.7,4.7,0,0,1,0,.75,5,5,0,0,0,3.49.5,5.14,5.14,0,0,0,0,1.24c-.2.3-.71.5-1,.75a4.18,4.18,0,0,1,0,1c.36.14.33.41.5.75a4.41,4.41,0,0,0,2.24-.75,7.53,7.53,0,0,0,1.25-.75c.44-.64.1-1.37.75-1.75.31-.18.88.1,1.25,0l.49-.49c1.3-.31.83.1,1.75.25a5.31,5.31,0,0,0,0,1.49c-.69.25-1.42.51-2,.75,0,.41.24,1.74.24,1.74a3.09,3.09,0,0,0,1.5.25c.34-.07.91-.79,1.25-1,1.55-1,2.44-.39,4.24-1,.1,0,.22-.45.49-.5-.11-.55.23-1.25,0-1.74h-.24c-.46,0-.92-.57-1.25-.75a7.52,7.52,0,0,0,0-1.5c.22-.19.36-.75.75-.75h.25c.46.45,1.06,1.56,1.74,1.75.28.07.72-.11,1,0-.3.91-.2,1.26-.5,2.24.9.39,2.39,1.23,3.74.5s.36-1.63.25-2.24.28-.93.25-1.25a14.87,14.87,0,0,0,4.74-1c.07,0,.17-.48.24-.49h.5c.37-.61,0-1.44.25-2.25.18-.54,1-.82,1.25-1.25s0-.76.25-1.24c1.07,0,3.36.14,4.49-.5.5-.3.77-1.16,1.24-1.5.22-.17.49.09.75,0,1.62-.63.52-2.25,0-3,.87-.23,2.48-.48,2.75-1.25.13-.4-.2-1.14,0-1.49h.25a12.11,12.11,0,0,0,2.49-2.25c.25.12.71-.1,1,0,.61.21.75,1.5,2.25,1,.18-.06.47-.62.75-.75-.24-.38,0-.92-.25-1.25-.12-.15-1.38-.69-1.5-1s.16-.51,0-.75c2.35-.62,2.79-.51,2.49-3.24.85-.53,1.66-.67,2.5-1.25.26-.18.2-.55.5-.75-.18-1.16-.48-2.72.5-3.24,1.82-1,2.39.58,3.24.75,1,.2,1.17-.39,1.74-.5-.06-.6.31-.4.25-1,0-.24-.55-.8-.5-1.25,0-.12.73-.7.75-.75.11-.3-.14-.48,0-.75-.4-.18-1.07-.51-1.5-.75.73-1.57.64-2.11,0-3.74a25.34,25.34,0,0,0,2.5,1.25h1.49a19.19,19.19,0,0,1,1.25-3c.64-.46,1.57-.09,2.24-.5s.22-1.41,0-1.25c.11-.4-.13-.86,0-1.24,0-.11.45-.24.5-.5a5.61,5.61,0,0,0,3.49-.5c.2-1.79.21-2.54-1-3.49-.13-.1-.7-.36-.75-.5-.19-.54.09-1.18,0-1.75.4-.11.4.21.5-.25.41.18.83-.18,1.24,0s.21,1.06.5,1.25a2.45,2.45,0,0,0,3.44-.49,2.62,2.62,0,0,0,.3-.51c.3-1-.13-.94-.25-1.74h-.49l.24-2a7.42,7.42,0,0,1-1.49,0c-.16-.43.15-.82,0-1.24-.06-.17-.65-.35-.75-.5-.26-.43,0-.77-.25-1.25.28-.15.45-.68.75-.75s.58.11.75,0c.46-.33.72-1.56,1.24-1.74a8.48,8.48,0,0,1,2.25,0c.39-1.35.84-2.43,1.25-3.49-.19-.13-.27-.87-.5-1-.49-.28-1.13-.26-1.5-.5-1.46-.93,1.64-1.66,2.24-2.24.24-.24,0-.77.26-1-.28-.06-3.4-.69-3.5-.75s-.85-1.95-1-2.24a6.43,6.43,0,0,0,2.24-1.25c-.37-.33-.34-.94-.75-1.24s-.57-.13-1-.25c0-.05-.18-.92-.25-1.25.78-.37,1.34-.62,2-1-.13-.36.12-.89,0-1.25-.06-.16-.65-.35-.75-.49a14.62,14.62,0,0,1-.75-2c-.13.41-.25-.75-.25-.75,1.07-.62.29-2.08-1-2l-.5.5c-.48.23-.83.31-1.25.5v1.49c.15.31.63.51.75.75.25.53.09,1,.25,1.5-.55-.49-1-.75-1.5-1.25-.43.15-.82-.16-1.25,0s-.69,1.14-1,1.25-.83-.16-1.25,0l-.25-.5c-.12.38-.25-1-.25-1a7.52,7.52,0,0,0,.75-.5c.18-.63-.3-1-.25-1.25h-.5c-.33.11-.65,1.27-1,1.5-.17.11-.58,0-.75,0s-.82.69-1,.75a14.84,14.84,0,0,1-4.74.5,8.1,8.1,0,0,0-.75,2.24h-.74c-.13-.91-.21-1.82-.25-2.74a8.43,8.43,0,0,1,1.49-.25,15.24,15.24,0,0,0-.5-3.74,3.58,3.58,0,0,0,2.5,0l.25-.5a6.34,6.34,0,0,1,1.74,0c0-.23.35-.49.25-1-.19-1-1.63-2-2.24-2.74-.27.37,0,.62-.25,1s-.48,0-.75.25a13.59,13.59,0,0,0-.75,1.24c0-.07-.68-.18-.75-.25a8.26,8.26,0,0,1-.24-1c-.27-.06-.4-.47-.5-.5-.93-.32-1.44.33-2,.5l-.25-.25a8.51,8.51,0,0,0-.25-2.75c-.19,0-.83.11-1,0Z" style="fill:#fff"/></svg>