<svg xmlns="http://www.w3.org/2000/svg" width="409.809" height="342.204" viewBox="0 0 409.809 342.204">
  <g id="Objeto_inteligente_vectorial" data-name="Objeto inteligente vectorial" transform="translate(1)">
    <g id="Group_16" data-name="Group 16" transform="translate(0 0)">
      <path id="Path_39" data-name="Path 39" d="M393.12,632.984a4.2,4.2,0,0,1-3.891-2.51V643.52l.005.015a2.617,2.617,0,0,0,2.716,2.506,3.023,3.023,0,0,0,1.776-.565V632.942a4.348,4.348,0,0,1-.606.042" transform="translate(-162.044 -311.839)" fill="#fff"/>
      <path id="Path_40" data-name="Path 40" d="M405.295,567.651a4.76,4.76,0,1,0-4.757-4.76,4.758,4.758,0,0,0,4.757,4.76" transform="translate(-165.423 -290.225)" fill="#434343"/>
      <path id="Path_41" data-name="Path 41" d="M386.409,580.651a4.76,4.76,0,1,0-4.757-4.76,4.758,4.758,0,0,0,4.757,4.76" transform="translate(-159.78 -294.109)" fill="#434343"/>
      <path id="Path_42" data-name="Path 42" d="M424.22,580.651a4.76,4.76,0,1,0-4.756-4.76,4.758,4.758,0,0,0,4.756,4.76" transform="translate(-171.077 -294.109)" fill="#007ea5"/>
      <path id="Path_43" data-name="Path 43" d="M405.314,592.062a4.76,4.76,0,1,0-4.756-4.759,4.758,4.758,0,0,0,4.756,4.759" transform="translate(-165.429 -297.519)" fill="#007ea5"/>
      <path id="Path_44" data-name="Path 44" d="M404.086,577.745a6.858,6.858,0,0,1,5.745,3.12,8.806,8.806,0,0,1,1.394-.307l.122-.015h.377a6.851,6.851,0,0,1-.635-6.754,7,7,0,0,0-1.118-.257H398.2a7,7,0,0,0-1.118.257,6.848,6.848,0,0,1-.635,6.754h.4l.123.015a8.727,8.727,0,0,1,1.37.3,6.857,6.857,0,0,1,5.74-3.112" transform="translate(-164.201 -294.827)" fill="#434343"/>
      <path id="Path_45" data-name="Path 45" d="M408.6,597.945H396.825s-5.029.595-5.029,4.987v16.326a2,2,0,0,0,2.092,1.9,1.883,1.883,0,0,0,1.955-1.9V605.384h.755v36.346a2.733,2.733,0,0,0,2.853,2.594,2.616,2.616,0,0,0,2.716-2.517l0,0V620.275h1.085V641.8a.154.154,0,0,0,.005.015,2.617,2.617,0,0,0,2.716,2.506,2.733,2.733,0,0,0,2.853-2.594c0-.046,0-.093,0-.138V605.384h.755v13.871a1.883,1.883,0,0,0,1.956,1.9,2,2,0,0,0,2.092-1.9h0V602.932c0-4.393-5.029-4.987-5.029-4.987" transform="translate(-162.811 -302.12)" fill="#007ea5"/>
      <path id="Path_46" data-name="Path 46" d="M387.641,593.541a9.724,9.724,0,0,1,3.289-1.1l.123-.015h.377a6.852,6.852,0,0,1-1-5.746,6.174,6.174,0,0,0-.74-.149H377.919s-5.029.595-5.029,4.987v16.325a2,2,0,0,0,2.092,1.9,1.883,1.883,0,0,0,1.956-1.9v0h0V593.973h.755v36.346a2.733,2.733,0,0,0,2.853,2.595,2.615,2.615,0,0,0,2.716-2.518l0,0V608.863h.78v-9.34a6.628,6.628,0,0,1,3.6-5.983" transform="translate(-157.162 -298.711)" fill="#fff"/>
      <path id="Path_47" data-name="Path 47" d="M419.685,632.979a4.35,4.35,0,0,1-.607-.042v12.534a3.021,3.021,0,0,0,1.78.568,2.615,2.615,0,0,0,2.716-2.518l0,0V630.469a4.207,4.207,0,0,1-3.891,2.511" transform="translate(-170.962 -311.837)" fill="#007ea5"/>
      <path id="Path_48" data-name="Path 48" d="M431.064,632.984a4.2,4.2,0,0,1-3.891-2.51V643.52l.005.015a2.617,2.617,0,0,0,2.716,2.506,3.023,3.023,0,0,0,1.776-.565V632.942a4.348,4.348,0,0,1-.606.042" transform="translate(-173.38 -311.839)" fill="#fff"/>
      <path id="Path_49" data-name="Path 49" d="M443.238,567.651a4.76,4.76,0,1,0-4.757-4.76,4.758,4.758,0,0,0,4.757,4.76" transform="translate(-176.759 -290.225)" fill="#007ea5"/>
      <path id="Path_50" data-name="Path 50" d="M424.2,556.036a4.76,4.76,0,1,0-4.756-4.76,4.758,4.758,0,0,0,4.756,4.76" transform="translate(-171.07 -286.755)" fill="#007ea5"/>
      <path id="Path_51" data-name="Path 51" d="M462.164,580.651a4.76,4.76,0,1,0-4.756-4.76,4.758,4.758,0,0,0,4.756,4.76" transform="translate(-182.413 -294.109)" fill="#434343"/>
      <path id="Path_52" data-name="Path 52" d="M442.03,577.745a6.858,6.858,0,0,1,5.745,3.12,8.8,8.8,0,0,1,1.394-.307l.123-.015h.377a6.85,6.85,0,0,1-.635-6.754,7,7,0,0,0-1.118-.257H436.144a7,7,0,0,0-1.118.257,6.848,6.848,0,0,1-.635,6.754h.4l.124.015a8.736,8.736,0,0,1,1.37.3,6.857,6.857,0,0,1,5.74-3.112" transform="translate(-175.537 -294.827)" fill="#007ea5"/>
      <path id="Path_53" data-name="Path 53" d="M426.9,593.483a9.793,9.793,0,0,1,3.312-1.1l.127-.015h.256a6.92,6.92,0,0,1-.943-5.674,6.287,6.287,0,0,0-.765-.157H417.12a6.238,6.238,0,0,0-.767.157,6.853,6.853,0,0,1-1,5.739h.4l.123.014a9.725,9.725,0,0,1,3.288,1.1,6.628,6.628,0,0,1,3.6,5.983v9.34h.5v-9.34a6.693,6.693,0,0,1,3.631-6.04" transform="translate(-169.849 -298.711)" fill="#007ea5"/>
      <path id="Path_54" data-name="Path 54" d="M431.024,633.025a4.264,4.264,0,0,1-3.984-2.631v13.1l.006.015a2.616,2.616,0,0,0,2.716,2.506,3.02,3.02,0,0,0,1.8-.586v-12.44a4.372,4.372,0,0,1-.542.033" transform="translate(-173.341 -311.815)" fill="#007ea5"/>
      <path id="Path_55" data-name="Path 55" d="M434.984,598.327v22.118a1.9,1.9,0,0,0,.369-1.138V605.433h.386v-7.325c-.214.051-.471.122-.755.22" transform="translate(-175.714 -302.169)" fill="#fff"/>
      <path id="Path_56" data-name="Path 56" d="M438.016,613.155a2,2,0,0,0,2.091-1.9h0V598.4a6.9,6.9,0,0,1-.968-.452h-2.482a5.893,5.893,0,0,0-.6.114v7.325h.369v7.007a1.931,1.931,0,0,0,1.586.763" transform="translate(-176.035 -302.12)" fill="#007ea5"/>
      <path id="Path_57" data-name="Path 57" d="M429.739,603.075V619.4a2,2,0,0,0,2.092,1.9,1.93,1.93,0,0,0,1.586-.763V598.42a4.875,4.875,0,0,0-3.677,4.655" transform="translate(-174.147 -302.262)" fill="#007ea5"/>
      <g id="Group_10" data-name="Group 10" transform="translate(260.395 295.824)">
        <path id="Path_58" data-name="Path 58" d="M448.586,597.945h-2.511a6.856,6.856,0,0,1-.95.441,6.844,6.844,0,0,0,.95-.442h-5.81v.452h0v12.859h0a2,2,0,0,1-2.092,1.9,1.929,1.929,0,0,1-1.586-.764v29.34a2.732,2.732,0,0,0,2.852,2.593,2.616,2.616,0,0,0,2.716-2.517V620.274h1.085V641.8l.006.015a2.615,2.615,0,0,0,2.715,2.506,2.733,2.733,0,0,0,2.853-2.593c0-.046,0-.093,0-.139V605.383h.755v13.871a1.883,1.883,0,0,0,1.956,1.9,2,2,0,0,0,2.092-1.9h0V602.932C453.616,598.539,448.586,597.945,448.586,597.945Zm-7.963.568a6.89,6.89,0,0,0,1.089.246A6.89,6.89,0,0,1,440.624,598.513Z" transform="translate(-436.588 -597.944)" fill="#007ea5"/>
        <path id="Path_59" data-name="Path 59" d="M440.451,597.945a6.9,6.9,0,0,0,.968.452v-.452Z" transform="translate(-437.742 -597.945)" fill="#fff"/>
      </g>
      <path id="Path_60" data-name="Path 60" d="M443.258,582.542a4.76,4.76,0,0,0-4.661,3.808,4.812,4.812,0,0,0-.095.952,4.752,4.752,0,0,0,1.989,3.87h.347v.227a4.759,4.759,0,1,0,2.42-8.857" transform="translate(-176.765 -297.519)" fill="#007ea5"/>
      <path id="Path_61" data-name="Path 61" d="M441.338,594.849q.167.121.347.227v-.227Z" transform="translate(-177.612 -301.195)" fill="#fff"/>
      <path id="Path_62" data-name="Path 62" d="M429.417,563.83a6.931,6.931,0,0,1,.24-1.805,6.337,6.337,0,0,0-.764-.156H417.12a6.345,6.345,0,0,0-.767.157,6.854,6.854,0,0,1-1,5.74h.406l.123.014a9.469,9.469,0,0,1,2.081.539,6.945,6.945,0,0,1,10.044-.017,9.587,9.587,0,0,1,2.21-.587l.127-.015h.257a6.891,6.891,0,0,1-1.183-3.87" transform="translate(-169.849 -291.342)" fill="#007ea5"/>
      <path id="Path_63" data-name="Path 63" d="M462.437,556.036a4.76,4.76,0,1,0-4.756-4.76,4.758,4.758,0,0,0,4.756,4.76" transform="translate(-182.495 -286.755)" fill="#007ea5"/>
      <path id="Path_64" data-name="Path 64" d="M467.656,563.83a6.913,6.913,0,0,1,.24-1.805,6.333,6.333,0,0,0-.765-.156H455.359a6.347,6.347,0,0,0-.767.157,6.85,6.85,0,0,1-1,5.74h.4l.123.014a9.458,9.458,0,0,1,2.081.539,6.945,6.945,0,0,1,10.044-.017,9.593,9.593,0,0,1,2.21-.587l.126-.015h.257a6.9,6.9,0,0,1-1.183-3.87" transform="translate(-181.273 -291.342)" fill="#007ea5"/>
      <path id="Path_65" data-name="Path 65" d="M500.679,556.036a4.76,4.76,0,1,0-4.756-4.76,4.759,4.759,0,0,0,4.756,4.76" transform="translate(-193.92 -286.755)" fill="#007ea5"/>
      <path id="Path_66" data-name="Path 66" d="M505.9,563.83a6.929,6.929,0,0,1,.24-1.805,6.353,6.353,0,0,0-.765-.156H493.6a6.332,6.332,0,0,0-.767.157,6.859,6.859,0,0,1-1,5.74h.4l.123.014a9.465,9.465,0,0,1,2.081.539,6.945,6.945,0,0,1,10.043-.017,9.592,9.592,0,0,1,2.21-.587l.126-.015h.257a6.9,6.9,0,0,1-1.183-3.87" transform="translate(-192.699 -291.342)" fill="#007ea5"/>
      <path id="Path_67" data-name="Path 67" d="M457.629,632.979a4.35,4.35,0,0,1-.607-.042v12.534a3.022,3.022,0,0,0,1.78.568,2.616,2.616,0,0,0,2.716-2.518V630.469a4.207,4.207,0,0,1-3.891,2.511" transform="translate(-182.298 -311.837)" fill="#007ea5"/>
      <path id="Path_68" data-name="Path 68" d="M405.435,567.651a4.76,4.76,0,1,1,4.756-4.76,4.758,4.758,0,0,1-4.756,4.76" transform="translate(-165.465 -290.225)" fill="#007ea5"/>
      <path id="Path_69" data-name="Path 69" d="M386.51,580.651a4.76,4.76,0,1,1,4.756-4.76,4.758,4.758,0,0,1-4.756,4.76" transform="translate(-159.81 -294.109)" fill="#007ea5"/>
      <path id="Path_70" data-name="Path 70" d="M404.187,577.745a6.859,6.859,0,0,0-5.745,3.12,8.8,8.8,0,0,0-1.394-.307l-.123-.015h-.377a6.85,6.85,0,0,0,.635-6.754,6.982,6.982,0,0,1,1.118-.257h11.771a7,7,0,0,1,1.118.257,6.851,6.851,0,0,0,.635,6.754h-.4l-.123.015a8.7,8.7,0,0,0-1.37.3,6.857,6.857,0,0,0-5.741-3.112" transform="translate(-164.231 -294.827)" fill="#007ea5"/>
      <path id="Path_71" data-name="Path 71" d="M377.98,586.533h11.771a6.342,6.342,0,0,1,.767.157,6.852,6.852,0,0,0,1,5.739h-.4l-.123.014a9.744,9.744,0,0,0-3.289,1.1,6.629,6.629,0,0,0-3.6,5.983v9.34h-.78v21.529l-.006.015a2.617,2.617,0,0,1-2.716,2.506,2.732,2.732,0,0,1-2.852-2.595c0-.046,0-.092,0-.138V593.973H377v13.871a1.883,1.883,0,0,1-1.955,1.9,2,2,0,0,1-2.092-1.9h0V591.521c0-4.393,5.029-4.988,5.029-4.988" transform="translate(-157.181 -298.711)" fill="#007ea5"/>
      <path id="Path_72" data-name="Path 72" d="M393.181,632.979a4.333,4.333,0,0,0,.606-.042v12.534a3.018,3.018,0,0,1-1.78.568,2.615,2.615,0,0,1-2.716-2.518l0,0V630.469a4.206,4.206,0,0,0,3.891,2.511" transform="translate(-162.062 -311.837)" fill="#007ea5"/>
      <path id="Path_73" data-name="Path 73" d="M469.462,632.984a4.2,4.2,0,0,1-3.891-2.51V643.52l.006.015a2.616,2.616,0,0,0,2.715,2.506,3.024,3.024,0,0,0,1.777-.565V632.942a4.352,4.352,0,0,1-.606.042" transform="translate(-184.852 -311.839)" fill="#fff"/>
      <path id="Path_74" data-name="Path 74" d="M481.636,567.651a4.76,4.76,0,1,0-4.756-4.76,4.758,4.758,0,0,0,4.756,4.76" transform="translate(-188.231 -290.225)" fill="#434343"/>
      <path id="Path_75" data-name="Path 75" d="M462.751,580.651a4.76,4.76,0,1,0-4.756-4.76,4.759,4.759,0,0,0,4.756,4.76" transform="translate(-182.589 -294.109)" fill="#434343"/>
      <path id="Path_76" data-name="Path 76" d="M500.562,580.651a4.76,4.76,0,1,0-4.756-4.76,4.758,4.758,0,0,0,4.756,4.76" transform="translate(-193.885 -294.109)" fill="#007ea5"/>
      <path id="Path_77" data-name="Path 77" d="M480.428,577.745a6.858,6.858,0,0,1,5.745,3.12,8.8,8.8,0,0,1,1.394-.307l.123-.015h.377a6.851,6.851,0,0,1-.635-6.754,7,7,0,0,0-1.118-.257H474.543a6.994,6.994,0,0,0-1.118.257,6.849,6.849,0,0,1-.635,6.754h.405l.123.015a8.713,8.713,0,0,1,1.371.3,6.856,6.856,0,0,1,5.74-3.112" transform="translate(-187.009 -294.827)" fill="#434343"/>
      <path id="Path_78" data-name="Path 78" d="M465.8,619.724a3.978,3.978,0,0,1-4.064-3.875V599.523a6.5,6.5,0,0,1,3.531-5.867,9.576,9.576,0,0,1,3.24-1.08l.116-.014h.63a6.73,6.73,0,0,1-1.163-5.73,7.165,7.165,0,0,0-1.249-.3H455.064a6.232,6.232,0,0,0-.766.156,6.853,6.853,0,0,1-1,5.74h.4l.123.015a9.72,9.72,0,0,1,3.288,1.1,6.628,6.628,0,0,1,3.6,5.983v9.34h.78v21.529l.006.015a2.616,2.616,0,0,0,2.715,2.506,2.942,2.942,0,0,0,2.32-1.089V619.659a4.178,4.178,0,0,1-.739.066" transform="translate(-181.185 -298.711)" fill="#007ea5"/>
      <path id="Path_79" data-name="Path 79" d="M484.154,591.369a4.759,4.759,0,1,0-7.166-4.829,4.431,4.431,0,0,1,1.955,3.788v.863c.087.062.176.121.268.177Z" transform="translate(-188.263 -297.519)" fill="#007ea5"/>
      <path id="Path_80" data-name="Path 80" d="M476.962,588.244a4.762,4.762,0,0,0,1.955,4.651v-.863a4.431,4.431,0,0,0-1.955-3.788" transform="translate(-188.237 -299.222)" fill="#007ea5"/>
      <path id="Path_81" data-name="Path 81" d="M472.927,598.48v22.335a1.871,1.871,0,0,0,.688-1.473V605.468h.067v-7.242c-.227.064-.484.148-.755.254" transform="translate(-187.05 -302.204)" fill="#007ea5"/>
      <path id="Path_82" data-name="Path 82" d="M478.345,598.052v13.2h0a2.1,2.1,0,0,1-3.359,1.469v29a2.733,2.733,0,0,0,2.853,2.594,2.616,2.616,0,0,0,2.716-2.518V620.275h1.086V641.8s0,.006.006.015a2.616,2.616,0,0,0,2.715,2.506,2.733,2.733,0,0,0,2.853-2.594c0-.046,0-.093,0-.139V605.384h.755v13.871a1.883,1.883,0,0,0,1.956,1.9,2,2,0,0,0,2.092-1.9h0V602.933c0-4.393-5.03-4.988-5.03-4.988h-2.931a6.7,6.7,0,0,1-5.708.107" transform="translate(-187.665 -302.12)" fill="#007ea5"/>
      <path id="Path_83" data-name="Path 83" d="M478.051,611.256h0v-13.2c-.077-.035-.154-.069-.229-.107h-2.9a6.648,6.648,0,0,0-.915.2v7.242h.689v7.342a2.1,2.1,0,0,0,3.359-1.47" transform="translate(-187.371 -302.12)" fill="#007ea5"/>
      <path id="Path_84" data-name="Path 84" d="M468.137,603.125V619.45a2.1,2.1,0,0,0,3.359,1.473V598.588a4.769,4.769,0,0,0-3.359,4.537" transform="translate(-185.619 -302.312)" fill="#007ea5"/>
      <path id="Path_85" data-name="Path 85" d="M482.515,598.638a6.681,6.681,0,0,0,2.969-.693h-5.709v.108a6.689,6.689,0,0,0,2.74.586" transform="translate(-189.096 -302.12)" fill="#007ea5"/>
      <path id="Path_86" data-name="Path 86" d="M479.678,598.052v-.107h-.229q.113.055.229.107" transform="translate(-188.998 -302.12)" fill="#fff"/>
      <path id="Path_87" data-name="Path 87" d="M482.63,595.823a4.731,4.731,0,0,0,2.472-.693h-4.943a4.731,4.731,0,0,0,2.472.693" transform="translate(-189.21 -301.279)" fill="#fff"/>
      <path id="Path_88" data-name="Path 88" d="M479.776,596.535h.008l-.008,0Z" transform="translate(-189.096 -301.698)" fill="#fff"/>
      <path id="Path_89" data-name="Path 89" d="M496.027,632.979a4.347,4.347,0,0,1-.606-.042v12.534a3.019,3.019,0,0,0,1.78.568,2.615,2.615,0,0,0,2.716-2.518V630.469a4.206,4.206,0,0,1-3.891,2.511" transform="translate(-193.77 -311.837)" fill="#007ea5"/>
      <path id="Path_90" data-name="Path 90" d="M507.406,632.984a4.2,4.2,0,0,1-3.891-2.51V643.52l.005.015a2.616,2.616,0,0,0,2.716,2.506,3.023,3.023,0,0,0,1.776-.565V632.942a4.353,4.353,0,0,1-.606.042" transform="translate(-196.188 -311.839)" fill="#fff"/>
      <path id="Path_91" data-name="Path 91" d="M519.58,567.651a4.76,4.76,0,1,0-4.756-4.76,4.758,4.758,0,0,0,4.756,4.76" transform="translate(-199.567 -290.225)" fill="#007ea5"/>
      <path id="Path_92" data-name="Path 92" d="M538.506,580.651a4.76,4.76,0,1,0-4.756-4.76,4.759,4.759,0,0,0,4.756,4.76" transform="translate(-205.221 -294.109)" fill="#007ea5"/>
      <path id="Path_93" data-name="Path 93" d="M518.372,577.745a6.858,6.858,0,0,1,5.745,3.12,8.816,8.816,0,0,1,1.394-.307l.123-.015h.377a6.849,6.849,0,0,1-.634-6.754,6.994,6.994,0,0,0-1.118-.257H512.486a7,7,0,0,0-1.118.257,6.846,6.846,0,0,1-.635,6.754h.405l.123.015a8.716,8.716,0,0,1,1.371.3,6.856,6.856,0,0,1,5.74-3.112" transform="translate(-198.345 -294.827)" fill="#007ea5"/>
      <path id="Path_94" data-name="Path 94" d="M503.246,593.483a9.793,9.793,0,0,1,3.312-1.1l.127-.015h.256A6.914,6.914,0,0,1,506,586.69a6.287,6.287,0,0,0-.765-.157H493.462a6.238,6.238,0,0,0-.767.157,6.858,6.858,0,0,1-1,5.739h.4l.123.014a9.727,9.727,0,0,1,3.289,1.1,6.628,6.628,0,0,1,3.6,5.983v9.34h.5v-9.34a6.693,6.693,0,0,1,3.632-6.04" transform="translate(-192.657 -298.711)" fill="#007ea5"/>
      <path id="Path_95" data-name="Path 95" d="M507.366,633.025a4.264,4.264,0,0,1-3.984-2.631v13.1l.006.015a2.616,2.616,0,0,0,2.715,2.506,3.022,3.022,0,0,0,1.8-.586v-12.44a4.377,4.377,0,0,1-.542.033" transform="translate(-196.148 -311.815)" fill="#007ea5"/>
      <path id="Path_96" data-name="Path 96" d="M517.219,590.329v.843h5.189a4.758,4.758,0,1,0-7.429-4.822,4.478,4.478,0,0,1,2.24,3.979" transform="translate(-199.613 -297.518)" fill="#007ea5"/>
      <path id="Path_97" data-name="Path 97" d="M517.179,591.951a4.479,4.479,0,0,0-2.24-3.979,4.772,4.772,0,0,0,1.893,4.822h.347Z" transform="translate(-199.573 -299.141)" fill="#007ea5"/>
      <path id="Path_98" data-name="Path 98" d="M516.607,598.4v12.859h0a2,2,0,0,1-2.091,1.9,1.929,1.929,0,0,1-1.586-.764v29.34a2.733,2.733,0,0,0,2.853,2.593,2.615,2.615,0,0,0,2.716-2.517V620.275h1.086V641.8l.006.015a2.616,2.616,0,0,0,2.716,2.506,2.732,2.732,0,0,0,2.852-2.593c0-.046,0-.093,0-.139V605.384h.755v13.871a1.884,1.884,0,0,0,1.956,1.9,2,2,0,0,0,2.091-1.9h0V602.933c0-4.393-5.029-4.988-5.029-4.988h-2.51a6.905,6.905,0,0,1-5.811.452" transform="translate(-199.001 -302.12)" fill="#007ea5"/>
      <path id="Path_99" data-name="Path 99" d="M511.325,598.327v22.118a1.9,1.9,0,0,0,.37-1.138V605.433h.385v-7.325c-.213.051-.471.122-.755.22" transform="translate(-198.522 -302.169)" fill="#fff"/>
      <path id="Path_100" data-name="Path 100" d="M514.358,613.155a2,2,0,0,0,2.091-1.9h0V598.4a6.9,6.9,0,0,1-.968-.452H513a5.9,5.9,0,0,0-.6.114v7.325h.369v7.007a1.93,1.93,0,0,0,1.586.763" transform="translate(-198.844 -302.12)" fill="#007ea5"/>
      <path id="Path_101" data-name="Path 101" d="M506.081,603.075V619.4a2,2,0,0,0,2.092,1.9,1.931,1.931,0,0,0,1.586-.763V598.42a4.875,4.875,0,0,0-3.678,4.655" transform="translate(-196.955 -302.262)" fill="#007ea5"/>
      <path id="Path_102" data-name="Path 102" d="M520.595,598.835a6.869,6.869,0,0,0,3.389-.89h-5.811v.452a6.9,6.9,0,0,0,2.421.438" transform="translate(-200.568 -302.12)" fill="#007ea5"/>
      <path id="Path_103" data-name="Path 103" d="M517.761,598.4v-.452h-.968a6.9,6.9,0,0,0,.968.452" transform="translate(-200.155 -302.12)" fill="#007ea5"/>
      <path id="Path_104" data-name="Path 104" d="M523.362,594.849h-5.189v.227a4.75,4.75,0,0,0,5.189-.227" transform="translate(-200.568 -301.195)" fill="#007ea5"/>
      <path id="Path_105" data-name="Path 105" d="M517.679,594.849q.168.121.347.227v-.227Z" transform="translate(-200.42 -301.195)" fill="#434343"/>
      <path id="Path_106" data-name="Path 106" d="M543.177,586.533H531.406a6.323,6.323,0,0,0-.767.157,6.853,6.853,0,0,1-1,5.739h.405l.123.014a9.734,9.734,0,0,1,3.288,1.1,6.628,6.628,0,0,1,3.6,5.983v9.34h.781v21.529a.092.092,0,0,0,.006.015,2.616,2.616,0,0,0,2.715,2.506,2.733,2.733,0,0,0,2.853-2.595c0-.046,0-.092,0-.138V593.973h.755v13.871a1.883,1.883,0,0,0,1.956,1.9,2,2,0,0,0,2.092-1.9h0V591.521c0-4.393-5.029-4.988-5.029-4.988" transform="translate(-203.993 -298.711)" fill="#007ea5"/>
      <path id="Path_107" data-name="Path 107" d="M533.971,632.979a4.347,4.347,0,0,1-.606-.042v12.534a3.019,3.019,0,0,0,1.78.568,2.615,2.615,0,0,0,2.716-2.518V630.469a4.206,4.206,0,0,1-3.891,2.511" transform="translate(-205.106 -311.837)" fill="#007ea5"/>
      <path id="Path_108" data-name="Path 108" d="M481.777,567.651a4.76,4.76,0,1,1,4.756-4.76,4.758,4.758,0,0,1-4.756,4.76" transform="translate(-188.273 -290.225)" fill="#007ea5"/>
      <path id="Path_109" data-name="Path 109" d="M462.852,580.651a4.76,4.76,0,1,1,4.756-4.76,4.758,4.758,0,0,1-4.756,4.76" transform="translate(-182.619 -294.109)" fill="#007ea5"/>
      <path id="Path_110" data-name="Path 110" d="M480.529,577.745a6.858,6.858,0,0,0-5.745,3.12,8.8,8.8,0,0,0-1.394-.307l-.123-.015h-.377a6.851,6.851,0,0,0,.635-6.754,7,7,0,0,1,1.118-.257h11.771a7,7,0,0,1,1.118.257,6.849,6.849,0,0,0,.635,6.754h-.4l-.123.015a8.715,8.715,0,0,0-1.37.3,6.857,6.857,0,0,0-5.741-3.112" transform="translate(-187.039 -294.827)" fill="#007ea5"/>
      <path id="Path_111" data-name="Path 111" d="M469.523,632.979a4.343,4.343,0,0,0,.606-.042v12.534a3.018,3.018,0,0,1-1.78.568,2.616,2.616,0,0,1-2.716-2.518V630.469a4.206,4.206,0,0,0,3.891,2.511" transform="translate(-184.87 -311.837)" fill="#007ea5"/>
      <path id="Path_112" data-name="Path 112" d="M384.41,580.29c.711,0,1.469-.01,1.722-.013.28,0,1.181.014,1.95.014h.113l.016.037a2.7,2.7,0,0,1,.586-.025l-.011-.016c.161,0,.292-.006.382-.011a.979.979,0,0,0,.741-.538c.179-.039.371-.236.6-.612a5.759,5.759,0,0,0,.3-.57l.006-.014a12.739,12.739,0,0,0,.61-4.57,5.873,5.873,0,0,0-1.239-2.678,4.832,4.832,0,0,0-1.549-1.241,5.39,5.39,0,0,0-2.358-.547h0a4.708,4.708,0,0,0-3.763,1.662,6.3,6.3,0,0,0-1.168,2.526,10.641,10.641,0,0,0,.411,4.589,5.62,5.62,0,0,0,.232.628,4,4,0,0,0,.229.583c.247.5.542.763.878.782.15.009.418.013.737.014l-.008.015h.58l.005-.014m5.459-2.166c-.039.193-.074.365-.1.508-.04.194-.072.346-.086.438-.007.044-.012.086-.015.125-.143.315-.336.6-.52.606s-.624.014-1.1.014l.354-1.927h1.249a1.073,1.073,0,0,0,.276-.037c0,.015-.006.03-.009.045a1.51,1.51,0,0,0,.577-.415,4.4,4.4,0,0,1-.621.642m-1.7-1.626h-4.076v0l-.009,0H382.52a.336.336,0,0,1-.079-.01c-.105-1.135-.033-2.3.631-2.677a7.062,7.062,0,0,1,2.881-.546c.1,0,.193,0,.289.005h.074c.1,0,.193-.005.289-.005a7.1,7.1,0,0,1,2.881.546c.626.36.726,1.414.647,2.485a.639.639,0,0,1-.39.2h-1.564l-.009,0Zm1.858.713c0,.031-.009.063-.014.093a.772.772,0,0,1-.369.11h-1.161l.081-.441h1.178a.826.826,0,0,0,.328-.071c0,.015,0,.03-.006.045a1.918,1.918,0,0,0,.513-.267,5.362,5.362,0,0,1-.55.531m-8.341-2.259a2.082,2.082,0,0,1,1.1-1.9,7.186,7.186,0,0,1,3.612-.73c.816.012,3.312.261,4.052,1.213a2.488,2.488,0,0,1,.195,2.4l-.139.413a3.656,3.656,0,0,0-.313-2.609c-.605-.78-2.863-1.072-3.8-1.086a6.882,6.882,0,0,0-3.442.686c-1.48.861-.851,2.874-.845,2.894l.062.181a3.071,3.071,0,0,1-.479-1.462m.215,1.76a2.211,2.211,0,0,0,.6.3c0-.014,0-.027-.005-.04h1.2l.081.441h-1.161c-.02,0-.039,0-.059,0l-.016-.1a4.346,4.346,0,0,1-.641-.6m1.219,3.09a.413.413,0,0,1-.265-.175,1.089,1.089,0,0,0,.022-.556c-.014-.093-.045-.245-.086-.438-.027-.129-.059-.282-.094-.453a4.066,4.066,0,0,1-.7-.7,1.434,1.434,0,0,0,.645.438c0-.01,0-.021-.006-.031h1.224l.354,1.927c-.475,0-.9,0-1.1-.014m1.059-2.829h3.9l-.081.441h-3.74Zm1.9.916h1.832l-.354,1.926c-.554,0-1.094-.008-1.351-.011v0h-.157v0c-.257,0-.8.009-1.351.011l-.353-1.926Z" transform="translate(-159.65 -293.624)" fill="#003651"/>
      <path id="Path_113" data-name="Path 113" d="M403.194,591.313c.711,0,1.469-.01,1.722-.014.28,0,1.181.014,1.95.014h.113c0,.011.009.024.016.037a2.682,2.682,0,0,1,.586-.025l-.011-.016c.16,0,.292-.006.382-.011a.98.98,0,0,0,.742-.538c.179-.04.371-.236.6-.612a5.992,5.992,0,0,0,.3-.57l.006-.015a12.736,12.736,0,0,0,.61-4.57,5.861,5.861,0,0,0-1.24-2.678,4.827,4.827,0,0,0-1.548-1.24,5.4,5.4,0,0,0-2.358-.547h0a4.709,4.709,0,0,0-3.763,1.663,6.29,6.29,0,0,0-1.168,2.526,10.651,10.651,0,0,0,.41,4.589,5.877,5.877,0,0,0,.233.628,4.055,4.055,0,0,0,.228.583c.247.5.542.763.878.782.15.009.418.013.737.014a.1.1,0,0,1-.009.015h.58l.005-.014m5.459-2.166c-.038.193-.075.365-.1.508-.04.193-.072.345-.087.438-.006.045-.011.086-.015.125-.143.315-.336.6-.521.606s-.624.014-1.1.014l.354-1.927h1.248a1.066,1.066,0,0,0,.276-.037c0,.015-.005.03-.008.045a1.507,1.507,0,0,0,.577-.415,4.422,4.422,0,0,1-.621.643m-1.7-1.626h-4.076v0l-.009,0H401.3a.35.35,0,0,1-.08-.011c-.1-1.134-.032-2.3.632-2.677a7.076,7.076,0,0,1,2.881-.546c.1,0,.193,0,.288,0h.074c.1,0,.193,0,.289,0a7.094,7.094,0,0,1,2.881.546c.626.36.726,1.413.647,2.484a.636.636,0,0,1-.39.2h-1.564l-.009,0Zm1.859.713c0,.031-.009.063-.013.093a.781.781,0,0,1-.37.11h-1.161l.081-.441h1.179a.819.819,0,0,0,.327-.071c0,.015,0,.029-.005.045a1.909,1.909,0,0,0,.512-.267,5.353,5.353,0,0,1-.549.532m-8.341-2.259a2.081,2.081,0,0,1,1.1-1.9,7.187,7.187,0,0,1,3.612-.73c.816.012,3.312.261,4.052,1.213a2.489,2.489,0,0,1,.195,2.4l-.139.413a3.654,3.654,0,0,0-.314-2.609c-.605-.779-2.862-1.072-3.8-1.086a6.887,6.887,0,0,0-3.442.686c-1.479.862-.851,2.875-.845,2.895l.063.181a3.066,3.066,0,0,1-.479-1.461m.215,1.76a2.2,2.2,0,0,0,.6.3c0-.013,0-.026-.005-.04h1.2l.081.441H401.4c-.02,0-.039,0-.059,0l-.016-.1a4.35,4.35,0,0,1-.641-.6m1.219,3.09a.412.412,0,0,1-.265-.175,1.093,1.093,0,0,0,.022-.556c-.014-.093-.046-.245-.087-.438-.027-.129-.059-.282-.094-.453a4.078,4.078,0,0,1-.7-.7,1.439,1.439,0,0,0,.645.438l-.006-.031h1.224l.354,1.927c-.474,0-.9,0-1.1-.014m1.059-2.829h3.9l-.081.441h-3.741Zm1.9.916H406.7l-.353,1.926c-.555,0-1.094-.008-1.351-.011v0h-.157v0c-.257,0-.8.009-1.351.011l-.353-1.926Z" transform="translate(-165.262 -296.917)" fill="#003651"/>
      <path id="Path_114" data-name="Path 114" d="M441.227,591.262c.711,0,1.469-.01,1.721-.013.281,0,1.181.013,1.95.013h.113c0,.012.01.024.016.037a2.728,2.728,0,0,1,.585-.025l-.01-.016c.16,0,.292-.006.381-.011a.981.981,0,0,0,.742-.538c.178-.04.37-.236.6-.612a6.071,6.071,0,0,0,.3-.57l.006-.014a12.754,12.754,0,0,0,.61-4.57,5.862,5.862,0,0,0-1.24-2.678,4.833,4.833,0,0,0-1.548-1.241,5.394,5.394,0,0,0-2.358-.546h0a4.709,4.709,0,0,0-3.763,1.662,6.294,6.294,0,0,0-1.168,2.526,10.641,10.641,0,0,0,.411,4.589,5.729,5.729,0,0,0,.233.628,3.968,3.968,0,0,0,.228.582c.247.5.542.763.878.782.15.009.418.013.737.014l-.008.015h.58l.006-.014m5.459-2.166c-.038.193-.075.366-.1.508-.041.193-.073.345-.087.438-.006.045-.012.086-.015.125-.143.315-.336.6-.521.606s-.624.014-1.1.014l.354-1.928h1.248a1.063,1.063,0,0,0,.276-.037c0,.015,0,.03-.008.045a1.5,1.5,0,0,0,.577-.415,4.393,4.393,0,0,1-.621.643m-1.7-1.626h-4.075v0l-.009,0h-1.564a.321.321,0,0,1-.079-.011c-.1-1.135-.033-2.3.632-2.678a7.068,7.068,0,0,1,2.881-.545c.1,0,.193,0,.289,0h.074c.1,0,.193,0,.289,0a7.112,7.112,0,0,1,2.881.545c.627.36.726,1.414.648,2.485a.638.638,0,0,1-.39.2H445l-.01,0Zm1.859.713c0,.031-.009.062-.013.093a.778.778,0,0,1-.37.11H445.3l.081-.441h1.179a.828.828,0,0,0,.327-.071c0,.015,0,.03-.005.045a1.905,1.905,0,0,0,.511-.268,5.389,5.389,0,0,1-.549.532m-8.341-2.259a2.083,2.083,0,0,1,1.1-1.9,7.183,7.183,0,0,1,3.611-.73c.816.012,3.312.261,4.052,1.212a2.489,2.489,0,0,1,.195,2.4l-.139.413a3.649,3.649,0,0,0-.314-2.609c-.605-.78-2.862-1.072-3.8-1.086a6.886,6.886,0,0,0-3.442.686c-1.479.862-.852,2.875-.845,2.895l.062.181a3.076,3.076,0,0,1-.479-1.461m.215,1.76a2.221,2.221,0,0,0,.6.3c0-.014,0-.027-.006-.04h1.2l.081.441h-1.161c-.019,0-.039,0-.058,0l-.016-.1a4.305,4.305,0,0,1-.641-.6m1.219,3.09a.413.413,0,0,1-.265-.175,1.088,1.088,0,0,0,.022-.556c-.013-.093-.046-.245-.087-.438-.027-.129-.059-.282-.094-.453a4.1,4.1,0,0,1-.7-.7,1.432,1.432,0,0,0,.646.438l-.006-.031h1.224l.354,1.928c-.474,0-.9,0-1.1-.014M441,587.944h3.9l-.081.441h-3.74Zm1.9.916h1.832l-.353,1.926c-.554,0-1.094-.008-1.351-.011v0h-.157v0c-.258,0-.8.009-1.352.011l-.353-1.926Z" transform="translate(-176.624 -296.901)" fill="#003651"/>
      <path id="Path_115" data-name="Path 115" d="M479.536,591.262c.711,0,1.469-.01,1.722-.013.28,0,1.18.013,1.95.013h.113c0,.012.01.024.016.037a2.729,2.729,0,0,1,.585-.025l-.01-.016c.16,0,.292-.006.382-.011a.98.98,0,0,0,.741-.538c.179-.04.371-.236.6-.612a6,6,0,0,0,.3-.57l.006-.014a12.745,12.745,0,0,0,.609-4.57,5.861,5.861,0,0,0-1.239-2.678,4.843,4.843,0,0,0-1.548-1.241,5.4,5.4,0,0,0-2.358-.546h0a4.708,4.708,0,0,0-3.763,1.662,6.293,6.293,0,0,0-1.167,2.526,10.629,10.629,0,0,0,.41,4.589,5.882,5.882,0,0,0,.232.628,4.086,4.086,0,0,0,.228.582c.247.5.542.763.879.782.149.009.418.013.737.014l-.008.015h.58l0-.014M485,589.1c-.038.193-.075.366-.1.508-.041.193-.073.345-.087.438-.006.045-.011.086-.015.125-.143.315-.336.6-.521.606s-.624.014-1.1.014l.354-1.928h1.248a1.068,1.068,0,0,0,.276-.037c0,.015-.006.03-.009.045a1.5,1.5,0,0,0,.578-.415,4.38,4.38,0,0,1-.621.643m-1.7-1.626H479.22v0l-.01,0h-1.564a.321.321,0,0,1-.079-.011c-.1-1.135-.032-2.3.632-2.678a7.068,7.068,0,0,1,2.881-.545c.1,0,.193,0,.289,0h.074c.1,0,.193,0,.289,0a7.106,7.106,0,0,1,2.881.545c.627.36.726,1.414.648,2.485a.636.636,0,0,1-.389.2h-1.564l-.009,0Zm1.859.713-.013.093a.778.778,0,0,1-.369.11h-1.161l.081-.441h1.179a.828.828,0,0,0,.327-.071l-.005.045a1.916,1.916,0,0,0,.512-.268,5.361,5.361,0,0,1-.549.532m-8.341-2.259a2.081,2.081,0,0,1,1.1-1.9,7.184,7.184,0,0,1,3.611-.73c.816.012,3.312.261,4.052,1.212a2.488,2.488,0,0,1,.195,2.4l-.139.413a3.652,3.652,0,0,0-.313-2.609c-.606-.78-2.862-1.072-3.8-1.086a6.887,6.887,0,0,0-3.442.686c-1.48.862-.852,2.875-.845,2.895l.063.181a3.06,3.06,0,0,1-.479-1.461m.215,1.76a2.22,2.22,0,0,0,.6.3c0-.014,0-.027-.005-.04h1.2l.081.441h-1.161c-.02,0-.04,0-.059,0-.005-.034-.011-.069-.017-.1a4.317,4.317,0,0,1-.641-.6m1.219,3.09a.412.412,0,0,1-.264-.175,1.089,1.089,0,0,0,.022-.556c-.014-.093-.046-.245-.087-.438-.027-.129-.059-.282-.093-.453a4.092,4.092,0,0,1-.7-.7,1.432,1.432,0,0,0,.646.438c0-.01,0-.021-.006-.031h1.224l.353,1.928c-.474,0-.9,0-1.1-.014m1.059-2.829h3.9l-.081.441h-3.74Zm1.9.916h1.832l-.353,1.926c-.555,0-1.094-.008-1.352-.011v0h-.157v0c-.258,0-.8.009-1.351.011l-.353-1.926Z" transform="translate(-188.07 -296.901)" fill="#003651"/>
      <path id="Path_116" data-name="Path 116" d="M517.747,591.262c.711,0,1.469-.01,1.722-.013.28,0,1.181.013,1.95.013h.113l.016.037a2.733,2.733,0,0,1,.586-.025l-.011-.016c.161,0,.293-.006.382-.011a.98.98,0,0,0,.741-.538c.179-.04.371-.236.6-.612a5.756,5.756,0,0,0,.3-.57l.006-.014a12.723,12.723,0,0,0,.609-4.57,5.857,5.857,0,0,0-1.239-2.678,4.849,4.849,0,0,0-1.548-1.241,5.393,5.393,0,0,0-2.357-.546h-.005a4.708,4.708,0,0,0-3.763,1.662,6.3,6.3,0,0,0-1.168,2.526,10.642,10.642,0,0,0,.411,4.589,5.669,5.669,0,0,0,.232.628,4.087,4.087,0,0,0,.229.582c.247.5.542.763.878.782.15.009.419.013.738.014l-.009.015h.581a.1.1,0,0,1,0-.014m5.459-2.166c-.038.193-.074.366-.1.508-.041.193-.073.345-.087.438-.007.045-.012.086-.015.125-.143.315-.336.6-.521.606s-.624.014-1.1.014l.354-1.928h1.248a1.069,1.069,0,0,0,.276-.037l-.009.045a1.506,1.506,0,0,0,.578-.415,4.38,4.38,0,0,1-.621.643m-1.7-1.626h-4.076v0l-.009,0h-1.564a.326.326,0,0,1-.08-.011c-.1-1.135-.032-2.3.632-2.678a7.074,7.074,0,0,1,2.881-.545c.1,0,.193,0,.289,0h.074c.1,0,.193,0,.289,0a7.106,7.106,0,0,1,2.881.545c.627.36.726,1.414.648,2.485a.637.637,0,0,1-.39.2h-1.564l-.009,0Zm1.859.713c0,.031-.009.062-.014.093a.775.775,0,0,1-.369.11h-1.161l.081-.441h1.178a.829.829,0,0,0,.328-.071l-.006.045a1.912,1.912,0,0,0,.512-.268,5.365,5.365,0,0,1-.549.532m-8.341-2.259a2.083,2.083,0,0,1,1.1-1.9,7.183,7.183,0,0,1,3.611-.73c.816.012,3.312.261,4.052,1.212a2.488,2.488,0,0,1,.195,2.4l-.139.413a3.658,3.658,0,0,0-.314-2.609c-.605-.78-2.862-1.072-3.8-1.086a6.885,6.885,0,0,0-3.442.686c-1.48.862-.852,2.875-.845,2.895l.062.181a3.065,3.065,0,0,1-.479-1.461m.216,1.76a2.221,2.221,0,0,0,.6.3c0-.014,0-.027-.005-.04h1.2l.081.441h-1.161c-.02,0-.039,0-.058,0l-.017-.1a4.319,4.319,0,0,1-.641-.6m1.219,3.09a.411.411,0,0,1-.264-.175,1.09,1.09,0,0,0,.022-.556c-.014-.093-.046-.245-.087-.438-.027-.129-.059-.282-.093-.453a4.071,4.071,0,0,1-.7-.7,1.433,1.433,0,0,0,.645.438l-.006-.031H517.2l.354,1.928c-.474,0-.9,0-1.1-.014m1.059-2.829h3.9l-.081.441H517.6Zm1.9.916h1.832l-.353,1.926c-.554,0-1.094-.008-1.351-.011v0h-.157v0c-.257,0-.8.009-1.351.011l-.353-1.926Z" transform="translate(-199.486 -296.901)" fill="#003651"/>
      <path id="Path_117" data-name="Path 117" d="M536.406,580.24c.711,0,1.469-.01,1.721-.013.281,0,1.181.013,1.95.013h.114a.386.386,0,0,0,.016.037,2.736,2.736,0,0,1,.585-.025l-.01-.016c.16,0,.292-.006.381-.011a.981.981,0,0,0,.742-.538c.178-.04.37-.236.6-.612a6,6,0,0,0,.3-.57l.006-.015a12.75,12.75,0,0,0,.609-4.569,5.864,5.864,0,0,0-1.24-2.679,4.824,4.824,0,0,0-1.548-1.24,5.393,5.393,0,0,0-2.358-.547h0a4.709,4.709,0,0,0-3.763,1.662,6.3,6.3,0,0,0-1.168,2.526,10.646,10.646,0,0,0,.411,4.588,5.652,5.652,0,0,0,.233.628,4.045,4.045,0,0,0,.229.583c.247.5.542.763.878.782.15.009.419.012.737.014l-.008.015h.58l.006-.014m5.459-2.167c-.038.193-.075.366-.1.509-.041.193-.073.345-.087.438-.006.045-.011.086-.015.125-.144.314-.336.6-.521.605s-.624.015-1.1.014l.353-1.927h1.248a1.084,1.084,0,0,0,.276-.037c0,.015,0,.03-.008.045a1.5,1.5,0,0,0,.577-.415,4.4,4.4,0,0,1-.621.643m-1.7-1.626H536.09v0l-.009,0h-1.564a.323.323,0,0,1-.08-.011c-.1-1.134-.033-2.3.632-2.677a7.063,7.063,0,0,1,2.881-.546c.1,0,.193,0,.289,0h.074c.1,0,.193,0,.289,0a7.1,7.1,0,0,1,2.881.546c.627.36.726,1.414.648,2.485a.637.637,0,0,1-.39.2h-1.564l-.01,0Zm1.859.713c-.005.031-.01.063-.014.093a.774.774,0,0,1-.37.11H540.48l.081-.441h1.179a.84.84,0,0,0,.328-.071l-.006.045a1.9,1.9,0,0,0,.512-.268,5.393,5.393,0,0,1-.549.532m-8.342-2.259a2.082,2.082,0,0,1,1.1-1.9,7.184,7.184,0,0,1,3.611-.73c.816.012,3.312.261,4.052,1.213a2.49,2.49,0,0,1,.195,2.4l-.139.413a3.649,3.649,0,0,0-.313-2.609c-.605-.779-2.862-1.072-3.8-1.086a6.889,6.889,0,0,0-3.442.685c-1.479.862-.851,2.875-.845,2.9l.062.18a3.064,3.064,0,0,1-.48-1.461m.215,1.76a2.181,2.181,0,0,0,.6.3c0-.013,0-.026-.006-.04h1.2l.081.441h-1.161a.509.509,0,0,1-.059,0l-.016-.1a4.328,4.328,0,0,1-.641-.6m1.22,3.09a.413.413,0,0,1-.265-.174,1.089,1.089,0,0,0,.023-.556c-.014-.093-.046-.245-.087-.438-.027-.13-.059-.282-.093-.453a4.088,4.088,0,0,1-.7-.7,1.437,1.437,0,0,0,.646.438l-.006-.031h1.224l.354,1.927c-.474,0-.9,0-1.1-.014m1.059-2.829h3.9l-.081.441h-3.74Zm1.9.916h1.832l-.353,1.926c-.554,0-1.094-.008-1.351-.011v0h-.157v0c-.258,0-.8.009-1.352.011l-.353-1.926Z" transform="translate(-205.06 -293.608)" fill="#003651"/>
      <path id="Path_118" data-name="Path 118" d="M498.579,580.24c.711,0,1.469-.01,1.722-.013.28,0,1.18.013,1.95.013h.113l.016.037a2.742,2.742,0,0,1,.586-.025l-.01-.016c.16,0,.292-.006.382-.011a.979.979,0,0,0,.741-.538c.179-.04.371-.236.6-.612a6.029,6.029,0,0,0,.3-.57l.005-.015a12.716,12.716,0,0,0,.609-4.569,5.853,5.853,0,0,0-1.239-2.679,4.829,4.829,0,0,0-1.548-1.24,5.391,5.391,0,0,0-2.357-.547h0a4.708,4.708,0,0,0-3.763,1.662,6.286,6.286,0,0,0-1.167,2.526,10.633,10.633,0,0,0,.41,4.588,5.725,5.725,0,0,0,.232.628,4.1,4.1,0,0,0,.228.583c.247.5.542.763.879.782.149.009.418.012.737.014l-.009.015h.581l0-.014m5.459-2.167c-.038.193-.075.366-.1.509-.041.193-.073.345-.087.438-.007.045-.011.086-.015.125-.144.314-.336.6-.521.605s-.624.015-1.1.014l.354-1.927h1.248a1.09,1.09,0,0,0,.276-.037c0,.015-.006.03-.009.045a1.5,1.5,0,0,0,.578-.415,4.384,4.384,0,0,1-.621.643m-1.7-1.626h-4.076v0l-.009,0h-1.564a.322.322,0,0,1-.08-.011c-.1-1.134-.032-2.3.631-2.677a7.068,7.068,0,0,1,2.881-.546c.1,0,.193,0,.289,0h.074c.1,0,.193,0,.289,0a7.091,7.091,0,0,1,2.881.546c.627.36.727,1.414.648,2.485a.636.636,0,0,1-.39.2h-1.564l-.009,0Zm1.859.713-.013.093a.774.774,0,0,1-.369.11h-1.161l.081-.441h1.178a.837.837,0,0,0,.328-.071c0,.015,0,.029-.006.045a1.908,1.908,0,0,0,.512-.268,5.32,5.32,0,0,1-.549.532m-8.341-2.259a2.08,2.08,0,0,1,1.1-1.9,7.185,7.185,0,0,1,3.611-.73c.816.012,3.312.261,4.051,1.213a2.49,2.49,0,0,1,.2,2.4l-.139.413a3.656,3.656,0,0,0-.314-2.609c-.606-.779-2.862-1.072-3.8-1.086a6.89,6.89,0,0,0-3.442.685c-1.48.862-.852,2.875-.845,2.9l.063.18a3.055,3.055,0,0,1-.479-1.461m.215,1.76a2.181,2.181,0,0,0,.6.3c0-.013,0-.026-.005-.04h1.2l.081.441h-1.161a.5.5,0,0,1-.059,0c0-.034-.011-.068-.017-.1a4.341,4.341,0,0,1-.641-.6m1.219,3.09a.411.411,0,0,1-.264-.174,1.091,1.091,0,0,0,.022-.556c-.014-.093-.046-.245-.086-.438-.027-.13-.059-.282-.094-.453a4.069,4.069,0,0,1-.7-.7,1.433,1.433,0,0,0,.646.438c0-.011,0-.021-.006-.031h1.224l.354,1.927c-.474,0-.9,0-1.1-.014m1.059-2.829h3.9l-.081.441h-3.74Zm1.9.916h1.832l-.353,1.926c-.555,0-1.094-.008-1.352-.011v0h-.157v0c-.258,0-.8.009-1.351.011l-.353-1.926Z" transform="translate(-193.759 -293.608)" fill="#003651"/>
      <path id="Path_119" data-name="Path 119" d="M460.064,580.24c.711,0,1.469-.01,1.722-.013.28,0,1.181.013,1.95.013h.113l.016.037a2.742,2.742,0,0,1,.586-.025l-.011-.016c.16,0,.293-.006.382-.011a.98.98,0,0,0,.741-.538c.179-.04.371-.236.6-.612a5.912,5.912,0,0,0,.3-.57l.006-.015a12.727,12.727,0,0,0,.609-4.569,5.864,5.864,0,0,0-1.239-2.679,4.839,4.839,0,0,0-1.548-1.24,5.393,5.393,0,0,0-2.358-.547h0a4.707,4.707,0,0,0-3.763,1.662A6.288,6.288,0,0,0,457,573.643a10.631,10.631,0,0,0,.411,4.588,5.636,5.636,0,0,0,.232.628,4.051,4.051,0,0,0,.228.583c.247.5.542.763.878.782.149.009.418.012.737.014l-.009.015h.581a.086.086,0,0,1,.005-.014m5.459-2.167c-.038.193-.075.366-.1.509-.041.193-.073.345-.087.438-.007.045-.012.086-.015.125-.143.314-.336.6-.521.605s-.624.015-1.1.014l.354-1.927H465.3a1.083,1.083,0,0,0,.275-.037l-.008.045a1.509,1.509,0,0,0,.578-.415,4.414,4.414,0,0,1-.621.643m-1.7-1.626h-4.075v0l-.009,0h-1.564a.322.322,0,0,1-.08-.011c-.1-1.134-.032-2.3.632-2.677a7.067,7.067,0,0,1,2.881-.546c.1,0,.193,0,.289,0h.073c.1,0,.193,0,.289,0a7.1,7.1,0,0,1,2.881.546c.627.36.726,1.414.648,2.485a.636.636,0,0,1-.39.2h-1.564l-.009,0Zm1.859.713c0,.031-.009.063-.014.093a.772.772,0,0,1-.369.11h-1.161l.081-.441H465.4a.839.839,0,0,0,.328-.071l-.006.045a1.9,1.9,0,0,0,.512-.268,5.286,5.286,0,0,1-.549.532m-8.341-2.259a2.082,2.082,0,0,1,1.1-1.9,7.183,7.183,0,0,1,3.611-.73c.816.012,3.312.261,4.052,1.213a2.487,2.487,0,0,1,.195,2.4l-.139.413a3.655,3.655,0,0,0-.313-2.609c-.606-.779-2.863-1.072-3.8-1.086a6.888,6.888,0,0,0-3.442.685c-1.48.862-.852,2.875-.845,2.9l.062.18a3.062,3.062,0,0,1-.479-1.461m.215,1.76a2.182,2.182,0,0,0,.6.3c0-.013,0-.026-.005-.04h1.2l.081.441h-1.161a.5.5,0,0,1-.058,0c-.006-.034-.011-.068-.017-.1a4.34,4.34,0,0,1-.641-.6m1.219,3.09a.41.41,0,0,1-.264-.174,1.091,1.091,0,0,0,.022-.556c-.013-.093-.046-.245-.087-.438-.027-.13-.058-.282-.093-.453a4.081,4.081,0,0,1-.7-.7,1.438,1.438,0,0,0,.646.438l-.006-.031h1.224l.353,1.927c-.474,0-.9,0-1.1-.014m1.059-2.829h3.9l-.081.441h-3.74Zm1.9.916h1.832l-.353,1.926c-.554,0-1.094-.008-1.351-.011v0h-.157v0c-.257,0-.8.009-1.351.011L460,577.838Z" transform="translate(-182.252 -293.608)" fill="#003651"/>
      <path id="Path_120" data-name="Path 120" d="M422.236,580.24c.712,0,1.47-.01,1.722-.013.28,0,1.181.013,1.95.013h.113c.005.011.01.024.016.037a2.738,2.738,0,0,1,.585-.025l-.01-.016c.16,0,.292-.006.382-.011a.979.979,0,0,0,.742-.538c.179-.04.371-.236.6-.612a5.923,5.923,0,0,0,.3-.57l.006-.015a12.737,12.737,0,0,0,.61-4.569,5.861,5.861,0,0,0-1.239-2.679,4.833,4.833,0,0,0-1.548-1.24,5.4,5.4,0,0,0-2.358-.547h0a4.708,4.708,0,0,0-3.763,1.662,6.294,6.294,0,0,0-1.168,2.526,10.631,10.631,0,0,0,.411,4.588,5.742,5.742,0,0,0,.232.628,4.043,4.043,0,0,0,.229.583c.247.5.542.763.878.782.15.009.418.012.737.014l-.008.015h.58l0-.014m5.46-2.167c-.038.193-.075.366-.1.509-.04.193-.073.345-.087.438-.006.045-.011.086-.015.125-.143.314-.336.6-.521.605s-.624.015-1.1.014l.354-1.927h1.248a1.087,1.087,0,0,0,.276-.037c0,.015-.005.03-.008.045a1.5,1.5,0,0,0,.577-.415,4.4,4.4,0,0,1-.621.643m-1.7-1.626h-4.076v0l-.009,0h-1.564a.316.316,0,0,1-.079-.011c-.1-1.134-.033-2.3.631-2.677a7.066,7.066,0,0,1,2.881-.546c.1,0,.193,0,.289,0h.074c.1,0,.193,0,.288,0a7.1,7.1,0,0,1,2.881.546c.627.36.726,1.414.648,2.485a.635.635,0,0,1-.39.2h-1.564l-.009,0Zm1.859.713c0,.031-.009.063-.013.093a.775.775,0,0,1-.37.11h-1.161l.081-.441h1.179a.836.836,0,0,0,.327-.071c0,.015,0,.029-.005.045a1.9,1.9,0,0,0,.512-.268,5.34,5.34,0,0,1-.549.532m-8.341-2.259a2.081,2.081,0,0,1,1.1-1.9,7.187,7.187,0,0,1,3.612-.73c.816.012,3.312.261,4.051,1.213a2.49,2.49,0,0,1,.195,2.4l-.139.413a3.654,3.654,0,0,0-.314-2.609c-.605-.779-2.862-1.072-3.8-1.086a6.889,6.889,0,0,0-3.442.685c-1.479.862-.852,2.875-.845,2.9l.063.18a3.061,3.061,0,0,1-.479-1.461m.215,1.76a2.181,2.181,0,0,0,.6.3l-.005-.04h1.2l.081.441h-1.161a.516.516,0,0,1-.059,0c0-.034-.01-.068-.016-.1a4.351,4.351,0,0,1-.641-.6m1.219,3.09a.411.411,0,0,1-.264-.174,1.094,1.094,0,0,0,.022-.556c-.014-.093-.046-.245-.087-.438-.027-.13-.059-.282-.094-.453a4.078,4.078,0,0,1-.7-.7,1.432,1.432,0,0,0,.645.438l-.006-.031h1.223l.354,1.927c-.475,0-.9,0-1.1-.014m1.059-2.829h3.9l-.081.441h-3.741Zm1.9.916h1.832l-.353,1.926c-.555,0-1.094-.008-1.351-.011v0h-.157v0c-.257,0-.8.009-1.351.011l-.353-1.926Z" transform="translate(-170.951 -293.608)" fill="#003651"/>
      <path id="Path_121" data-name="Path 121" d="M422.236,556.373c.712,0,1.47-.01,1.722-.014.28,0,1.181.014,1.95.014h.113c.005.011.01.024.016.037a2.726,2.726,0,0,1,.585-.025l-.01-.016c.16,0,.292-.006.382-.012a.978.978,0,0,0,.742-.538c.179-.039.371-.236.6-.612a5.926,5.926,0,0,0,.3-.57l.006-.015a12.737,12.737,0,0,0,.61-4.57,5.861,5.861,0,0,0-1.239-2.679,4.84,4.84,0,0,0-1.548-1.24,5.4,5.4,0,0,0-2.358-.547h0a4.708,4.708,0,0,0-3.763,1.662,6.292,6.292,0,0,0-1.168,2.526,10.631,10.631,0,0,0,.411,4.588,5.752,5.752,0,0,0,.232.628,4.045,4.045,0,0,0,.229.583c.247.5.542.763.878.781.15.009.418.013.737.014l-.008.015h.58l0-.014m5.46-2.167c-.038.193-.075.366-.1.509-.04.193-.073.345-.087.438-.006.044-.011.086-.015.125-.143.315-.336.6-.521.606s-.624.015-1.1.014l.354-1.928h1.248a1.068,1.068,0,0,0,.276-.037c0,.015-.005.03-.008.045a1.5,1.5,0,0,0,.577-.415,4.4,4.4,0,0,1-.621.643M426,552.58h-4.076v0l-.009,0h-1.564a.316.316,0,0,1-.079-.011c-.1-1.134-.033-2.3.631-2.677a7.067,7.067,0,0,1,2.881-.546c.1,0,.193,0,.289,0h.074c.1,0,.193,0,.288,0a7.1,7.1,0,0,1,2.881.546c.627.36.726,1.414.648,2.485a.635.635,0,0,1-.39.2h-1.564l-.009,0Zm1.859.713c0,.031-.009.063-.013.093a.775.775,0,0,1-.37.11h-1.161l.081-.441h1.179a.827.827,0,0,0,.327-.071c0,.015,0,.03-.005.045a1.9,1.9,0,0,0,.512-.268,5.382,5.382,0,0,1-.549.532m-8.341-2.259a2.081,2.081,0,0,1,1.1-1.9,7.186,7.186,0,0,1,3.612-.73c.816.012,3.312.261,4.051,1.213a2.488,2.488,0,0,1,.195,2.4l-.139.413a3.654,3.654,0,0,0-.314-2.609c-.605-.779-2.862-1.072-3.8-1.086a6.889,6.889,0,0,0-3.442.685c-1.479.862-.852,2.875-.845,2.9l.063.18a3.063,3.063,0,0,1-.479-1.461m.215,1.76a2.192,2.192,0,0,0,.6.3l-.005-.04h1.2l.081.441h-1.161a.5.5,0,0,1-.059,0c0-.034-.01-.068-.016-.1a4.351,4.351,0,0,1-.641-.6m1.219,3.09a.41.41,0,0,1-.264-.174,1.093,1.093,0,0,0,.022-.556c-.014-.093-.046-.245-.087-.438-.027-.13-.059-.282-.094-.453a4.077,4.077,0,0,1-.7-.7,1.427,1.427,0,0,0,.645.438l-.006-.031h1.223l.354,1.928c-.475,0-.9,0-1.1-.014m1.059-2.829h3.9l-.081.441h-3.741Zm1.9.916h1.832l-.353,1.926c-.555,0-1.094-.008-1.351-.011v0h-.157v0c-.257,0-.8.009-1.351.011l-.353-1.926Z" transform="translate(-170.951 -286.478)" fill="#003651"/>
      <path id="Path_122" data-name="Path 122" d="M460.064,556.373c.711,0,1.469-.01,1.722-.014.28,0,1.181.014,1.95.014h.113l.016.037a2.73,2.73,0,0,1,.586-.025l-.011-.016c.16,0,.293-.006.382-.012a.978.978,0,0,0,.741-.538c.179-.039.371-.236.6-.612a5.915,5.915,0,0,0,.3-.57l.006-.015a12.727,12.727,0,0,0,.609-4.57,5.863,5.863,0,0,0-1.239-2.679,4.847,4.847,0,0,0-1.548-1.24,5.4,5.4,0,0,0-2.358-.547h0a4.707,4.707,0,0,0-3.763,1.662A6.286,6.286,0,0,0,457,549.776a10.632,10.632,0,0,0,.411,4.588,5.645,5.645,0,0,0,.232.628,4.054,4.054,0,0,0,.228.583c.247.5.542.763.878.781.149.009.418.013.737.014l-.009.015h.581a.085.085,0,0,1,.005-.014m5.459-2.167c-.038.193-.075.366-.1.509-.041.193-.073.345-.087.438-.007.044-.012.086-.015.125-.143.315-.336.6-.521.606s-.624.015-1.1.014l.354-1.928H465.3a1.064,1.064,0,0,0,.275-.037l-.008.045a1.5,1.5,0,0,0,.578-.415,4.42,4.42,0,0,1-.621.643m-1.7-1.626h-4.075v0l-.009,0h-1.564a.322.322,0,0,1-.08-.011c-.1-1.134-.032-2.3.632-2.677a7.069,7.069,0,0,1,2.881-.546c.1,0,.193,0,.289,0h.073c.1,0,.193,0,.289,0a7.1,7.1,0,0,1,2.881.546c.627.36.726,1.414.648,2.485a.636.636,0,0,1-.39.2h-1.564l-.009,0Zm1.859.713c0,.031-.009.063-.014.093a.772.772,0,0,1-.369.11h-1.161l.081-.441H465.4a.829.829,0,0,0,.328-.071l-.006.045a1.9,1.9,0,0,0,.512-.268,5.326,5.326,0,0,1-.549.532m-8.341-2.259a2.082,2.082,0,0,1,1.1-1.9,7.182,7.182,0,0,1,3.611-.73c.816.012,3.312.261,4.052,1.213a2.486,2.486,0,0,1,.195,2.4l-.139.413a3.655,3.655,0,0,0-.313-2.609c-.606-.779-2.863-1.072-3.8-1.086a6.888,6.888,0,0,0-3.442.685c-1.48.862-.852,2.875-.845,2.9l.062.18a3.064,3.064,0,0,1-.479-1.461m.215,1.76a2.193,2.193,0,0,0,.6.3c0-.013,0-.027-.005-.04h1.2l.081.441h-1.161a.484.484,0,0,1-.058,0c-.006-.034-.011-.068-.017-.1a4.34,4.34,0,0,1-.641-.6m1.219,3.09a.41.41,0,0,1-.264-.174,1.09,1.09,0,0,0,.022-.556c-.013-.093-.046-.245-.087-.438-.027-.13-.058-.282-.093-.453a4.08,4.08,0,0,1-.7-.7,1.432,1.432,0,0,0,.646.438l-.006-.031h1.224l.353,1.928c-.474,0-.9,0-1.1-.014m1.059-2.829h3.9l-.081.441h-3.74Zm1.9.916h1.832l-.353,1.926c-.554,0-1.094-.008-1.351-.011v0h-.157v0c-.257,0-.8.009-1.351.011L460,553.97Z" transform="translate(-182.252 -286.478)" fill="#003651"/>
      <path id="Path_123" data-name="Path 123" d="M498.479,556.373c.711,0,1.469-.01,1.722-.014.28,0,1.181.014,1.95.014h.113l.016.037a2.729,2.729,0,0,1,.586-.025l-.011-.016c.16,0,.293-.006.382-.012a.978.978,0,0,0,.742-.538c.179-.039.371-.236.6-.612a6.032,6.032,0,0,0,.3-.57l.006-.015a12.728,12.728,0,0,0,.61-4.57,5.863,5.863,0,0,0-1.239-2.679,4.846,4.846,0,0,0-1.548-1.24,5.4,5.4,0,0,0-2.358-.547h0a4.707,4.707,0,0,0-3.763,1.662,6.286,6.286,0,0,0-1.168,2.526,10.64,10.64,0,0,0,.41,4.588,5.766,5.766,0,0,0,.233.628,4.047,4.047,0,0,0,.228.583c.247.5.542.763.878.781.149.009.418.013.737.014l-.009.015h.581a.08.08,0,0,1,0-.014m5.459-2.167c-.038.193-.074.366-.1.509-.041.193-.072.345-.086.438-.007.044-.012.086-.015.125-.143.315-.336.6-.521.606s-.624.015-1.1.014l.354-1.928h1.248a1.069,1.069,0,0,0,.276-.037c0,.015-.005.03-.009.045a1.5,1.5,0,0,0,.578-.415,4.4,4.4,0,0,1-.622.643m-1.7-1.626h-4.075v0l-.009,0h-1.564a.325.325,0,0,1-.08-.011c-.1-1.134-.032-2.3.632-2.677a7.067,7.067,0,0,1,2.881-.546c.1,0,.193,0,.288,0h.074c.1,0,.193,0,.289,0a7.1,7.1,0,0,1,2.881.546c.627.36.726,1.414.648,2.485a.637.637,0,0,1-.39.2h-1.564l-.009,0Zm1.859.713c0,.031-.009.063-.014.093a.773.773,0,0,1-.369.11h-1.161l.081-.441h1.178a.83.83,0,0,0,.328-.071l-.006.045a1.9,1.9,0,0,0,.512-.268,5.378,5.378,0,0,1-.549.532m-8.341-2.259a2.081,2.081,0,0,1,1.1-1.9,7.182,7.182,0,0,1,3.611-.73c.816.012,3.312.261,4.052,1.213a2.488,2.488,0,0,1,.2,2.4l-.139.413a3.654,3.654,0,0,0-.314-2.609c-.605-.779-2.862-1.072-3.8-1.086a6.89,6.89,0,0,0-3.442.685c-1.479.862-.851,2.875-.845,2.9l.062.18a3.063,3.063,0,0,1-.479-1.461m.215,1.76a2.2,2.2,0,0,0,.6.3l-.005-.04h1.2l.081.441h-1.161a.5.5,0,0,1-.059,0c0-.034-.011-.068-.016-.1a4.327,4.327,0,0,1-.641-.6m1.219,3.09a.409.409,0,0,1-.264-.174,1.1,1.1,0,0,0,.022-.556c-.013-.093-.046-.245-.086-.438-.027-.13-.059-.282-.093-.453a4.08,4.08,0,0,1-.7-.7,1.432,1.432,0,0,0,.645.438l-.006-.031h1.224l.353,1.928c-.474,0-.9,0-1.1-.014m1.059-2.829h3.9l-.081.441h-3.74Zm1.9.916h1.832l-.353,1.926c-.555,0-1.094-.008-1.352-.011v0h-.157v0c-.258,0-.8.009-1.351.011l-.353-1.926Z" transform="translate(-193.729 -286.478)" fill="#003651"/>
      <path id="Path_124" data-name="Path 124" d="M517.438,567.987c.712,0,1.469-.01,1.722-.013.281,0,1.181.014,1.95.014h.113c0,.011.01.024.016.037a2.675,2.675,0,0,1,.586-.025l-.01-.016c.16,0,.292-.006.381-.011a.981.981,0,0,0,.742-.538c.178-.04.37-.236.6-.612a6.152,6.152,0,0,0,.3-.57l.006-.015a12.751,12.751,0,0,0,.609-4.57,5.859,5.859,0,0,0-1.24-2.678,4.822,4.822,0,0,0-1.548-1.24,5.4,5.4,0,0,0-2.358-.547h0a4.709,4.709,0,0,0-3.763,1.663,6.29,6.29,0,0,0-1.168,2.526,10.634,10.634,0,0,0,.411,4.589,5.677,5.677,0,0,0,.233.628,3.975,3.975,0,0,0,.228.583c.247.5.542.764.878.782.15.009.418.013.737.014l-.008.015h.58l.005-.015m5.459-2.166c-.038.193-.075.366-.1.508-.041.193-.073.345-.087.438-.006.044-.012.086-.015.125-.143.315-.336.6-.52.606s-.624.014-1.1.014l.354-1.927h1.248a1.066,1.066,0,0,0,.276-.037c0,.015,0,.03-.008.046a1.515,1.515,0,0,0,.577-.416,4.416,4.416,0,0,1-.621.643m-1.7-1.626h-4.076v0l-.009,0h-1.565a.37.37,0,0,1-.079-.01c-.1-1.135-.033-2.3.632-2.678a7.069,7.069,0,0,1,2.881-.546c.1,0,.193,0,.289,0h.074c.1,0,.193,0,.289,0a7.09,7.09,0,0,1,2.881.546c.626.36.726,1.413.648,2.484a.638.638,0,0,1-.39.2h-1.564l-.01,0Zm1.859.713c0,.031-.01.063-.014.093a.778.778,0,0,1-.37.11h-1.161l.081-.441h1.178a.824.824,0,0,0,.328-.071c0,.015,0,.029-.006.045a1.9,1.9,0,0,0,.512-.267,5.35,5.35,0,0,1-.549.532m-8.341-2.259a2.082,2.082,0,0,1,1.1-1.9,7.187,7.187,0,0,1,3.612-.73c.816.012,3.313.261,4.052,1.213a2.489,2.489,0,0,1,.195,2.4l-.139.413a3.649,3.649,0,0,0-.314-2.609c-.605-.779-2.862-1.072-3.8-1.086a6.886,6.886,0,0,0-3.442.686c-1.479.862-.851,2.875-.845,2.895l.063.181a3.077,3.077,0,0,1-.479-1.461m.216,1.76a2.2,2.2,0,0,0,.6.3c0-.013,0-.026-.005-.04h1.2l.081.441h-1.161c-.019,0-.039,0-.059,0l-.016-.1a4.321,4.321,0,0,1-.641-.6m1.219,3.09a.414.414,0,0,1-.265-.175,1.09,1.09,0,0,0,.022-.556c-.014-.093-.046-.245-.087-.438-.027-.129-.059-.282-.094-.453a4.081,4.081,0,0,1-.7-.7,1.434,1.434,0,0,0,.645.438l-.006-.031h1.224l.354,1.927c-.474,0-.9,0-1.1-.014m1.059-2.829h3.9l-.081.441H517.29Zm1.9.916h1.832l-.353,1.926c-.555,0-1.094-.008-1.351-.011v0h-.157v0c-.258,0-.8.009-1.352.011l-.353-1.926Z" transform="translate(-199.393 -289.948)" fill="#003651"/>
      <path id="Path_125" data-name="Path 125" d="M479.557,567.987c.711,0,1.469-.01,1.722-.013.28,0,1.181.014,1.95.014h.114l.016.037a2.672,2.672,0,0,1,.585-.025l-.01-.016c.16,0,.292-.006.381-.011a.981.981,0,0,0,.742-.538c.178-.04.371-.236.6-.612a6.025,6.025,0,0,0,.3-.57l.006-.015a12.739,12.739,0,0,0,.609-4.57,5.864,5.864,0,0,0-1.239-2.678,4.824,4.824,0,0,0-1.548-1.24,5.4,5.4,0,0,0-2.358-.547h0a4.709,4.709,0,0,0-3.763,1.663,6.282,6.282,0,0,0-1.167,2.526,10.634,10.634,0,0,0,.411,4.589,5.551,5.551,0,0,0,.232.628,4.043,4.043,0,0,0,.229.583c.246.5.542.764.878.782.15.009.419.013.738.014l-.009.015h.58a.1.1,0,0,1,.005-.015m5.459-2.166c-.039.193-.075.366-.1.508-.041.193-.073.345-.087.438-.007.044-.012.086-.015.125-.143.315-.336.6-.521.606s-.624.014-1.1.014l.353-1.927h1.248a1.066,1.066,0,0,0,.276-.037l-.008.046a1.522,1.522,0,0,0,.577-.416,4.417,4.417,0,0,1-.621.643m-1.7-1.626h-4.075v0l-.009,0h-1.564a.37.37,0,0,1-.08-.01c-.1-1.135-.032-2.3.632-2.678a7.074,7.074,0,0,1,2.881-.546c.1,0,.193,0,.289,0h.073c.1,0,.193,0,.289,0a7.089,7.089,0,0,1,2.881.546c.627.36.726,1.413.648,2.484a.638.638,0,0,1-.39.2h-1.564l-.009,0Zm1.859.713c0,.031-.009.063-.014.093a.777.777,0,0,1-.369.11h-1.161l.081-.441h1.178a.826.826,0,0,0,.328-.071l-.006.045a1.911,1.911,0,0,0,.512-.267,5.348,5.348,0,0,1-.549.532m-8.341-2.259a2.081,2.081,0,0,1,1.1-1.9,7.182,7.182,0,0,1,3.611-.73c.816.012,3.312.261,4.052,1.213a2.487,2.487,0,0,1,.195,2.4l-.139.413a3.654,3.654,0,0,0-.313-2.609c-.605-.779-2.862-1.072-3.8-1.086a6.883,6.883,0,0,0-3.442.686c-1.48.862-.851,2.875-.845,2.895l.062.181a3.067,3.067,0,0,1-.479-1.461m.215,1.76a2.186,2.186,0,0,0,.6.3c0-.013,0-.026-.006-.04h1.2l.081.441h-1.161c-.02,0-.04,0-.059,0l-.016-.1a4.336,4.336,0,0,1-.641-.6m1.219,3.09a.414.414,0,0,1-.265-.175,1.087,1.087,0,0,0,.022-.556c-.014-.093-.046-.245-.087-.438-.027-.129-.059-.282-.093-.453a4.094,4.094,0,0,1-.7-.7,1.44,1.44,0,0,0,.646.438l-.006-.031h1.223l.354,1.927c-.475,0-.9,0-1.1-.014m1.059-2.829h3.9l-.081.441h-3.74Zm1.9.916h1.832l-.353,1.926c-.554,0-1.094-.008-1.351-.011v0H481.2v0c-.257,0-.8.009-1.351.011l-.353-1.926Z" transform="translate(-188.076 -289.948)" fill="#003651"/>
      <path id="Path_126" data-name="Path 126" d="M440.917,567.987c.711,0,1.469-.01,1.722-.013.28,0,1.18.014,1.95.014h.113l.016.037A2.676,2.676,0,0,1,445.3,568l-.01-.016c.16,0,.292-.006.382-.011a.98.98,0,0,0,.741-.538c.179-.04.371-.236.6-.612a6.085,6.085,0,0,0,.3-.57l.005-.015a12.729,12.729,0,0,0,.609-4.57,5.861,5.861,0,0,0-1.239-2.678,4.824,4.824,0,0,0-1.548-1.24,5.4,5.4,0,0,0-2.358-.547h0a4.708,4.708,0,0,0-3.763,1.663,6.282,6.282,0,0,0-1.167,2.526,10.629,10.629,0,0,0,.41,4.589,5.737,5.737,0,0,0,.232.628,4.04,4.04,0,0,0,.229.583c.247.5.542.764.879.782.149.009.418.013.737.014a.1.1,0,0,1-.009.015h.581l.005-.015m5.459-2.166c-.038.193-.075.366-.1.508-.041.193-.073.345-.087.438-.007.044-.011.086-.015.125-.143.315-.336.6-.521.606s-.624.014-1.1.014l.354-1.927h1.248a1.062,1.062,0,0,0,.275-.037l-.008.046a1.516,1.516,0,0,0,.578-.416,4.4,4.4,0,0,1-.621.643m-1.7-1.626H440.6v0l-.009,0h-1.564a.378.378,0,0,1-.08-.01c-.1-1.135-.032-2.3.632-2.678a7.076,7.076,0,0,1,2.881-.546c.1,0,.193,0,.289,0h.074c.1,0,.193,0,.289,0a7.087,7.087,0,0,1,2.881.546c.627.36.726,1.413.648,2.484a.637.637,0,0,1-.39.2h-1.564l-.009,0Zm1.859.713c0,.031-.009.063-.014.093a.775.775,0,0,1-.369.11h-1.161l.081-.441h1.178a.823.823,0,0,0,.328-.071c0,.015,0,.029-.006.045a1.91,1.91,0,0,0,.512-.267,5.3,5.3,0,0,1-.549.532m-8.341-2.259a2.08,2.08,0,0,1,1.1-1.9,7.184,7.184,0,0,1,3.611-.73c.817.012,3.312.261,4.052,1.213a2.488,2.488,0,0,1,.195,2.4l-.139.413a3.653,3.653,0,0,0-.313-2.609c-.606-.779-2.862-1.072-3.8-1.086a6.884,6.884,0,0,0-3.442.686c-1.48.862-.852,2.875-.845,2.895l.063.181a3.062,3.062,0,0,1-.479-1.461m.215,1.76a2.191,2.191,0,0,0,.6.3c0-.013,0-.026-.005-.04h1.2l.081.441h-1.161c-.02,0-.04,0-.059,0l-.017-.1a4.336,4.336,0,0,1-.641-.6m1.219,3.09a.415.415,0,0,1-.264-.175,1.09,1.09,0,0,0,.022-.556c-.014-.093-.045-.245-.086-.438-.027-.129-.059-.282-.093-.453a4.085,4.085,0,0,1-.7-.7,1.439,1.439,0,0,0,.646.438c0-.01,0-.021-.006-.031h1.224l.354,1.927c-.474,0-.9,0-1.1-.014m1.059-2.829h3.9l-.081.441h-3.74Zm1.9.916h1.832l-.353,1.926c-.555,0-1.094-.008-1.352-.011v0h-.157v0c-.258,0-.8.009-1.351.011l-.353-1.926Z" transform="translate(-176.532 -289.948)" fill="#003651"/>
      <path id="Path_127" data-name="Path 127" d="M403.335,567.987c.712,0,1.469-.01,1.722-.013.28,0,1.181.014,1.95.014h.113l.016.037a2.677,2.677,0,0,1,.586-.025l-.01-.016c.16,0,.292-.006.382-.011a.98.98,0,0,0,.742-.538c.178-.04.371-.236.6-.612a5.946,5.946,0,0,0,.3-.57l.006-.015a12.74,12.74,0,0,0,.609-4.57,5.858,5.858,0,0,0-1.239-2.678,4.823,4.823,0,0,0-1.548-1.24,5.4,5.4,0,0,0-2.357-.547h0a4.709,4.709,0,0,0-3.763,1.663,6.294,6.294,0,0,0-1.167,2.526,10.633,10.633,0,0,0,.411,4.589,5.728,5.728,0,0,0,.232.628,4.031,4.031,0,0,0,.228.583c.246.5.542.764.878.782.149.009.418.013.737.014l-.008.015h.58l0-.015m5.46-2.166c-.038.193-.075.366-.1.508-.04.193-.073.345-.087.438-.006.044-.011.086-.015.125-.143.315-.336.6-.521.606s-.624.014-1.1.014l.354-1.927h1.248a1.069,1.069,0,0,0,.276-.037c0,.015-.005.03-.008.046a1.515,1.515,0,0,0,.577-.416,4.418,4.418,0,0,1-.621.643m-1.7-1.626h-4.076v0l-.009,0h-1.564a.363.363,0,0,1-.079-.01c-.1-1.135-.033-2.3.631-2.678a7.074,7.074,0,0,1,2.881-.546c.1,0,.193,0,.289,0h.074c.1,0,.193,0,.288,0a7.09,7.09,0,0,1,2.881.546c.627.36.726,1.413.647,2.484a.635.635,0,0,1-.389.2h-1.564l-.009,0Zm1.859.713c0,.031-.009.063-.013.093a.78.78,0,0,1-.37.11H407.41l.081-.441h1.178A.823.823,0,0,0,409,564.6c0,.015,0,.029-.005.045a1.918,1.918,0,0,0,.512-.267,5.322,5.322,0,0,1-.549.532m-8.341-2.259a2.081,2.081,0,0,1,1.1-1.9,7.187,7.187,0,0,1,3.612-.73c.816.012,3.312.261,4.052,1.213a2.489,2.489,0,0,1,.195,2.4l-.139.413a3.654,3.654,0,0,0-.314-2.609c-.605-.779-2.862-1.072-3.8-1.086a6.885,6.885,0,0,0-3.442.686c-1.48.862-.851,2.875-.845,2.895l.063.181a3.068,3.068,0,0,1-.479-1.461m.215,1.76a2.191,2.191,0,0,0,.6.3c0-.013,0-.026-.005-.04h1.2l.081.441h-1.161c-.02,0-.04,0-.059,0-.005-.034-.011-.069-.016-.1a4.345,4.345,0,0,1-.641-.6m1.219,3.09a.414.414,0,0,1-.264-.175,1.092,1.092,0,0,0,.022-.556c-.014-.093-.046-.245-.087-.438-.027-.129-.059-.282-.094-.453a4.063,4.063,0,0,1-.7-.7,1.435,1.435,0,0,0,.645.438l-.006-.031h1.224l.354,1.927c-.475,0-.9,0-1.1-.014m1.059-2.829h3.9l-.081.441h-3.741Zm1.9.916h1.832l-.353,1.926c-.555,0-1.094-.008-1.351-.011v0h-.157v0c-.257,0-.8.009-1.351.011l-.353-1.926Z" transform="translate(-165.304 -289.948)" fill="#003651"/>
      <g id="Group_11" data-name="Group 11" transform="translate(0 135.28)">
        <text id="Campus_Visits_" data-name="Campus Visits, " transform="translate(0 18.386)" fill="#003651" font-size="7" font-family="Roboto-Regular, Roboto"><tspan x="0" y="0">Campus Visits, </tspan></text>
        <text id="In-Home_Visits_Camps" data-name="In-Home Visits, Camps" transform="translate(0 28.369)" fill="#003651" font-size="7" font-family="Roboto-Regular, Roboto"><tspan x="0" y="0">In-Home Visits, Camps</tspan></text>
        <text id="YOUR" transform="translate(0 8)" fill="#003651" font-size="8" font-family="Roboto-Black, Roboto" font-weight="800"><tspan x="0" y="0">YOUR</tspan></text>
      </g>
      <g id="Group_12" data-name="Group 12" transform="translate(0 189.005)">
        <text id="Player_Development_" data-name="Player Development," transform="translate(0 18.389)" fill="#003651" font-size="7" font-family="Roboto-Regular, Roboto"><tspan x="0" y="0">Player Development,</tspan></text>
        <text id="Nurturing" transform="translate(0 28.376)" fill="#003651" font-size="7" font-family="Roboto-Regular, Roboto"><tspan x="0" y="0">Nurturing</tspan></text>
        <text id="YOUR-2" data-name="YOUR" transform="translate(0 8)" fill="#003651" font-size="8" font-family="Roboto-Black, Roboto" font-weight="800"><tspan x="0" y="0">YOUR</tspan></text>
      </g>
      <g id="Group_13" data-name="Group 13" transform="translate(0 21.082)">
        <text id="Social_Media_" data-name="Social Media," transform="translate(0 18.413)" fill="#003651" font-size="7" font-family="Roboto-Regular, Roboto"><tspan x="0" y="0">Social Media,</tspan></text>
        <text id="YOUR-3" data-name="YOUR" transform="translate(0 8)" fill="#003651" font-size="8" font-family="Roboto-Black, Roboto" font-weight="800"><tspan x="0" y="0">YOUR</tspan></text>
        <text id="On-Field_Performance" data-name="On-Field Performance" transform="translate(0 28.423)" fill="#003651" font-size="7" font-family="Roboto-Regular, Roboto"><tspan x="0" y="0">On-Field Performance</tspan></text>
      </g>
      <g id="Group_14" data-name="Group 14" transform="translate(0 80.889)">
        <text id="Recruiting_Website" data-name="Recruiting Website" transform="translate(0 18.386)" fill="#003651" font-size="7" font-family="Roboto-Regular, Roboto"><tspan x="0" y="0">Recruiting Website</tspan></text>
        <text id="YOUR-4" data-name="YOUR" transform="translate(0 8)" fill="#003651" font-size="8" font-family="Roboto-Black, Roboto" font-weight="800"><tspan x="0" y="0">YOUR</tspan></text>
      </g>
      <path id="Path_128" data-name="Path 128" d="M304.349,234.423H512l25.862-58.338-259.065.006Z" transform="translate(-129.05 -176.085)" fill="#c6d6eb"/>
      <text id="AWARENESS" transform="translate(215.992 37.007)" fill="#333" font-size="20" font-family="Roboto-Black, Roboto" font-weight="800"><tspan x="0" y="0">AWARENESS</tspan></text>
      <g id="Group_15" data-name="Group 15" transform="translate(83.648 32.655)">
        <line id="Line_5" data-name="Line 5" x2="81.885" transform="translate(2.129 2.131)" fill="none" stroke="#003651" stroke-miterlimit="10" stroke-width="2.566"/>
        <ellipse id="Ellipse_7" data-name="Ellipse 7" cx="2.129" cy="2.131" rx="2.129" ry="2.131" fill="#003651"/>
        <line id="Line_6" data-name="Line 6" x2="104.634" transform="translate(2.129 58.051)" fill="none" stroke="#003651" stroke-miterlimit="10" stroke-width="2.566"/>
        <ellipse id="Ellipse_8" data-name="Ellipse 8" cx="2.129" cy="2.131" rx="2.129" ry="2.131" transform="translate(0 55.92)" fill="#003651"/>
        <line id="Line_7" data-name="Line 7" x2="130.215" transform="translate(2.129 118.242)" fill="none" stroke="#003651" stroke-miterlimit="10" stroke-width="2.566"/>
        <ellipse id="Ellipse_9" data-name="Ellipse 9" cx="2.129" cy="2.131" rx="2.129" ry="2.131" transform="translate(0 116.111)" fill="#003651"/>
        <line id="Line_8" data-name="Line 8" x2="155.579" transform="translate(2.129 176.154)" fill="none" stroke="#003651" stroke-miterlimit="10" stroke-width="2.566"/>
        <ellipse id="Ellipse_10" data-name="Ellipse 10" cx="2.129" cy="2.131" rx="2.129" ry="2.131" transform="translate(0 174.023)" fill="#003651"/>
      </g>
      <path id="Path_129" data-name="Path 129" d="M340.794,317.617H497.021l25.863-58.338H315.236Z" transform="translate(-139.938 -200.94)" fill="#0f9fd6"/>
      <text id="INTENT" transform="translate(249.297 95.414)" fill="#333" font-size="16" font-family="Roboto-Black, Roboto" font-weight="800"><tspan x="0" y="0">INTENT</tspan></text>
      <path id="Path_130" data-name="Path 130" d="M377.24,400.81H482.047l25.863-58.338H351.682Z" transform="translate(-150.826 -225.795)" fill="#003651"/>
      <text id="DECISION" transform="translate(274.542 149.067)" fill="#c6d6eb" font-size="14" font-family="Roboto-Black, Roboto" font-weight="800"><tspan x="-31.391" y="0">DECISION</tspan></text>
      <path id="Path_131" data-name="Path 131" d="M412.5,481.294h55.776l24.661-55.628H388.128Z" transform="translate(-161.715 -250.65)" fill="#006ba0"/>
      <text id="COMMIT-_MENT" data-name="COMMIT-
MENT" transform="translate(274.945 197.755)" fill="#c6d6eb" font-size="14" font-family="Roboto-Black, Roboto" font-weight="800"><tspan x="-30.44" y="0">COMMIT-</tspan><tspan x="-19.38" y="13">MENT</tspan></text>
    </g>
  </g>
</svg>
