<svg xmlns="http://www.w3.org/2000/svg" width="408.406" height="336.595" viewBox="0 0 408.406 336.595">
  <g id="Objeto_inteligente_vectorial" data-name="Objeto inteligente vectorial" transform="translate(1)">
    <line id="Line_1" data-name="Line 1" x2="84.964" transform="translate(85.306 34.621)" fill="none" stroke="#003651" stroke-miterlimit="10" stroke-width="2.552"/>
    <path id="Path_1" data-name="Path 1" d="M451.947,478.753a5.423,5.423,0,1,0-5.415-5.423,5.419,5.419,0,0,0,5.415,5.423" transform="translate(-171.692 -215.962)" fill="#007ea5"/>
    <path id="Path_2" data-name="Path 2" d="M430.447,493.565a5.423,5.423,0,1,0-5.415-5.423,5.418,5.418,0,0,0,5.415,5.423" transform="translate(-165.269 -220.387)" fill="#007ea5"/>
    <path id="Path_3" data-name="Path 3" d="M473.493,493.565a5.423,5.423,0,1,0-5.415-5.423,5.418,5.418,0,0,0,5.415,5.423" transform="translate(-178.129 -220.387)" fill="#007ea5"/>
    <path id="Path_4" data-name="Path 4" d="M451.97,506.566a5.423,5.423,0,1,0-5.415-5.423,5.419,5.419,0,0,0,5.415,5.423" transform="translate(-171.699 -224.271)" fill="#007ea5"/>
    <path id="Path_5" data-name="Path 5" d="M450.572,490.254a7.806,7.806,0,0,1,6.541,3.554,10.037,10.037,0,0,1,1.586-.349l.14-.017h.429a7.808,7.808,0,0,1-.723-7.694,7.914,7.914,0,0,0-1.273-.293h-13.4a7.927,7.927,0,0,0-1.273.293,7.808,7.808,0,0,1-.722,7.694h.461l.14.017a10.011,10.011,0,0,1,1.56.341,7.806,7.806,0,0,1,6.535-3.546" transform="translate(-170.301 -221.205)" fill="#007ea5"/>
    <path id="Path_6" data-name="Path 6" d="M455.707,513.268h-13.4s-5.725.677-5.725,5.683v18.6a2.281,2.281,0,0,0,2.381,2.167,2.145,2.145,0,0,0,2.226-2.167v0h0v-15.8h.86v41.41a3.112,3.112,0,0,0,3.248,2.955,2.979,2.979,0,0,0,3.092-2.868V538.708h1.236v24.528l.007.017a2.98,2.98,0,0,0,3.092,2.855,3.112,3.112,0,0,0,3.248-2.955c0-.053,0-.106,0-.158V521.743h.859v15.8a2.145,2.145,0,0,0,2.227,2.167,2.282,2.282,0,0,0,2.381-2.163h0v-18.6c0-5.005-5.726-5.683-5.726-5.683" transform="translate(-168.719 -229.514)" fill="#007ea5"/>
    <path id="Path_7" data-name="Path 7" d="M431.85,508.25A11.047,11.047,0,0,1,435.594,507l.14-.017h.429a7.81,7.81,0,0,1-1.137-6.547,7.107,7.107,0,0,0-.843-.171h-13.4s-5.726.677-5.726,5.683v18.6a2.282,2.282,0,0,0,2.381,2.167,2.145,2.145,0,0,0,2.227-2.167v0h0v-15.8h.859v41.41a3.112,3.112,0,0,0,3.248,2.956,2.979,2.979,0,0,0,3.092-2.868V525.707h.888V515.066a7.554,7.554,0,0,1,4.1-6.816" transform="translate(-162.288 -225.63)" fill="#007ea5"/>
    <path id="Path_8" data-name="Path 8" d="M478.812,500.266h-13.4a7.266,7.266,0,0,0-.873.178,7.807,7.807,0,0,1-1.138,6.539h.461L464,507a11.059,11.059,0,0,1,3.743,1.249,7.554,7.554,0,0,1,4.1,6.817v10.641h.888v24.528l.007.017a2.98,2.98,0,0,0,3.092,2.855,3.112,3.112,0,0,0,3.248-2.955c0-.053,0-.106,0-.158V508.742h.859v15.8a2.145,2.145,0,0,0,2.227,2.167,2.282,2.282,0,0,0,2.381-2.163h0v-18.6c0-5.005-5.726-5.683-5.726-5.683" transform="translate(-176.731 -225.63)" fill="#007ea5"/>
    <g id="Group_1" data-name="Group 1" transform="translate(265.732 310.14)">
      <path id="Path_9" data-name="Path 9" d="M437.974,553.762a4.787,4.787,0,0,1-4.43-2.86v14.863l.007.018a2.98,2.98,0,0,0,3.091,2.855,3.438,3.438,0,0,0,2.022-.643V553.713a4.926,4.926,0,0,1-.69.048" transform="translate(-433.544 -550.897)" fill="#007ea5"/>
      <path id="Path_10" data-name="Path 10" d="M468.217,553.756a4.921,4.921,0,0,1-.69-.048v14.281a3.439,3.439,0,0,0,2.027.646,2.979,2.979,0,0,0,3.092-2.868l0,0V550.9a4.788,4.788,0,0,1-4.43,2.861" transform="translate(-443.697 -550.895)" fill="#007ea5"/>
    </g>
    <path id="Path_11" data-name="Path 11" d="M449.557,505.238c.81,0,1.672-.012,1.96-.015.319,0,1.344.015,2.22.015h.129l.018.042a3.093,3.093,0,0,1,.667-.028l-.012-.018c.183,0,.333-.007.435-.013a1.117,1.117,0,0,0,.844-.613c.2-.044.422-.269.682-.7a6.741,6.741,0,0,0,.344-.649l.006-.017a14.508,14.508,0,0,0,.694-5.206,6.682,6.682,0,0,0-1.411-3.051,5.5,5.5,0,0,0-1.763-1.413,6.138,6.138,0,0,0-2.684-.623h0a5.358,5.358,0,0,0-4.284,1.894,7.165,7.165,0,0,0-1.329,2.878c-.506,2.035.428,5.1.467,5.228a6.407,6.407,0,0,0,.264.716,4.6,4.6,0,0,0,.26.664c.281.57.617.87,1,.891.171.01.477.015.84.016l-.009.018h.66l.006-.017m6.215-2.468c-.043.22-.085.417-.119.579-.046.22-.083.393-.1.5q-.011.076-.017.142c-.163.358-.383.679-.593.69-.225.013-.71.016-1.25.016l.4-2.2h1.421a1.228,1.228,0,0,0,.314-.042c0,.017-.007.034-.01.051a1.718,1.718,0,0,0,.657-.473,5.029,5.029,0,0,1-.707.732m-1.934-1.853H449.2v0l-.011,0h-1.78a.374.374,0,0,1-.091-.012c-.119-1.292-.037-2.616.719-3.05a8.039,8.039,0,0,1,3.279-.622c.109,0,.22,0,.329.005h.084c.11,0,.22-.005.329-.005a8.069,8.069,0,0,1,3.279.622c.714.41.826,1.611.737,2.831a.723.723,0,0,1-.443.232h-1.781l-.01,0Zm2.116.812c-.005.035-.01.071-.016.106a.879.879,0,0,1-.42.125H454.2l.092-.5h1.342a.938.938,0,0,0,.373-.081c0,.017,0,.034-.007.051a2.171,2.171,0,0,0,.583-.3,6.171,6.171,0,0,1-.625.606m-9.5-2.573a2.374,2.374,0,0,1,1.25-2.162,8.183,8.183,0,0,1,4.111-.832c.93.014,3.772.3,4.613,1.382a2.837,2.837,0,0,1,.222,2.73l-.159.47c0-.019.452-1.93-.357-2.972-.689-.888-3.258-1.222-4.324-1.237a7.84,7.84,0,0,0-3.919.781c-1.684.982-.969,3.275-.962,3.3l.071.206a3.5,3.5,0,0,1-.546-1.664m.246,2a2.5,2.5,0,0,0,.681.341c0-.015,0-.03-.006-.045h1.37l.092.5h-1.322a.661.661,0,0,1-.067,0c-.006-.039-.013-.078-.018-.118a4.927,4.927,0,0,1-.73-.678m1.388,3.52a.468.468,0,0,1-.3-.2,1.253,1.253,0,0,0,.025-.634c-.016-.106-.053-.279-.1-.5-.031-.147-.068-.322-.106-.517a4.653,4.653,0,0,1-.792-.795,1.634,1.634,0,0,0,.735.5l-.007-.035h1.393l.4,2.2c-.54,0-1.025,0-1.25-.016m1.206-3.223h4.442l-.092.5h-4.258Zm2.165,1.043h2.086l-.4,2.194c-.631,0-1.245-.009-1.538-.013v0h-.179v0c-.293,0-.907.01-1.538.013l-.4-2.194Z" transform="translate(-171.509 -223.444)" fill="#003651"/>
    <path id="Path_12" data-name="Path 12" d="M471.1,493.948c.809,0,1.672-.012,1.96-.015.319,0,1.344.015,2.22.015h.129c.005.013.011.027.018.042a3.065,3.065,0,0,1,.667-.028l-.012-.018c.182,0,.333-.007.435-.013a1.115,1.115,0,0,0,.844-.613c.2-.045.422-.269.682-.7a6.667,6.667,0,0,0,.344-.65l.007-.017a14.523,14.523,0,0,0,.694-5.207,6.687,6.687,0,0,0-1.411-3.051,5.5,5.5,0,0,0-1.763-1.414,6.146,6.146,0,0,0-2.684-.623h0a5.36,5.36,0,0,0-4.284,1.894,7.172,7.172,0,0,0-1.329,2.878c-.506,2.035.428,5.1.467,5.227a6.214,6.214,0,0,0,.264.716,4.537,4.537,0,0,0,.26.664c.281.57.617.87,1,.891.17.01.476.014.84.016l-.01.018h.661c0-.006,0-.011.006-.017m6.215-2.468c-.043.22-.085.416-.119.579-.046.22-.083.394-.1.5-.008.051-.013.1-.017.142-.163.359-.383.679-.593.69s-.71.017-1.25.016l.4-2.2h1.421a1.224,1.224,0,0,0,.314-.042l-.009.052a1.713,1.713,0,0,0,.657-.473,5.01,5.01,0,0,1-.707.733m-1.934-1.853h-4.64v0l-.011,0h-1.781a.374.374,0,0,1-.09-.012c-.119-1.293-.037-2.616.719-3.051a8.048,8.048,0,0,1,3.28-.621c.109,0,.22,0,.329.005h.084c.109,0,.22-.005.329-.005a8.081,8.081,0,0,1,3.28.621c.713.41.826,1.611.737,2.831a.727.727,0,0,1-.443.232h-1.781l-.01,0Zm2.116.812c-.005.035-.01.071-.016.106a.882.882,0,0,1-.421.125h-1.322l.092-.5h1.342a.948.948,0,0,0,.373-.081l-.007.051a2.157,2.157,0,0,0,.583-.3,6.111,6.111,0,0,1-.625.606m-9.5-2.573a2.373,2.373,0,0,1,1.25-2.162,8.178,8.178,0,0,1,4.111-.832c.929.013,3.771.3,4.613,1.381a2.838,2.838,0,0,1,.222,2.73l-.159.47c0-.019.452-1.93-.357-2.972-.689-.888-3.258-1.221-4.324-1.237a7.833,7.833,0,0,0-3.919.781c-1.685.982-.969,3.275-.962,3.3l.071.207a3.5,3.5,0,0,1-.546-1.665m.245,2.005a2.521,2.521,0,0,0,.681.341c0-.016,0-.03-.006-.045h1.37l.092.5h-1.322c-.022,0-.045,0-.067,0l-.019-.118a4.925,4.925,0,0,1-.73-.678m1.388,3.52a.466.466,0,0,1-.3-.2,1.24,1.24,0,0,0,.025-.634c-.016-.106-.052-.28-.1-.5-.031-.147-.068-.321-.106-.516a4.674,4.674,0,0,1-.792-.8,1.632,1.632,0,0,0,.735.5l-.007-.035h1.393l.4,2.2c-.54,0-1.025,0-1.25-.016m1.206-3.223h4.442l-.092.5h-4.258Zm2.165,1.043h2.086l-.4,2.194c-.631,0-1.245-.009-1.538-.013v0h-.179v0c-.293,0-.907.01-1.538.013l-.4-2.194Z" transform="translate(-177.946 -220.071)" fill="#003651"/>
    <path id="Path_13" data-name="Path 13" d="M449.557,479.137c.81,0,1.672-.012,1.96-.015.319,0,1.344.015,2.22.015h.129l.018.042a3.125,3.125,0,0,1,.667-.028l-.012-.018c.183,0,.333-.007.435-.013a1.116,1.116,0,0,0,.844-.613c.2-.044.422-.269.682-.7a6.741,6.741,0,0,0,.344-.649l.006-.017a14.508,14.508,0,0,0,.694-5.206,6.682,6.682,0,0,0-1.411-3.051,5.5,5.5,0,0,0-1.763-1.413,6.139,6.139,0,0,0-2.684-.623h0a5.359,5.359,0,0,0-4.284,1.894,7.164,7.164,0,0,0-1.329,2.878c-.506,2.035.428,5.1.467,5.228a6.434,6.434,0,0,0,.264.716,4.623,4.623,0,0,0,.26.664c.281.57.617.87,1,.891.171.01.477.015.84.016l-.009.017h.66l.006-.017m6.215-2.468c-.043.22-.085.417-.119.579-.046.22-.083.394-.1.5q-.011.076-.017.142c-.163.358-.383.679-.593.69-.225.013-.71.016-1.25.016l.4-2.2h1.421a1.23,1.23,0,0,0,.314-.042c0,.017-.007.034-.01.052a1.725,1.725,0,0,0,.657-.473,5.031,5.031,0,0,1-.707.732m-1.934-1.853H449.2v0l-.011,0h-1.78a.374.374,0,0,1-.091-.012c-.119-1.293-.037-2.616.719-3.05a8.038,8.038,0,0,1,3.279-.622c.109,0,.22,0,.329.005h.084c.11,0,.22-.005.329-.005a8.068,8.068,0,0,1,3.279.622c.714.41.826,1.611.737,2.831a.724.724,0,0,1-.443.232h-1.781l-.01,0Zm2.116.812c-.005.035-.01.071-.016.106a.879.879,0,0,1-.42.125H454.2l.092-.5h1.342a.937.937,0,0,0,.373-.081c0,.017,0,.034-.007.051a2.185,2.185,0,0,0,.583-.3,6.172,6.172,0,0,1-.625.606m-9.5-2.573a2.374,2.374,0,0,1,1.25-2.162,8.175,8.175,0,0,1,4.111-.831c.93.013,3.772.3,4.613,1.381a2.837,2.837,0,0,1,.222,2.73l-.159.47c0-.019.452-1.929-.357-2.972-.689-.888-3.258-1.222-4.324-1.237a7.836,7.836,0,0,0-3.919.781c-1.684.982-.969,3.275-.962,3.3l.071.206a3.5,3.5,0,0,1-.546-1.664m.246,2a2.5,2.5,0,0,0,.681.341c0-.015,0-.03-.006-.045h1.37l.092.5h-1.322a.661.661,0,0,1-.067,0c-.006-.039-.013-.078-.018-.118a4.949,4.949,0,0,1-.73-.678m1.388,3.521a.468.468,0,0,1-.3-.2,1.253,1.253,0,0,0,.025-.634c-.016-.105-.053-.279-.1-.5-.031-.147-.068-.322-.106-.517a4.655,4.655,0,0,1-.792-.795,1.639,1.639,0,0,0,.735.5l-.007-.035h1.393l.4,2.2c-.54,0-1.025,0-1.25-.016m1.206-3.223h4.442l-.092.5h-4.258Zm2.165,1.043h2.086l-.4,2.194c-.631,0-1.245-.009-1.538-.013v0h-.179v0c-.293,0-.907.01-1.538.013l-.4-2.194Z" transform="translate(-171.509 -215.646)" fill="#003651"/>
    <path id="Path_14" data-name="Path 14" d="M428.057,493.891c.81,0,1.673-.012,1.961-.015.319,0,1.344.015,2.22.015h.129c.005.013.011.027.018.042a3.124,3.124,0,0,1,.667-.028l-.012-.018c.182,0,.333-.007.435-.013a1.114,1.114,0,0,0,.844-.613c.2-.044.422-.269.682-.7a6.637,6.637,0,0,0,.344-.649l.007-.017a14.52,14.52,0,0,0,.694-5.206,6.688,6.688,0,0,0-1.411-3.051,5.5,5.5,0,0,0-1.763-1.413,6.138,6.138,0,0,0-2.685-.623h0A5.358,5.358,0,0,0,425.9,483.5a7.17,7.17,0,0,0-1.329,2.878c-.506,2.035.428,5.1.467,5.228a6.245,6.245,0,0,0,.264.716,4.559,4.559,0,0,0,.26.664c.281.57.617.87,1,.891.17.01.476.015.84.016l-.01.018h.661l.006-.017m6.215-2.468c-.043.22-.085.417-.119.579-.046.22-.083.394-.1.5-.008.051-.013.1-.017.142-.163.358-.383.679-.593.69s-.71.016-1.25.016l.4-2.2h1.421a1.226,1.226,0,0,0,.314-.042l-.009.051a1.723,1.723,0,0,0,.657-.473,5.016,5.016,0,0,1-.707.732m-1.934-1.853H427.7v0l-.011,0h-1.781a.373.373,0,0,1-.09-.012c-.119-1.293-.037-2.616.719-3.05a8.034,8.034,0,0,1,3.279-.622c.109,0,.22,0,.329.005h.084c.109,0,.22-.005.329-.005a8.067,8.067,0,0,1,3.279.622c.713.41.826,1.611.737,2.831a.724.724,0,0,1-.443.232h-1.781l-.01,0Zm2.116.812c-.005.035-.01.071-.016.106a.877.877,0,0,1-.421.125H432.7l.092-.5h1.342a.94.94,0,0,0,.373-.081l-.007.051a2.171,2.171,0,0,0,.583-.3,6.121,6.121,0,0,1-.625.606m-9.5-2.573a2.374,2.374,0,0,1,1.249-2.162,8.177,8.177,0,0,1,4.112-.831c.929.013,3.771.3,4.613,1.381a2.837,2.837,0,0,1,.222,2.73l-.159.47c0-.019.452-1.929-.357-2.972-.689-.888-3.258-1.222-4.324-1.237a7.835,7.835,0,0,0-3.919.781c-1.685.982-.97,3.275-.962,3.3l.071.206a3.5,3.5,0,0,1-.546-1.664m.245,2a2.508,2.508,0,0,0,.681.341c0-.015,0-.03-.006-.045h1.37l.092.5h-1.322a.661.661,0,0,1-.067,0l-.019-.118a4.947,4.947,0,0,1-.73-.678m1.388,3.521a.467.467,0,0,1-.3-.2,1.242,1.242,0,0,0,.025-.634c-.016-.105-.052-.279-.1-.5-.031-.147-.068-.321-.106-.517a4.662,4.662,0,0,1-.792-.795,1.639,1.639,0,0,0,.734.5l-.007-.035h1.393l.4,2.2c-.54,0-1.025,0-1.25-.016m1.206-3.223h4.442l-.092.5h-4.258Zm2.165,1.043h2.086l-.4,2.194c-.631,0-1.245-.009-1.538-.013v0h-.179v0c-.293,0-.907.01-1.538.013l-.4-2.194Z" transform="translate(-165.086 -220.054)" fill="#003651"/>
    <g id="Group_2" data-name="Group 2" transform="translate(0 126.461)">
      <text id="Campus_Visits_" data-name="Campus Visits, " transform="translate(0 18.339)" fill="#003651" font-size="7" font-family="Roboto-Regular, Roboto"><tspan x="0" y="0">Campus Visits, </tspan></text>
      <text id="In-Home_Visits_Camps" data-name="In-Home Visits, Camps" transform="translate(0 28.275)" fill="#003651" font-size="7" font-family="Roboto-Regular, Roboto"><tspan x="0" y="0">In-Home Visits, Camps</tspan></text>
      <text id="YOUR" transform="translate(0 8)" fill="#003651" font-size="8" font-family="Roboto-Black, Roboto" font-weight="800"><tspan x="0" y="0">YOUR</tspan></text>
    </g>
    <g id="Group_3" data-name="Group 3" transform="translate(0 188.063)">
      <text id="Player_Development_" data-name="Player Development," transform="translate(0 18.342)" fill="#003651" font-size="7" font-family="Roboto-Regular, Roboto"><tspan x="0" y="0">Player Development,</tspan></text>
      <text id="Nurturing" transform="translate(0 28.281)" fill="#003651" font-size="7" font-family="Roboto-Regular, Roboto"><tspan x="0" y="0">Nurturing</tspan></text>
      <text id="YOUR-2" data-name="YOUR" transform="translate(0 8)" fill="#003651" font-size="8" font-family="Roboto-Black, Roboto" font-weight="800"><tspan x="0" y="0">YOUR</tspan></text>
    </g>
    <g id="Group_4" data-name="Group 4" transform="translate(0 12.804)">
      <text id="Social_Media_" data-name="Social Media," transform="translate(0 18.365)" fill="#003651" font-size="7" font-family="Roboto-Regular, Roboto"><tspan x="0" y="0">Social Media,</tspan></text>
      <text id="YOUR-3" data-name="YOUR" transform="translate(0 8)" fill="#003651" font-size="8" font-family="Roboto-Black, Roboto" font-weight="800"><tspan x="0" y="0">YOUR</tspan></text>
      <text id="On-Field_Performance" data-name="On-Field Performance" transform="translate(0 28.328)" fill="#003651" font-size="7" font-family="Roboto-Regular, Roboto"><tspan x="0" y="0">On-Field Performance</tspan></text>
    </g>
    <path id="Path_15" data-name="Path 15" d="M293.584,166.683H500.091l25.72-58.062-257.641.006Z" transform="translate(-118.405 -108.621)" fill="#c6d6eb"/>
    <text id="AWARENESS" transform="translate(215.65 36.825)" fill="#333" font-size="20" font-family="Roboto-Black, Roboto" font-weight="800"><tspan x="0" y="0">AWARENESS</tspan></text>
    <ellipse id="Ellipse_1" data-name="Ellipse 1" cx="2.117" cy="2.121" rx="2.117" ry="2.121" transform="translate(83.189 32.5)" fill="#003651"/>
    <line id="Line_2" data-name="Line 2" x2="107.588" transform="translate(85.306 90.276)" fill="none" stroke="#003651" stroke-miterlimit="10" stroke-width="2.552"/>
    <ellipse id="Ellipse_2" data-name="Ellipse 2" cx="2.117" cy="2.121" rx="2.117" ry="2.121" transform="translate(83.189 88.156)" fill="#003651"/>
    <line id="Line_3" data-name="Line 3" x2="133.028" transform="translate(85.306 150.182)" fill="none" stroke="#003651" stroke-miterlimit="10" stroke-width="2.552"/>
    <ellipse id="Ellipse_3" data-name="Ellipse 3" cx="2.117" cy="2.121" rx="2.117" ry="2.121" transform="translate(83.189 148.062)" fill="#003651"/>
    <line id="Line_4" data-name="Line 4" x2="158.252" transform="translate(85.306 207.82)" fill="none" stroke="#003651" stroke-miterlimit="10" stroke-width="2.552"/>
    <ellipse id="Ellipse_4" data-name="Ellipse 4" cx="2.117" cy="2.121" rx="2.117" ry="2.121" transform="translate(83.189 205.699)" fill="#003651"/>
    <path id="Path_16" data-name="Path 16" d="M329.829,249.483H485.2l25.721-58.062H304.412Z" transform="translate(-129.232 -133.358)" fill="#0f9fd6"/>
    <text id="INTENT" transform="translate(248.771 94.956)" fill="#333" font-size="16" font-family="Roboto-Black, Roboto" font-weight="800"><tspan x="0" y="0">INTENT</tspan></text>
    <path id="Path_17" data-name="Path 17" d="M366.074,332.282H470.306l25.721-58.062H340.657Z" transform="translate(-140.061 -158.096)" fill="#003651"/>
    <text id="DECISION" transform="translate(273.848 148.353)" fill="#c6d6eb" font-size="14" font-family="Roboto-Black, Roboto" font-weight="800"><tspan x="-31.391" y="0">DECISION</tspan></text>
    <path id="Path_18" data-name="Path 18" d="M401.139,412.385h55.47l24.526-55.365H376.9Z" transform="translate(-150.89 -182.833)" fill="#006ba0"/>
    <text id="COMMIT-_MENT" data-name="COMMIT-
MENT" transform="translate(274.251 196.809)" fill="#c6d6eb" font-size="14" font-family="Roboto-Black, Roboto" font-weight="800"><tspan x="-30.44" y="0">COMMIT-</tspan><tspan x="-19.38" y="13">MENT</tspan></text>
    <path id="Path_19" data-name="Path 19" d="M539.185,226.455c-.527.237-1.665.28-1.626.964.078,1.52,3.639.154,2.869,2.667a2.985,2.985,0,0,1-1.187,1.452l-.008,0h-1.315l-1.314,1.192-1.566,4.7.752-4.641-5.7,5.645,4.383-6.271,1.253-1.5s-1.878.69-2.191.815,2.942-2.947,2.942-2.947l-8.39.125,4.7-1.316,4.507-.941s1.313-.091,1.82-.2h0a1.177,1.177,0,0,1,.078.251" transform="translate(-196.058 -143.75)" fill="#005587"/>
    <path id="Path_20" data-name="Path 20" d="M537.547,232.26c.958.77.882,2.424,1.195,3.509.141.486.625,1.77.972.673.181-.569-.225-1.379-.282-1.947-.051-.514.047-1.432.766-1.145.253.1.354.406.466.7l.066,1.063.157,1.062.433,1.926.039.786-.942-1.494-.667-.708s-.628.826-.667.944-.118.629-.118.629l-.157,1.258.314,1.573,1.492,1.18-1.924-.826.079.708.589,2.595,1.374,4.247-1.021-1.1s-1.3-2.949-1.335-3.067-.2,3.3-.2,3.3l-.393-3.5-.277-1.953-.155-2.45.169-.874c0-.036,0-.075,0-.109l-1.393,2.129-.667.577-.427.873-.393,1.219-.511,1.651s.04,1.1,0,1.219.2,2.163.2,2.163l-.706-2.084.078-1.966.235-.944-1.374.236,1.57-1.455.079-1.061.707-1.3,1.1-1.691.942-1.927.157-.944-.589-1.219-.667.276-1.021,1.887-.2-.314-1.138,1.141L531.62,239.2a27.162,27.162,0,0,0,1.845-2.674c-.157,0-2.12.472-2.12.472l2.278-.983.824-.825.707-1.495.268-1.034-.15-1.051-.172-.5c.055-.034.1-.064.142-.086,1.531-.862.84,2.056,2.305,1.228" transform="translate(-197.031 -145.145)" fill="#005587"/>
    <text id="Talk_to_former_teammates_and_coaches_scan_NFL_rosters_google_search_the_college_talk_to_parents_and_their_network_read_the_depth_chart_look_at_academic_rankings." data-name="Talk to former teammates and coaches, scan NFL rosters, google search the college, talk to parents and their network, read the depth chart, look at academic rankings." transform="translate(0 63.092)" fill="#003651" font-size="8" font-family="Roboto-Regular, Roboto"><tspan x="0" y="8">Talk to former </tspan><tspan x="0" y="18">teammates and </tspan><tspan x="0" y="28">coaches, scan NFL </tspan><tspan x="0" y="38">rosters, google search </tspan><tspan x="0" y="48">the college, talk to </tspan><tspan x="0" y="58">parents and their </tspan></text>
    <g id="Group_5" data-name="Group 5" transform="translate(364.149 121.499)">
      <path id="Path_21" data-name="Path 21" d="M578.147,287.354a2.866,2.866,0,1,1,1.4-3.8A2.859,2.859,0,0,1,578.147,287.354Z" transform="translate(-573.95 -281.885)" fill="#007ea5"/>
      <path id="Path_22" data-name="Path 22" d="M579.869,298.875h0l-4.295,1.989h0a1.185,1.185,0,0,1-.994-2.152h0l3.56-1.649.5-1.935,1.619,3.453A1.173,1.173,0,0,1,579.869,298.875Z" transform="translate(-573.892 -285.841)" fill="#007ea5"/>
      <path id="Path_23" data-name="Path 23" d="M590.541,289.719h0l-3.6-1.785-1.656,1.322-1.5,1.168s.179.331.545.06c.117-.087.331-.251.569-.434l2.2,4.757.013.024c0,.009.006.017.01.026l.024.053,0,0a2.3,2.3,0,0,1,.124.391l3.911,3.551,3.382-2.189a1.538,1.538,0,0,1,2.226.633,1.577,1.577,0,0,1-.6,1.984l-4.33,2.8a1.535,1.535,0,0,1-1.873-.16l-2.818-2.486-.952-.8a.3.3,0,0,0-.006.494c.286.256.757.669,1.177,1.03l.825,2.736,3.208,3.651a1.544,1.544,0,0,1-.3,2.3,1.572,1.572,0,0,1-2.048-.3l-3.406-3.878a1.535,1.535,0,0,1-.355-.73l-1.643-5.789h0l-.005-.012-3.546-7.484c-.431-1.121.737-2.595,1.773-2.806a2.333,2.333,0,0,1,1.244.085l2.937-2.3a1.18,1.18,0,0,1,1.27-.142h0l4.241,2.1h0a1.078,1.078,0,0,1,.669.937A1.2,1.2,0,0,1,590.541,289.719Z" transform="translate(-575.726 -282.925)" fill="#007ea5"/>
    </g>
    <g id="Group_6" data-name="Group 6" transform="translate(367.333 91.891)">
      <ellipse id="Ellipse_5" data-name="Ellipse 5" cx="2.858" cy="2.854" rx="2.858" ry="2.854" transform="matrix(0.14, -0.99, 0.99, 0.14, 15.832, 20.387)" fill="#007ea5"/>
      <ellipse id="Ellipse_6" data-name="Ellipse 6" cx="2.858" cy="2.854" rx="2.858" ry="2.854" transform="matrix(0.14, -0.99, 0.99, 0.14, 15.832, 21.117)" fill="#003651"/>
      <path id="Path_24" data-name="Path 24" d="M599.973,256.657a1.148,1.148,0,0,0-.553-.36,1.174,1.174,0,0,0-1.109.228l-3.61,3.08a2.483,2.483,0,0,0-.539.649l-2.384,4.135a1.179,1.179,0,1,0,2.042,1.181l2.347-4.069a.5.5,0,0,1,.108-.129l3.568-3.049a1.072,1.072,0,0,0,.221-.256,1.157,1.157,0,0,0,.194-.641A1.19,1.19,0,0,0,599.973,256.657Z" transform="translate(-582.371 -244.616)" fill="#007ea5"/>
      <path id="Path_25" data-name="Path 25" d="M584.01,247.869l3.594.038,1.376-1.569a2.761,2.761,0,0,1,.951-1.3l.281-.211-5.618-.059a.5.5,0,0,1-.4-.213l-2.936-4.228a1.552,1.552,0,1,0-2.546,1.775L582,246.81A2.48,2.48,0,0,0,584.01,247.869Z" transform="translate(-578.432 -239.662)" fill="#007ea5"/>
      <path id="Path_26" data-name="Path 26" d="M598.373,252.289l-3.723-4.972a2.479,2.479,0,0,0-3.474-.5l-.6.448a2.47,2.47,0,0,0-.867,1.212h0l-1.246,1.419L586,252.716a.5.5,0,0,1-.179.129l-4.864,2.066a1.553,1.553,0,1,0,1.211,2.861l5.085-2.152a2.483,2.483,0,0,0,.9-.649l2.749-3.134h0l2.147,2.866,1.6-1.367a1.472,1.472,0,0,1,1.389-.287,1.448,1.448,0,0,1,.693.453,1.493,1.493,0,0,1,.353.961,1.452,1.452,0,0,1-.243.807,1.357,1.357,0,0,1-.274.316l-1.261,1.077a2.467,2.467,0,0,0,1.974-.446l.6-.448A2.487,2.487,0,0,0,598.373,252.289Z" transform="translate(-578.902 -241.652)" fill="#007ea5"/>
      <path id="Path_27" data-name="Path 27" d="M613.561,261.94l-3.4-3.376a2.491,2.491,0,0,0-.681-.479l-2.56-1.221a2.813,2.813,0,0,1-.025.458,2.764,2.764,0,0,1-.924,1.7l2.465,1.173a.494.494,0,0,1,.138.1l3.319,3.319a1.18,1.18,0,0,0,1.665-1.672Z" transform="translate(-586.66 -244.801)" fill="#007ea5"/>
    </g>
    <g id="Group_7" data-name="Group 7" transform="translate(330.245 63.252)">
      <path id="Path_28" data-name="Path 28" d="M537.332,217.941c-.275.638.115,1.314-.1,1.927-.17.478-.864-.129-.983-.274-.276-.331-.262-.862-.52-1.215-.035-.048-.08-.1-.129-.16.124-.047.232-.091.232-.091l.471-.787a10.083,10.083,0,0,0,.354-1.023c0-.064.012-.5.029-.894l-.182-.547-.837-1.064-.8-.536a.538.538,0,0,0-.056.014c-.118.039-1.3.353-1.3.353l-1.452.433-1.453,1.14.589-1.1-2.591.9,3.415-1.926,1.845-.55-.629-.237-2.787-1.415,2.553.747.682-.04-.25-.471-.078-.708-3.966-.865h3.73l-.51-.59-2.114-2.18-1.286-.258-1.8-.3-1.868-.721s1.911.464,2.039.421,1.69-.343,1.69-.343l-1.413-2.753c3.157,2.628,3.8,3.379,4.18,3.955.036.055.452.381.918.738l-.642-.643-1.578-1.709s-1.8-1.986-1.7-1.986,1.894,1.212,1.894,1.212l-.323-1.88,1.707,3.009,1.088.838-.035-2.376-.814-1.809-.215-1.231.232-2.128,1.453,3.46,1.057-1.161,1.809-2.1-1.413,3.538-.668,1.533.012.431.284.391-.117.664.039.319.014,3.989.189.3.122.216v-.59s.107-1.6.107-1.489.389,1.418.389,1.418l.461-.781.567-.851,1.7-4.642-.746,4.128,1.257-.786,2.748-1.455-4.527,4.484-.342.772s-.1.087-.234.21l-.461,1.3.178.461.8,1.333.364-.512v.485c.46-.469,2.392-2.828,2.392-2.828l-.849,3.19-.141,1.488.07.153.595-.751,1.642-3-.831,3.714.15.633-.032.085-.731.7-.451.42-.158.116-.012.1-.614,1.223a.935.935,0,0,1-.5.139c-.171-.468-.185-1.314-.819-1.325" transform="translate(-525.543 -198.822)" fill="#005587"/>
      <path id="Path_29" data-name="Path 29" d="M542.439,226.006l-.234,1.43a11.28,11.28,0,0,1-.421,1.887,3.153,3.153,0,0,1-.351.736,3.026,3.026,0,0,0-.594.963c-.131.607.378,1.177.394,1.8.011.413-.179.895.1,1.194l.436-1.258c.1-.3.207-.6.281-.905.065-.272.106-.549.146-.826.1-.692.2-1.384.279-2.08.052-.478.093-.957.186-1.429.069-.352.167-.7.217-1.054a7.812,7.812,0,0,0-.131-2.271" transform="translate(-530.106 -206.401)" fill="none" stroke="#005587" stroke-miterlimit="10" stroke-width="0.319"/>
    </g>
    <g id="Group_8" data-name="Group 8" transform="translate(349.107 72.35)">
      <path id="Path_30" data-name="Path 30" d="M557.326,218.831a2.45,2.45,0,1,0-2.711,2.16A2.452,2.452,0,0,0,557.326,218.831Z" transform="translate(-552.441 -213.082)" fill="#007ea5"/>
      <path id="Path_31" data-name="Path 31" d="M567.406,216.957v0l.458-4.03h0a1.013,1.013,0,1,0-2.014-.23h0l-.38,3.341-1.435.928,3.237.389A1,1,0,0,0,567.406,216.957Z" transform="translate(-555.905 -211.795)" fill="#007ea5"/>
      <path id="Path_32" data-name="Path 32" d="M563.061,228.087h0l-2.417-2.452.627-1.7.545-1.533s.317.056.2.428c-.039.119-.115.337-.2.579l4.453.514.023,0,.024,0,.049.005,0,0a1.949,1.949,0,0,0,.351,0l3.933,2.227-.866,3.341a1.319,1.319,0,0,0,1.113,1.641,1.348,1.348,0,0,0,1.448-1.021l1.109-4.279a1.318,1.318,0,0,0-.634-1.481l-2.776-1.625-.9-.56a.254.254,0,0,1,.4-.138c.285.164.747.436,1.152.681l2.442-.065,3.826,1.628a1.317,1.317,0,0,0,1.784-.861,1.35,1.35,0,0,0-.795-1.586L573.88,220.1a1.308,1.308,0,0,0-.688-.093l-5.139.221v0h-.011l-7.026-.872c-1.026-.049-1.907,1.3-1.8,2.2a2,2,0,0,0,.4.989l-1.075,3.009a1.013,1.013,0,0,0,.227,1.071h0l2.846,2.886h0a.919.919,0,0,0,.94.292A1.03,1.03,0,0,0,563.061,228.087Z" transform="translate(-554.245 -214.054)" fill="#007ea5"/>
    </g>
    <g id="Group_9" data-name="Group 9" transform="translate(335.695 87.527)">
      <path id="Path_33" data-name="Path 33" d="M546.889,243.578a3.639,3.639,0,1,0-4.761-1.939A3.641,3.641,0,0,0,546.889,243.578Z" transform="translate(-535.862 -234.378)" fill="#007ea5"/>
      <path id="Path_34" data-name="Path 34" d="M533.431,251.254h0l2.335,5.547h0v0a1.285,1.285,0,0,0,1.054.909,1.527,1.527,0,0,0,1.717-2.079h0l-1.892-4.5,4.081-3.3a.564.564,0,0,1,.871.222l2.626,6.2a30.308,30.308,0,0,0,1.92,3.864l1.685,2.32,1.735,2.745-.081,5.96a2.01,2.01,0,0,0,1.866,2.064,1.957,1.957,0,0,0,2.041-1.929l.089-6.623h0a1.952,1.952,0,0,0-.3-1.073l-3.209-5.075,3.4-1.21,3.417-1.092,3.179,4.168a1.952,1.952,0,0,0,2.786.33,2.013,2.013,0,0,0,.269-2.771l-3.965-5.2h0a1.952,1.952,0,0,0-2.146-.678l-5.066,1.62L549,244.937a.566.566,0,0,1,.281-.733l4.2-1.969,0,0a1.5,1.5,0,0,0,.845-1.625h0l-1.062-5.926h0a1.3,1.3,0,0,0-.832-1.122,1.529,1.529,0,0,0-2.127,1.654h0l.858,4.788-4.4,2.06h0l-7.412,3.189a2.992,2.992,0,0,0-1,.686l-4.475,3.555,0,.006a1.5,1.5,0,0,0-.455,1.759Z" transform="translate(-533.315 -233.439)" fill="#007ea5"/>
    </g>
    <path id="Path_35" data-name="Path 35" d="M577.314,287.407c.331-.236.682-.49.8-.575s.556-.384.915-.638l.053-.037.02.012a1.556,1.556,0,0,1,.265-.205l-.01,0c.074-.054.135-.1.175-.131a.561.561,0,0,0,.169-.5.68.68,0,0,0,.078-.483,3.4,3.4,0,0,0-.047-.366l0-.008a7.3,7.3,0,0,0-1.222-2.337,3.35,3.35,0,0,0-1.461-.842,2.764,2.764,0,0,0-1.132-.068,3.081,3.081,0,0,0-1.282.523h0a2.7,2.7,0,0,0-1.209,2.02,3.6,3.6,0,0,0,.287,1.566,6.078,6.078,0,0,0,1.7,2.008,3.08,3.08,0,0,0,.315.217,2.29,2.29,0,0,0,.3.2.659.659,0,0,0,.668.075c.073-.045.2-.132.349-.237v.01l.271-.192,0-.009m1.835-2.815c.046.1.086.195.119.272.045.1.08.185.1.234.012.023.023.044.034.063.037.194.039.389-.043.455s-.287.213-.508.369l-.47-1.017.583-.412a.614.614,0,0,0,.117-.108l.011.024a.864.864,0,0,0,.133-.385,2.536,2.536,0,0,1-.078.506m-1.33-.2-.837.592-.229.162-.837.592h0l0,0-.73.517a.173.173,0,0,1-.041.021c-.423-.5-.772-1.062-.587-1.46a4.053,4.053,0,0,1,1.165-1.207l.136-.093.033-.023h0c.044-.033.089-.066.133-.1a4.064,4.064,0,0,1,1.525-.7c.411-.039.805.421,1.122.947a.366.366,0,0,1-.115.224l-.73.517,0,0Zm1.1-.281.025.048a.443.443,0,0,1-.136.173l-.542.384-.107-.233.55-.389a.488.488,0,0,0,.13-.142l.012.023a1.085,1.085,0,0,0,.151-.294,3.094,3.094,0,0,1-.081.43m-4.639,1.7a1.191,1.191,0,0,1-.112-1.249,4.114,4.114,0,0,1,1.445-1.534c.385-.264,1.633-.972,2.292-.772a1.424,1.424,0,0,1,.881,1.056l.071.239c0-.009-.373-.922-1.006-1.116-.539-.164-1.69.444-2.132.747a3.947,3.947,0,0,0-1.381,1.457c-.407.891.55,1.625.56,1.632l.089.064a1.754,1.754,0,0,1-.705-.525m.681.752a1.27,1.27,0,0,0,.378-.058l-.016-.017.012-.008.55-.389.183.18-.542.383-.028.018-.042-.043a2.5,2.5,0,0,1-.5-.066m1.588,1.041a.234.234,0,0,1-.181.006.619.619,0,0,0-.173-.267c-.037-.039-.1-.1-.185-.177-.055-.051-.121-.112-.193-.181a2.346,2.346,0,0,1-.555-.1.818.818,0,0,0,.446-.008l-.013-.013.571-.4.8.784c-.221.157-.421.3-.518.356m-.438-1.672.8-.564.229-.162.8-.563.108.233-.85.6-.046.033-.85.6Zm1.19-.2.046-.033.81-.573.47,1.017c-.259.182-.514.357-.635.441h0l-.036.026-.038.026h0c-.119.087-.369.267-.627.452l-.8-.784Z" transform="translate(-209.6 -160.18)" fill="#003651"/>
    <path id="Path_36" data-name="Path 36" d="M545.063,243.521c.5-.157,1.041-.33,1.221-.388.2-.06.841-.25,1.388-.42l.081-.025.02.023a1.981,1.981,0,0,1,.411-.147l-.011-.009c.113-.037.206-.069.269-.092a.729.729,0,0,0,.408-.546c.119-.067.212-.249.291-.567a4.309,4.309,0,0,0,.09-.472v-.012a9.486,9.486,0,0,0-.57-3.383,4.356,4.356,0,0,0-1.468-1.631,3.589,3.589,0,0,0-1.372-.542,4.013,4.013,0,0,0-1.8.13h0a3.5,3.5,0,0,0-2.309,2.01,4.682,4.682,0,0,0-.275,2.053,7.918,7.918,0,0,0,1.3,3.172,4.07,4.07,0,0,0,.3.4,2.971,2.971,0,0,0,.29.364c.285.3.552.423.8.363.108-.027.3-.083.527-.152l0,.013.412-.128v-.012m3.4-2.741c.016.146.027.276.038.384.013.146.024.262.034.331,0,.033.011.064.016.092-.033.255-.108.5-.237.546s-.44.147-.777.251l-.172-1.448.887-.275a.8.8,0,0,0,.188-.087l0,.034a1.126,1.126,0,0,0,.319-.422,3.29,3.29,0,0,1-.3.594M546.9,240l-1.274.395-.348.108-1.274.394h0l-.006,0-1.111.344a.232.232,0,0,1-.059.01c-.323-.784-.527-1.625-.139-2.043a5.263,5.263,0,0,1,1.927-1.022c.068-.021.138-.041.207-.06l.049-.015h0c.068-.023.136-.046.2-.067a5.278,5.278,0,0,1,2.166-.246c.524.118.826.846,1.006,1.625a.477.477,0,0,1-.232.23l-1.112.345H546.9Zm1.477.1c0,.023.007.047.011.069a.581.581,0,0,1-.238.16l-.825.255-.039-.332.837-.259a.619.619,0,0,0,.217-.123l.006.033a1.43,1.43,0,0,0,.3-.3,4.037,4.037,0,0,1-.273.5m-6.422.229a1.55,1.55,0,0,1,.363-1.59,5.348,5.348,0,0,1,2.405-1.314c.582-.171,2.411-.543,3.145-.03a1.854,1.854,0,0,1,.664,1.661l-.008.324a2.719,2.719,0,0,0-.8-1.786c-.6-.421-2.268-.133-2.937.064A5.123,5.123,0,0,0,542.5,238.9c-.862.938.026,2.231.035,2.244l.084.115a2.283,2.283,0,0,1-.661-.934m.539,1.2a1.646,1.646,0,0,0,.49.082l-.012-.027.018,0,.837-.259.154.3-.825.255-.042.011-.035-.07a3.222,3.222,0,0,1-.586-.282m1.544,1.928a.3.3,0,0,1-.226-.066.813.813,0,0,0-.106-.4c-.03-.063-.087-.164-.158-.293-.047-.086-.1-.187-.166-.3a3.049,3.049,0,0,1-.647-.343,1.069,1.069,0,0,0,.555.17l-.011-.021.869-.269.674,1.293c-.337.1-.64.2-.783.232m.132-2.245,1.212-.375.348-.108,1.212-.375.039.332-1.294.4-.07.022-1.294.4Zm1.552.233.07-.022,1.232-.382.172,1.447c-.394.121-.779.235-.962.289h0l-.055.018-.057.017h0c-.182.059-.564.182-.957.306l-.674-1.292Z" transform="translate(-200.043 -146.457)" fill="#003651"/>
    <path id="Path_37" data-name="Path 37" d="M557.122,219.726c.063-.363.126-.751.147-.881s.112-.6.181-.995l.01-.058.02,0a1.394,1.394,0,0,1,.04-.3l-.009,0c.013-.082.023-.15.029-.2a.509.509,0,0,0-.208-.427c0-.095-.087-.211-.258-.36a3.087,3.087,0,0,0-.263-.206l-.007,0a6.572,6.572,0,0,0-2.275-.72,3.025,3.025,0,0,0-1.475.394,2.5,2.5,0,0,0-.771.68,2.8,2.8,0,0,0-.489,1.155h0a2.445,2.445,0,0,0,.511,2.071,3.26,3.26,0,0,0,1.183.823,5.487,5.487,0,0,0,2.375.2,2.8,2.8,0,0,0,.341-.062,2.057,2.057,0,0,0,.317-.065c.277-.082.437-.208.477-.379.018-.076.044-.212.073-.375l.007.006.052-.3-.007,0m-.616-2.982.25.1c.095.038.17.068.216.084l.062.019c.148.1.274.225.262.32s-.048.32-.091.562l-.951-.353.111-.638a.539.539,0,0,0,.006-.144l.022.008a.778.778,0,0,0-.16-.332,2.274,2.274,0,0,1,.272.375m-.981.723-.161.915-.044.25-.16.916h0v.005l-.14.8a.158.158,0,0,1-.013.039c-.587-.048-1.173-.189-1.308-.562a3.675,3.675,0,0,1-.021-1.52c.008-.049.018-.1.028-.147l.006-.035v0c.007-.049.015-.1.024-.148a3.685,3.685,0,0,1,.535-1.423c.239-.288.786-.244,1.324-.108a.331.331,0,0,1,.069.217l-.14.8,0,0Zm.529-.886.046.015a.4.4,0,0,1,.023.2l-.1.593-.218-.081.106-.6a.428.428,0,0,0-.007-.174l.022.007a.983.983,0,0,0-.09-.285,2.813,2.813,0,0,1,.222.328m-1.9,4.059a1.077,1.077,0,0,1-.869-.73,3.739,3.739,0,0,1-.05-1.91c.079-.416.429-1.669.98-1.961a1.285,1.285,0,0,1,1.239.115l.2.108a1.887,1.887,0,0,0-1.358-.073c-.451.239-.8,1.366-.893,1.843a3.58,3.58,0,0,0,.042,1.819c.307.833,1.389.692,1.4.69l.1-.016a1.587,1.587,0,0,1-.788.114m.916.048a1.137,1.137,0,0,0,.206-.279h-.021l0-.013.105-.6.232,0-.1.593c0,.01,0,.02-.007.03h-.055a2.247,2.247,0,0,1-.361.274m1.684-.346a.212.212,0,0,1-.113.119.567.567,0,0,0-.281-.061c-.048,0-.129,0-.231,0l-.239.007a2.115,2.115,0,0,1-.418.293.744.744,0,0,0,.281-.29h-.016l.109-.625,1.014-.009c-.042.242-.082.46-.105.56m-1.347-.794.153-.871.044-.25.153-.871.217.081-.162.93-.009.05-.163.93Zm.637-.89.009-.05.155-.885.95.353c-.051.283-.1.558-.127.689h0l-.006.04-.008.04h0c-.021.132-.067.408-.115.691l-1.013.008Z" transform="translate(-203.127 -140.575)" fill="#003651"/>
    <path id="Path_38" data-name="Path 38" d="M602.828,264.254a8.2,8.2,0,0,0-1.869-.015.35.35,0,0,0-.142.037.345.345,0,0,0-.127.218,6.5,6.5,0,0,0-.224,2.035.59.59,0,0,0,.126.4.613.613,0,0,0,.407.127l1.322.084a5.432,5.432,0,0,0,.769.013" transform="translate(-217.68 -155.1)" fill="none" stroke="#003651" stroke-miterlimit="10" stroke-width="0.032"/>
  </g>
</svg>
