<svg id="Layer_1" data-name="Layer 1" xmlns="http://www.w3.org/2000/svg" viewBox="0 0 441.74 424.11"><title>Grey Right</title><path d="M424.56,184.53a196,196,0,0,0-17.88-60.14,203.79,203.79,0,0,0-66.6-79,199.62,199.62,0,0,0-88-35.32C237.43,7.92,222.71,8.4,208,8.69c-16.41.32-32.25,3.61-47.7,8.59-36.6,11.8-67.86,31.91-93.4,60.83a211.66,211.66,0,0,0-33.75,52.46C18.18,163.21,14.27,197.67,17,233c1.91,24.39,9,47.54,19.91,69.37A209.24,209.24,0,0,0,183.21,414.71c7.31,1.49,14.72,1.58,22,2.7h4c.18-1,.89-.76,1.55-.68h2.4c.91-.12,1.84-.33,2.44.67h12.77c.59-1,1.53-.78,2.43-.67h0l2.42,0h0c.82.06,1.89-.75,2.33.65h1.59a2,2,0,0,1,1.48-.41c11.79.12,23.27-2.1,34.55-5.18,39.86-10.9,73.77-31.5,101.16-62.61a206.81,206.81,0,0,0,49.5-103.63c.94-5.47.76-11.05,1.67-16.52v-3.2c-1.38-.44-.6-1.5-.65-2.32l0-2.43c-.1-.9-.33-1.84.68-2.43V205.91c-1-.59-.79-1.53-.68-2.44l0-2.42c.05-.82-.72-1.87.65-2.32v-2.4c-.72-3.9-.45-7.89-1-11.8M294.14,224Q277,241,260,258.09q-35.69,35.7-71.38,71.39c-8.11,8.11-15,8.14-23,.12l-11-11c-7.82-7.85-7.86-14.92-.1-22.7q35.69-35.7,71.41-71.37c3.41-3.41,5.93-7.11,5.91-12.15s-2.51-8.73-6-12.12q-35.34-34.63-70.59-69.37c-8.66-8.52-8.69-15.25-.13-23.81,3.66-3.67,7.32-7.35,11-11,7.34-7.29,14.53-7.36,21.89-.09q43,42.46,86,85,10.21,10.1,20.43,20.19c3.16,3.11,5.19,6.71,5,11.38.13,4.64-2.18,8.22-5.4,11.43" style="fill:#01558a"/><path d="M424.56,184.53a196,196,0,0,0-17.88-60.14,203.79,203.79,0,0,0-66.6-79,199.62,199.62,0,0,0-88-35.32C237.43,7.92,222.71,8.4,208,8.69c-16.41.32-32.25,3.61-47.7,8.59-36.6,11.8-67.86,31.91-93.4,60.83a211.66,211.66,0,0,0-33.75,52.46C18.18,163.21,14.27,197.67,17,233c1.91,24.39,9,47.54,19.91,69.37A209.24,209.24,0,0,0,183.21,414.71c7.31,1.49,14.72,1.58,22,2.7h4c.18-1,.89-.76,1.55-.68h2.4c.91-.12,1.84-.33,2.44.67h12.77c.59-1,1.53-.78,2.43-.67h0l2.42,0h0c.82.06,1.89-.75,2.33.65h1.59a2,2,0,0,1,1.48-.41c11.79.12,23.27-2.1,34.55-5.18,39.86-10.9,73.77-31.5,101.16-62.61a206.81,206.81,0,0,0,49.5-103.63c.94-5.47.76-11.05,1.67-16.52v-3.2c-1.38-.44-.6-1.5-.65-2.32l0-2.43c-.1-.9-.33-1.84.68-2.43V205.91c-1-.59-.79-1.53-.68-2.44l0-2.42c.05-.82-.72-1.87.65-2.32v-2.4c-.72-3.9-.45-7.89-1-11.8M294.14,224Q277,241,260,258.09q-35.69,35.7-71.38,71.39c-8.11,8.11-15,8.14-23,.12l-11-11c-7.82-7.85-7.86-14.92-.1-22.7q35.69-35.7,71.41-71.37c3.41-3.41,5.93-7.11,5.91-12.15s-2.51-8.73-6-12.12q-35.34-34.63-70.59-69.37c-8.66-8.52-8.69-15.25-.13-23.81,3.66-3.67,7.32-7.35,11-11,7.34-7.29,14.53-7.36,21.89-.09q43,42.46,86,85,10.21,10.1,20.43,20.19c3.16,3.11,5.19,6.71,5,11.38.13,4.64-2.18,8.22-5.4,11.43" style="fill:#ddd"/></svg>