<svg id="undraw_Onboarding_re_6osc" xmlns="http://www.w3.org/2000/svg" width="478" height="405.767" viewBox="0 0 478 405.767">
  <path id="Path_3362" data-name="Path 3362" d="M829.63,354.329c4.957,9.745,8.863,19.8,19.8,19.8a19.8,19.8,0,0,0,0-39.591C838.315,334.395,820.4,336.191,829.63,354.329Z" transform="translate(-420.171 -215.468)" fill="#2f2e41"/>
  <path id="Path_3363" data-name="Path 3363" d="M572.143,513.875l-8.46,1.885-11.3-31.734,12.486-2.783Z" transform="translate(-147.125 -128.505)" fill="#a0616a"/>
  <path id="Path_3364" data-name="Path 3364" d="M846.887,705.65l-27.279,6.079-.077-.345a10.878,10.878,0,0,1,8.251-12.984h0l16.661-3.713Z" transform="translate(-417.883 -312.561)" fill="#2f2e41"/>
  <path id="Path_3365" data-name="Path 3365" d="M610.579,529.586h-8.668l-4.124-33.432H610.58Z" transform="translate(-160.428 -132.875)" fill="#a0616a"/>
  <path id="Path_3366" data-name="Path 3366" d="M879.787,722.546H851.84v-.353a10.878,10.878,0,0,1,10.878-10.878h17.07Z" transform="translate(-427.427 -317.432)" fill="#2f2e41"/>
  <path id="Path_3367" data-name="Path 3367" d="M864.58,645.407H853.518a3.194,3.194,0,0,1-3.152-2.751l-10.028-77.569a1.06,1.06,0,0,0-2.075-.13l-5.943,22.149,5.357,50.445a3.178,3.178,0,0,1-2.445,3.467l-8.775,2.025a3.2,3.2,0,0,1-3.75-2.143l-14.131-49.041a27.649,27.649,0,0,1-1.15-11.133l4.421-44.211.335.017,59.029,2.845L867.76,642.336a3.17,3.17,0,0,1-3.18,3.07Z" transform="translate(-414.372 -266.214)" fill="#2f2e41"/>
  <circle id="Ellipse_107" data-name="Ellipse 107" cx="17.364" cy="17.364" r="17.364" transform="translate(410.916 124.442)" fill="#a0616a"/>
  <path id="Path_3368" data-name="Path 3368" d="M870.124,503.45c-.057,0-.115,0-.172,0L811.1,500.281a3.18,3.18,0,0,1-2.857-4.151l4.658-14.464a93.576,93.576,0,0,0,2.472-47.988,29.95,29.95,0,0,1,5.32-24.14,29.506,29.506,0,0,1,21.323-11.769h0q.432-.034.868-.061a29.815,29.815,0,0,1,31.245,34.183l-4.1,27.553,3.272,40.568a3.181,3.181,0,0,1-3.17,3.437Z" transform="translate(-414.607 -231.088)" fill="#ccc"/>
  <path id="Path_3369" data-name="Path 3369" d="M788.759,538.623a7.109,7.109,0,0,0,1.11-10.845L801.2,505.2l-13.038,1.544L779.4,527.948a7.148,7.148,0,0,0,9.358,10.675Z" transform="translate(-408.427 -261.325)" fill="#a0616a"/>
  <path id="Path_3370" data-name="Path 3370" d="M900.665,543.161a7.109,7.109,0,0,1,.718-10.878l-7.4-24.156,12.6,3.7,5.1,22.372a7.148,7.148,0,0,1-11.01,8.961Z" transform="translate(-439.775 -262.056)" fill="#a0616a"/>
  <path id="Path_3371" data-name="Path 3371" d="M893.919,500.6a3.165,3.165,0,0,1-3.15-2.764l-5.888-44.415-9.393-34.708a10.03,10.03,0,0,1,9.436-12.647h0a10.07,10.07,0,0,1,10.134,8.34l13.995,81.972a3.182,3.182,0,0,1-3,3.714l-11.994.507Z" transform="translate(-434.254 -233.565)" fill="#ccc"/>
  <path id="Path_3372" data-name="Path 3372" d="M796.132,494.628a3.262,3.262,0,0,1-.677-.072l-11.74-2.5a3.181,3.181,0,0,1-2.339-4.163l27.5-78.48a10.085,10.085,0,0,1,11.385-6.529h0a10.031,10.031,0,0,1,7.19,14.047L812.369,449.62l-13.211,42.764A3.163,3.163,0,0,1,796.132,494.628Z" transform="translate(-406.728 -232.738)" fill="#ccc"/>
  <path id="Path_3373" data-name="Path 3373" d="M831.247,348.786a23.617,23.617,0,0,0,13.5,4.171,14.473,14.473,0,0,1-5.736,2.36,47.621,47.621,0,0,0,19.452.109,12.589,12.589,0,0,0,4.072-1.4,5.153,5.153,0,0,0,2.514-3.362c.427-2.438-1.473-4.653-3.447-6.146a25.428,25.428,0,0,0-21.368-4.27,11.7,11.7,0,0,0-6.329,3.576c-1.55,1.917-2.01,4.872-.533,6.846Z" transform="translate(-421.393 -217.05)" fill="#2f2e41"/>
  <path id="Path_3374" data-name="Path 3374" d="M576.88,171.875H278.529a6.17,6.17,0,0,0-6.165,6.165v290.8A6.17,6.17,0,0,0,278.529,475h26.159v-1.76H278.529a4.41,4.41,0,0,1-4.4-4.4V178.04a4.41,4.41,0,0,1,4.4-4.4H576.88a4.412,4.412,0,0,1,4.412,4.4v290.8a4.369,4.369,0,0,1-.728,2.418,4.557,4.557,0,0,1-1.668,1.5,4.373,4.373,0,0,1-2.015.488H550.721V475H576.88a6.159,6.159,0,0,0,4.687-2.163,1.374,1.374,0,0,0,.134-.17,5.764,5.764,0,0,0,.884-1.492,6.01,6.01,0,0,0,.467-2.34V178.04A6.172,6.172,0,0,0,576.88,171.875Z" transform="translate(-272.364 -171.875)" fill="#3f3d56"/>
  <rect id="Rectangle_1102" data-name="Rectangle 1102" width="308.924" height="1.762" transform="translate(0.878 24.712)" fill="#3f3d56"/>
  <circle id="Ellipse_108" data-name="Ellipse 108" cx="5.287" cy="5.287" r="5.287" transform="translate(10.571 7.934)" fill="#3f3d56"/>
  <circle id="Ellipse_109" data-name="Ellipse 109" cx="5.287" cy="5.287" r="5.287" transform="translate(25.772 7.934)" fill="#3f3d56"/>
  <circle id="Ellipse_110" data-name="Ellipse 110" cx="5.287" cy="5.287" r="5.287" transform="translate(40.973 7.934)" fill="#3f3d56"/>
  <path id="Path_3375" data-name="Path 3375" d="M531.955,256.913H382.78a9.191,9.191,0,1,1,0-18.382H531.955a9.191,9.191,0,0,1,0,18.382ZM382.78,239.945a7.777,7.777,0,1,0,0,15.554H531.955a7.777,7.777,0,0,0,0-15.554Z" transform="translate(-298.459 -191.406)" fill="#3f3d56"/>
  <path id="Path_3376" data-name="Path 3376" d="M552.93,406.276H328.107a12.032,12.032,0,0,1-12.019-12.019V322.144a12.032,12.032,0,0,1,12.019-12.019H552.93a12.032,12.032,0,0,1,12.019,12.019v72.113a12.032,12.032,0,0,1-12.019,12.019ZM328.107,311.539a10.617,10.617,0,0,0-10.6,10.6v72.113a10.617,10.617,0,0,0,10.6,10.6H552.93a10.617,10.617,0,0,0,10.6-10.6V322.144a10.617,10.617,0,0,0-10.6-10.6Z" transform="translate(-285.176 -208.27)" fill="#3f3d56"/>
  <path id="Path_3377" data-name="Path 3377" d="M498.921,367.937H420.445a5.656,5.656,0,0,1,0-11.312h78.476a5.656,5.656,0,0,1,0,11.312Z" transform="translate(-310.125 -221.733)" fill="#fcd068"/>
  <path id="Path_3378" data-name="Path 3378" d="M571.742,394.937h-151.3a5.656,5.656,0,1,1,0-11.312h151.3a5.656,5.656,0,0,1,0,11.312Z" transform="translate(-309.163 -229.019)" fill="#fcd068"/>
  <circle id="Ellipse_111" data-name="Ellipse 111" cx="21.21" cy="21.21" r="21.21" transform="translate(47.385 129.048)" fill="#fcd068"/>
  <path id="Path_3379" data-name="Path 3379" d="M626.229,427.437h-19.8a5.656,5.656,0,1,1,0-11.312h19.8a5.656,5.656,0,0,1,0,11.312Z" transform="translate(-360.679 -237.79)" fill="#fff"/>
  <path id="Path_3380" data-name="Path 3380" d="M626.229,427.437h-19.8a5.656,5.656,0,1,1,0-11.312h19.8a5.656,5.656,0,0,1,0,11.312Z" transform="translate(-360.679 -237.79)" fill="#ccc"/>
  <path id="Path_3381" data-name="Path 3381" d="M552.926,494.125H328.1a12.036,12.036,0,0,0-12.019,12.019v72.113A12.036,12.036,0,0,0,328.1,590.276H552.926a12.032,12.032,0,0,0,12.019-12.019V506.144A12.031,12.031,0,0,0,552.926,494.125Zm10.6,84.132a10.613,10.613,0,0,1-10.6,10.6H328.1a10.618,10.618,0,0,1-10.6-10.6V506.144a10.618,10.618,0,0,1,10.6-10.6H552.926a10.613,10.613,0,0,1,10.6,10.6Z" transform="translate(-285.174 -256.71)" fill="#3f3d56"/>
  <path id="Path_3382" data-name="Path 3382" d="M498.921,551.937H420.445a5.656,5.656,0,1,1,0-11.312h78.476a5.656,5.656,0,0,1,0,11.312Z" transform="translate(-310.125 -271.388)" fill="#fcd068"/>
  <path id="Path_3383" data-name="Path 3383" d="M571.742,578.937h-151.3a5.656,5.656,0,1,1,0-11.312h151.3a5.656,5.656,0,0,1,0,11.312Z" transform="translate(-309.163 -278.674)" fill="#fcd068"/>
  <circle id="Ellipse_112" data-name="Ellipse 112" cx="21.21" cy="21.21" r="21.21" transform="translate(47.385 263.77)" fill="#fcd068"/>
  <path id="Path_3384" data-name="Path 3384" d="M626.229,611.437h-19.8a5.656,5.656,0,0,1,0-11.312h19.8a5.656,5.656,0,0,1,0,11.312Z" transform="translate(-360.679 -287.445)" fill="#ccc"/>
  <path id="Path_3385" data-name="Path 3385" d="M885.322,727.539H786.343a.707.707,0,0,1,0-1.414h98.979a.707.707,0,0,1,0,1.414Z" transform="translate(-408.029 -321.772)" fill="#3f3d56"/>
</svg>
