<svg id="Dark_Blue_Horizontal" data-name="Dark Blue Horizontal" xmlns="http://www.w3.org/2000/svg" viewBox="0 0 137 31.83"><title>Logo Footer</title><path d="M12.36,8.48a3,3,0,0,0-2.68,1.63l1,.82a1.8,1.8,0,0,1,3.41,0l1-.82A3,3,0,0,0,12.36,8.48Z" style="fill:#fff"/><path d="M12.36,10.6a.9.9,0,0,0-.9.9.37.37,0,0,0,0,.11l.89.75.89-.75V11.5A.9.9,0,0,0,12.36,10.6Z" style="fill:#fff"/><path d="M5.64,5a8.47,8.47,0,0,0-.87,1h0l.94.79a8.15,8.15,0,0,1,13.3,0L20,6a9.57,9.57,0,0,0-.88-1h0a9.23,9.23,0,0,0-.8-.73h0l-.2-.16h0l-.2-.15h0c-.22-.16-.44-.3-.67-.44l0,0-.2-.11,0,0-.2-.1,0,0-.48-.23h0L16,2.84l-.06,0-.19-.07-.06,0-.19-.06-.06,0-.25-.09h0l-.25-.07-.05,0-.2-.05-.08,0-.18,0-.08,0-.19,0-.07,0-.25,0h0l-.26,0h-.08l-.19,0H11.45l-.19,0h-.07l-.26,0h0l-.24,0-.08,0-.18,0-.09,0-.17,0-.08,0-.2.05-.06,0-.25.07h0l-.25.09-.05,0-.19.06L9,2.74l-.18.07-.06,0-.22.09h0L8,3.17l0,0-.2.1,0,0-.19.11,0,0a7.74,7.74,0,0,0-.67.44h0l-.2.15h0l-.2.16h0c-.28.23-.54.47-.8.73Z" style="fill:#fff"/><path d="M12.36,6.36A5.15,5.15,0,0,0,8,8.73l1,.8a3.91,3.91,0,0,1,6.76,0l.94-.8A5.14,5.14,0,0,0,12.36,6.36Z" style="fill:#fff"/><path d="M12.36,4.24a7.26,7.26,0,0,0-6,3.12l.94.79a6,6,0,0,1,10,0l.94-.79A7.28,7.28,0,0,0,12.36,4.24Z" style="fill:#fff"/><path d="M14.28,13.54,21,7.89a9.06,9.06,0,0,0-.57-1.12l-8.07,6.77Z" style="fill:#fff"/><path d="M20.85,13.54l.79-.66a9,9,0,0,0,.1-1.38v-.3l-2.8,2.34Z" style="fill:#fff"/><path d="M17.56,13.54l4.08-3.42a9.67,9.67,0,0,0-.3-1.34l-5.68,4.76Z" style="fill:#fff"/><path d="M5.77,13.54,3,11.2c0,.1,0,.2,0,.3a10.42,10.42,0,0,0,.1,1.38l.8.66Z" style="fill:#fff"/><path d="M9.05,13.54,3.38,8.78a8.43,8.43,0,0,0-.31,1.34l4.08,3.42Z" style="fill:#fff"/><path d="M12.34,13.54,4.26,6.77A9,9,0,0,0,3.7,7.89l6.73,5.65Z" style="fill:#fff"/><polygon points="8.28 20.68 8.28 20.69 9.5 21.91 15.22 21.91 16.44 20.69 16.44 20.68 8.28 20.68" style="fill:#fff"/><polygon points="12.36 24.77 14.32 22.8 10.39 22.8 12.36 24.77" style="fill:#fff"/><path d="M3.93,15.62H20.79a8.63,8.63,0,0,0,.49-1.22H3.43A8.67,8.67,0,0,0,3.93,15.62Z" style="fill:#fff"/><path d="M5.32,17.7H19.39a9.07,9.07,0,0,0,.92-1.22H4.41A9,9,0,0,0,5.32,17.7Z" style="fill:#fff"/><polygon points="7.37 19.79 17.34 19.79 18.56 18.56 6.15 18.56 7.37 19.79" style="fill:#fff"/><path d="M2.78,15.19a10.27,10.27,0,1,1,19.84-3.7,10.1,10.1,0,0,1-.69,3.7l1.75-1.74A11.49,11.49,0,1,0,1,13.45Z" style="fill:#fff"/><polygon points="0 13.65 0 15.38 12.36 27.73 24.71 15.38 24.71 13.65 12.36 26.01 0 13.65" style="fill:#fff"/><text transform="translate(28.07 26.5)" style="font-size:24.914426803588867px;fill:#fff;font-family:Molde-Condensed-Semibold, Molde;font-weight:600">©</text><text transform="translate(43.11 20.1)" style="font-size:19.589494705200195px;fill:#fff;font-family:Molde-Condensed-Semibold, Molde;font-weight:600;letter-spacing:-0.0019940534754901325em">O<tspan x="9.17" y="0" style="letter-spacing:-0.00004985133688725332em">fficialVisit Inc</tspan><tspan x="90.89" y="0" style="letter-spacing:-0.03998077218357716em">.</tspan></text></svg>