<svg id="Layer_1" data-name="Layer 1" xmlns="http://www.w3.org/2000/svg" viewBox="0 0 247.03 79.96"><title>LSU White</title><path d="M.65.64V79.31H71.73V62.1H28.89V.64Zm98.28,0c-13.13,0-23.8,8-23.8,18v30H130.9v7.58c0,3.22-3.68,5.84-8.2,5.84H75.12V79.31h60.13c13.18,0,23.9-8,23.9-18v-30H103.37V23.8c0-3.17,3.71-5.84,8.11-5.84h47.67V.65H98.93Zm119.3,0V56.16c0,3.27-3.68,5.94-8.2,5.94H190.51V.84h-28V79.32h60c13.13,0,23.81-8,23.81-18V.65H218.23Z" style="fill:#fff;stroke:#000;stroke-miterlimit:10;stroke-width:1.2874000072479248px"/></svg>