<svg id="Layer_1" data-name="Layer 1" xmlns="http://www.w3.org/2000/svg" viewBox="0 0 250 245.99"><title>Ohio State</title><path d="M209,78.52l0-31.41L162.4.67h-73L42.27,47l.06,31.51A345.66,345.66,0,0,0,1.09,95.81L.88,216.3l13.83,9,18.27-11,8.42-16.33,48.11,46.72,72.64-.2,37.34-37.14a9.21,9.21,0,0,0,15.46-.86c9.87,7.44,33.91,26.81,33.91,26.81l0-137.78s-23.69-11.78-39.88-17" style="fill:#fff"/><path d="M117.75,69.59l-6.57,6.46v43.83l7.13,6.77h12l.09,40h-9.64V139.74h-9.57v29.37l6.58,6.48,16,.1,6.5-6.58-.18-46.87-7-6.72H121l0-36,9.68,0,0,23.07,9.49,0,0-26.63-6.45-6.43h-16Zm24.52,14.07,0,9.15c2.61.25,6.6.7,6.6.7v61.84c3.25.47,6.65.89,9.61,1.41l-.3-62.11s3.63.51,6.94,1.08V86.49c-7.89-1.39-14.93-2.13-22.86-2.83ZM97.95,84.81c-4.14.55-8.31,1.05-12.49,1.83l-5.2,6.83.08,60.74,4.7,4.23c5.32-1.28,9.3-1.93,14.44-2.72l4.31-5.66L104,90.74l-6-5.94Zm75.12,3.14-5.79,5.3v65.42c2.92.76,5.81,1.36,8.63,2.26v-32.6l5.66,1.61v32.93c2.92,1.08,5.78,2,8.57,3.25V99.59l-5-8.92c-4.21-1.14-7.91-1.81-12.12-2.71h0Zm-97.51.58c-2.91.67-5.82,1.23-8.72,2l-.18,73.29c2.93-1,5.62-1.91,8.88-2.89l0-72.41Zm-13.5,3.29c-3,.87-6,1.53-9,2.64v29.8l-5.88,2.25L47,96.27c-3,1.09-5.86,1.91-8.86,3.13V178c3.19-2.2,5.64-3.38,9.48-5.71l-.09-35.92s3.39-1.47,6-2.36l.09,35.19c2.92-1.42,5.36-2.36,8.42-3.66V91.82Zm131,.95h0l0,9.54c.67.19,7.08,2.18,7.08,2.18l0,65.93a87.23,87.23,0,0,1,8.72,4.89l0-67.76s7.81,3,8.38,3.27V101c-7.78-3.31-16.25-5.77-24.26-8.22ZM94.89,94.86l.23,52.35L89,148.34l.2-52.67,5.67-.82ZM176,97.94h0l5.38,1.33v21L176,118.91v-21Zm44.25,4.2h0Zm0,0,.24,99.9c6.51,5,16.07,12.52,22,17.59v-12L230.07,197.6V161.15s8.64,4.69,12.48,7V156.8c-3.75-2.35-12.86-7.18-12.86-7.18l0-33.16s8.46,4.21,12.86,6.69V112.63c-7.07-4.16-14.86-7.13-22.3-10.48Zm-194.43,2c-4.68,2.19-9.17,4.24-13.65,6.75l-4.58,8.73v93.27l7.24,4.85c1.21-.75,12.57-7.64,13.3-8l4.25-9.11L32.49,109l-6.65-4.86ZM23.56,115.3v86.55l-6.65,4.52,0-87.58,6.61-3.49Z"/><path d="M92,7,48.58,49.6,48.65,83C35.1,87.39,20.88,92.56,7.75,99.64v7c14.44-8.34,36-15.54,47.73-19v-35L95,13.9h61.89l39,38.59,0,35.11c13.51,3.8,33.71,11.46,46.72,18.72V99.25c-13.08-7-26-11.73-39.87-16.16l0-33.37L159.81,7H92ZM112.54,56.4,98.05,70.58V79c2.46-.32,4.38-.41,6.82-.64v-5l10.38-10.13h21.08l10.13,10.08v4.92c2.44.23,4.43.53,6.9.84V70.59L139.2,56.4H112.54Zm34.12,104v11.31l-10.13,10.14-21.36,0-10.29-10V160.44c-2.48.32-4.41.38-6.83.8v13.43l14.3,14,26.79.2,14.25-14.37,0-13.11c-2.42-.42-4.3-.7-6.78-1ZM55.49,174a105.74,105.74,0,0,0-17.32,10.33v8.12a98.29,98.29,0,0,1,10.41-7.73v10.31l43.53,43.28,67.43.07,43.13-43.16V185.15a97.43,97.43,0,0,1,13.2,9.28v-8A111.34,111.34,0,0,0,195.92,174l0,18.19-39,39.34-62.12,0-39.3-39.09V174Z" style="fill:#b0b7bc"/><path d="M97.5,20.22,61.73,55.44V86a244.43,244.43,0,0,1,30-6.11V67.82l18.13-17.68h31.95l17.78,17.8V79.8a244.24,244.24,0,0,1,30,6.15V55.6L154.21,20.22H97.5Zm62.16,142.1,0,14.85-17.63,18L109.75,195l-18-17.77V162.41a151.37,151.37,0,0,0-29.95,9v18.4l35.57,35,57,.44,35.27-35.64V171.34a148.39,148.39,0,0,0-29.95-9Z" style="fill:#ce0f3d"/></svg>