<svg id="Layer_1" data-name="Layer 1" xmlns="http://www.w3.org/2000/svg" viewBox="0 0 193.58 101.32"><title>OSU White</title><path d="M142.47,15.86l.89-2.46L126.31.78H98.89c-11.73,0-20.68,8.75-25,15.11H42.13c-5.16-.1-19.81,2.27-24.36,14.33-2.47,6.55-6.66,20-8.93,27.37L8.7,58h0l-8,25.5H48.11l-1,2.53,18,14.06H91c13.43,0,22.56-8.86,27.4-18.3l4,2.7h28.52c6.42.36,18-2.35,22.64-14.84l7.18-20.24,3.13-8.92,6.1-17.73,2.38-6.89H142.47"/><path d="M139.71,14.5,125.3,3.84H98.89c-11.36,0-19.85,9.31-23.35,15.1H42.13c-4.31-.09-17.6,2-21.5,12.35C18.18,37.77,11.29,60,11.29,60L4.89,80.45H52.61L50.79,85,66.21,97H91c13.53,0,22.24-10.14,26.13-19.81l6.18,4.21h27.6c5.52.36,15.74-1.93,19.75-12.84l7.17-20.2L181,39.44l6-17.7,1-2.83H138.14l1.58-4.41" style="fill:#fff"/><path d="M137.16,15.27,124.6,6H98.89C87.31,6,79.1,16.7,76.74,21.07H42.13c-4.72-.09-16.21,2.23-19.5,11-2.48,6.56-6.82,20.52-8.83,27.06L20,63.28l-7.49-.05L7.8,78.3h48l-2.39,6L66.94,94.9h24c14.73,0,22.5-12.83,25.06-21l7.9,5.39h27c4.79.36,14.09-1.56,17.73-11.44,1.5-4.09,7-19.62,7.19-20.28l3.1-8.81h0L185,21H135.11l2.06-5.78"/><path d="M97.94,11.64,96.45,12c-5.78,1.48-11,6.42-14.82,14-1.39,2.78-1.88,4-4.66,11.85-2.4,6.76-2.47,7-2.16,7.31s5.49,4.31,11.81,9.2,11.51,9,11.54,9.09-1,3-2.22,6.43l-2.26,6.23H78.56s.68-1.86,1.51-4.08,1.55-4.17,1.6-4.34-1.24-.31-26.22-.31c-14.47,0-29.27,0-32.88-.12H16l-.83,2.79c-.46,1.54-.83,2.85-.83,2.92s11.24.15,25,.17h25L62.62,77.8c-.94,2.56-1.7,4.76-1.67,4.89A44.86,44.86,0,0,0,65,85.89h0l4,3H81.4c12.14,0,12.4,0,13.84-.43A20.74,20.74,0,0,0,100.61,86a26.58,26.58,0,0,0,4.82-4.6,33.36,33.36,0,0,0,5.07-9.87c.22-.71,1.56-4.68,3-8.83a64.93,64.93,0,0,0,2.44-7.7c-.09-.11-5.26-4.34-11.48-9.4s-11.33-9.29-11.33-9.39.92-2.71,2.05-5.79l2.06-5.61h15.18s-1.85,5-2.44,6.49c-.3.75-.55,1.4-.55,1.45s14.63.08,32.51.08h32.51l1.07-2.67,1.07-2.67-6.33-.11c-3.48-.06-14.72-.12-25-.13s-18.64-.07-18.64-.13.76-2.24,1.69-4.85c1.37-3.84,1.65-4.77,1.45-4.89S128,16,126,14.6L122.51,12h-1.32c-.73,0-6.25-.09-12.29-.2l-11-.21ZM66.18,27.32h-28l-1.18.5A14.34,14.34,0,0,0,28.22,36c-.65,1.55-7.64,21.83-7.55,21.91l4,2.81,3.94,2.75,12.82-.06c14-.07,13.46,0,16.22-1.12a13.56,13.56,0,0,0,6.31-5c.34-.56,2.33-5.79,4.76-12.51C71,38.4,73,33,73.09,32.72c.18-.48.16-.5-3.36-2.94ZM41.73,33.11h9.11c7.46,0,9.11,0,9.11.23S58,39,55.67,45.58h0l-4.28,12h-9c-5,0-9,0-9-.11s7.43-22.13,8-23.67l.28-.75Zm87.4,4-1.54,4.34-5.45,15.31c-3,8.49-3.86,11-3.7,11.17s1.84,1.31,3.84,2.67l3.63,2.47h26.44A12.11,12.11,0,0,0,161,69c1.55-1.85,1.39-1.44,8.69-22.39,1.78-5.1,3.23-9.3,3.23-9.35s-2.93-.06-6.52,0h-6.51l-1.37,4L154.13,54c-1.69,4.88-3.29,9.33-3.57,9.9a6.6,6.6,0,0,1-3,3l-1,.47-7.5,0h-7.5S141.77,38,142,37.36c.07-.17-1.29-.22-6.4-.22h-6.49Z" style="fill:#fff"/></svg>