<svg id="Dark_Blue_Horizontal" data-name="Dark Blue Horizontal" xmlns="http://www.w3.org/2000/svg" viewBox="0 0 305 80"><title>OV_Blue</title><path d="M36,26a8.18,8.18,0,0,0-7.25,4.41l2.65,2.22a4.85,4.85,0,0,1,9.2,0l2.64-2.22A8.15,8.15,0,0,0,36,26Z" style="fill:#0c6191"/><path d="M36,31.73a2.43,2.43,0,0,0-2.43,2.43c0,.1,0,.2,0,.3l2.41,2,2.41-2c0-.1,0-.2,0-.3A2.43,2.43,0,0,0,36,31.73Z" style="fill:#094b7c"/><path d="M17.84,16.46a26.17,26.17,0,0,0-2.36,2.79h0L18,21.39a22.05,22.05,0,0,1,36,0l2.54-2.13a25.32,25.32,0,0,0-2.36-2.8l0,0a28.68,28.68,0,0,0-2.15-2h0L51.45,14l-.05,0-.54-.4,0,0c-.59-.42-1.19-.82-1.81-1.19l-.08-.05L48.41,12,48.3,12l-.53-.29a.31.31,0,0,1-.1-.05c-.42-.22-.86-.43-1.29-.62l-.05,0-.59-.26-.15-.06-.51-.2-.17-.07-.51-.18-.16-.06-.66-.22h0l-.7-.2-.14,0-.53-.14L42,9.49l-.48-.11-.23-.05-.49-.1-.21,0-.67-.11h0L39.17,9,39,9l-.5,0-.26,0-.47,0-.26,0-.5,0H35.05l-.5,0-.26,0-.47,0-.26,0-.5,0-.21,0-.71.1h0l-.67.11-.21,0-.49.1-.23.05L30,9.49l-.22.06-.53.14-.15,0-.69.2h0l-.66.22-.16.06-.51.18-.18.07-.5.2-.15.06-.59.26-.05,0c-.44.19-.87.4-1.29.62l-.1.05-.53.29-.11.06-.53.31-.08.05c-.62.37-1.22.77-1.81,1.19l0,0-.54.4-.05,0-.55.42h0a28.68,28.68,0,0,0-2.15,2Z" style="fill:#0c6191"/><path d="M36,20.25a13.9,13.9,0,0,0-11.7,6.41l2.56,2.15a10.58,10.58,0,0,1,18.28,0l2.56-2.15A13.9,13.9,0,0,0,36,20.25Z" style="fill:#4e7da8"/><path d="M36,14.52A19.63,19.63,0,0,0,19.89,23l2.55,2.14a16.31,16.31,0,0,1,27.14,0L52.13,23A19.63,19.63,0,0,0,36,14.52Z" style="fill:#004a7c"/><path d="M41.21,39.67,59.43,24.39a25.35,25.35,0,0,0-1.52-3L36.06,39.67Z" style="fill:#4e7da8"/><path d="M59,39.67l2.15-1.8a25.21,25.21,0,0,0,.28-3.71c0-.28,0-.55,0-.83l-7.55,6.34Z" style="fill:#004a7c"/><path d="M50.09,39.67l11-9.24a24.33,24.33,0,0,0-.82-3.64L44.94,39.67Z" style="fill:#0c6191"/><path d="M18.2,39.67l-7.55-6.34c0,.28,0,.55,0,.83a25.21,25.21,0,0,0,.28,3.71l2.14,1.8Z" style="fill:#004a7c"/><path d="M27.08,39.67,11.73,26.79a24.33,24.33,0,0,0-.82,3.64l11,9.24Z" style="fill:#0c6191"/><path d="M36,39.67,14.11,21.35a25.35,25.35,0,0,0-1.52,3L30.81,39.67Z" style="fill:#4e7da8"/><polygon points="24.98 58.98 24.98 58.99 28.27 62.29 43.75 62.29 47.04 58.99 47.04 58.98 24.98 58.98" style="fill:#336e9c"/><polygon points="36.01 70.03 41.32 64.72 30.7 64.72 36.01 70.03" style="fill:#4e7da8"/><path d="M13.21,45.3H58.8A23.91,23.91,0,0,0,60.15,42H11.87A25.17,25.17,0,0,0,13.21,45.3Z" style="fill:#004a7c"/><path d="M17,50.93H55a25.65,25.65,0,0,0,2.47-3.31h-43A25.65,25.65,0,0,0,17,50.93Z" style="fill:#005586"/><polygon points="22.54 56.55 49.48 56.55 52.79 53.24 19.23 53.24 22.54 56.55" style="fill:#0c6191"/><path d="M10.12,44.14a27.76,27.76,0,1,1,53.65-10,27.58,27.58,0,0,1-1.87,10l4.73-4.72a31.85,31.85,0,0,0,.45-5.3,31.07,31.07,0,0,0-62.14,0,31.85,31.85,0,0,0,.45,5.3Z" style="fill:#004a7c"/><polygon points="2.59 39.96 2.59 44.63 36.01 78.05 69.42 44.64 69.42 39.96 36.01 73.38 2.59 39.96" style="fill:#004a7c"/><path d="M74.59,48.43v-16c0-6.71,3.9-10.65,10.22-10.66S95,25.77,95,32.46v16c0,6.83-3.91,10.85-10.24,10.85S74.59,55.26,74.59,48.43ZM84.8,55c3.15,0,5.08-2.27,5.08-6.5V32.37c0-4.09-1.92-6.31-5.07-6.33s-5.06,2.22-5.06,6.33V48.52c0,4.23,1.91,6.5,5,6.5Z" style="fill:#004a7c"/><path d="M105.76,34.78v7.78h7.76v3.67h-7.76V58.87H101.1V31h13.72v3.78Z" style="fill:#004a7c"/><path d="M124.19,34.78v7.78H132v3.67h-7.76V58.87h-4.66V31h13.72v3.78Z" style="fill:#004a7c"/><path d="M142.62,58.87H138V31h4.66Z" style="fill:#004a7c"/><path d="M165.53,51c0,5.73-3.43,8.29-8.47,8.29s-8.75-2.6-8.75-9V39.46c0-6.35,3.62-8.88,8.78-8.88s8.44,2.6,8.44,8.26v2.35H161.1V38.72c0-3.16-1.87-4.39-3.93-4.39-2.4,0-4.08,1.23-4.08,5.05v11c0,3.89,1.68,5.2,4.06,5.2s3.95-1.28,3.95-4.44V48.69h4.43Z" style="fill:#004a7c"/><path d="M175.93,58.87h-4.67V31h4.67Z" style="fill:#004a7c"/><path d="M193.38,53.07h-6.95l-1.19,5.8h-4.83L187,31h5.89l6.55,27.87h-4.84Zm-.73-3.55L189.9,36.08l-2.74,13.44Z" style="fill:#004a7c"/><path d="M217.28,58.86H203.89V31h4.48V55h8.91Z" style="fill:#004a7c"/><path d="M241.75,22.21l-7.63,36.66H228l-7.64-36.66h5.2L231.07,52l5.47-29.74Z" style="fill:#004a7c"/><path d="M249.76,58.87H245.1V31h4.66Z" style="fill:#004a7c"/><path d="M271.33,37.73v2.36H267V37.61c0-2.12-1.37-3.33-3.7-3.33s-3.4,1.16-3.4,3.1v1.09c0,5.84,11.6,3.15,11.6,12.64V52.2c0,4.62-2.93,7.1-8.23,7.1s-8.16-2.7-8.16-7.19V49.69h4.34v2.5c0,2.21,1.38,3.4,3.8,3.4,2.24,0,3.59-1.12,3.59-3.22v-1.1c0-6.26-11.53-3.69-11.53-12.75V37.45c0-4.45,2.94-6.87,8-6.87C268.63,30.58,271.33,33.22,271.33,37.73Z" style="fill:#004a7c"/><path d="M281.6,58.87h-4.67V31h4.67Z" style="fill:#004a7c"/><path d="M296.66,34.89v24H292v-24h-5.94V31h16.54v3.89Z" style="fill:#004a7c"/></svg>